999
dxfrw 0.6.3
  0
SECTION
  2
HEADER
  9
$ACADVER
  1
AC1021
  9
$DWGCODEPAGE
  3
ANSI_1252
  9
$INSBASE
 10
0
 20
0
 30
0
  9
$EXTMIN
 10
-0.0007338438788906387
 20
0
 30
0
  9
$EXTMAX
 10
849.4728344295872
 20
500
 30
0
  9
$LIMMIN
 10
0
 20
0
  9
$LIMMAX
 10
420
 20
297
  9
$ORTHOMODE
 70
    0
  9
$REGENMODE
 70
    1
  9
$FILLMODE
 70
    0
  9
$QTEXTMODE
 70
    0
  9
$MIRRTEXT
 70
    0
  9
$LTSCALE
 40
1
  9
$ATTMODE
 70
    0
  9
$TEXTSIZE
 40
2.5
  9
$TRACEWID
 40
15.68
  9
$TEXTSTYLE
  7
STANDARD
  9
$CLAYER
  8
cotas
  9
$CELTYPE
  6
BYLAYER
  9
$CECOLOR
 62
  256
  9
$CELTSCALE
 40
1
  9
$DISPSILH
 70
    0
  9
$DIMSCALE
 40
2.5
  9
$DIMASZ
 40
2.5
  9
$DIMEXO
 40
0.625
  9
$DIMDLI
 40
3.75
  9
$DIMRND
 40
0
  9
$DIMDLE
 40
0
  9
$DIMEXE
 40
1.25
  9
$DIMTP
 40
0
  9
$DIMTM
 40
0
  9
$DIMTXT
 40
2.5
  9
$DIMCEN
 40
2.5
  9
$DIMTSZ
 40
0
  9
$DIMTOL
 70
    0
  9
$DIMLIM
 70
    0
  9
$DIMTIH
 70
    0
  9
$DIMTOH
 70
    0
  9
$DIMSE1
 70
    0
  9
$DIMSE2
 70
    0
  9
$DIMTAD
 70
    1
  9
$DIMZIN
 70
    8
  9
$DIMBLK
  1

  9
$DIMASO
 70
    1
  9
$DIMSHO
 70
    1
  9
$DIMPOST
  1

  9
$DIMAPOST
  1

  9
$DIMALT
 70
    0
  9
$DIMALTD
 70
    3
  9
$DIMALTF
 40
0.03937
  9
$DIMLFAC
 40
1
  9
$DIMTOFL
 70
    1
  9
$DIMTVP
 40
0
  9
$DIMTIX
 70
    0
  9
$DIMSOXD
 70
    0
  9
$DIMSAH
 70
    0
  9
$DIMBLK1
  1

  9
$DIMBLK2
  1

  9
$DIMSTYLE
  2
Standard
  9
$DIMCLRD
 70
    0
  9
$DIMCLRE
 70
    0
  9
$DIMCLRT
 70
    0
  9
$DIMTFAC
 40
1
  9
$DIMGAP
 40
0.625
  9
$DIMJUST
 70
    0
  9
$DIMSD1
 70
    0
  9
$DIMSD2
 70
    0
  9
$DIMTOLJ
 70
    0
  9
$DIMTZIN
 70
    8
  9
$DIMALTZ
 70
    0
  9
$DIMALTTZ
 70
    0
  9
$DIMUPT
 70
    0
  9
$DIMDEC
 70
    2
  9
$DIMTDEC
 70
    2
  9
$DIMALTU
 70
    2
  9
$DIMALTTD
 70
    3
  9
$DIMTXSTY
  7
STANDARD
  9
$DIMAUNIT
 70
    0
  9
$DIMADEC
 70
    0
  9
$DIMALTRND
 40
0
  9
$DIMAZIN
 70
    0
  9
$DIMDSEP
 70
   44
  9
$DIMATFIT
 70
    3
  9
$DIMFRAC
 70
    0
  9
$DIMLDRBLK
  1
STANDARD
  9
$DIMLUNIT
 70
    2
  9
$DIMLWD
 70
   -2
  9
$DIMLWE
 70
   -2
  9
$DIMTMOVE
 70
    0
  9
$DIMFXL
 40
1
  9
$DIMFXLON
 70
    0
  9
$DIMJOGANG
 40
0.7854
  9
$DIMTFILL
 70
    0
  9
$DIMTFILLCLR
 70
    0
  9
$DIMARCSYM
 70
    0
  9
$DIMLTYPE
  6

  9
$DIMLTEX1
  6

  9
$DIMLTEX2
  6

  9
$LUNITS
 70
    2
  9
$LUPREC
 70
    4
  9
$SKETCHINC
 40
1
  9
$FILLETRAD
 40
0
  9
$AUNITS
 70
    0
  9
$AUPREC
 70
    2
  9
$MENU
  1
.
  9
$ELEVATION
 40
0
  9
$PELEVATION
 40
0
  9
$THICKNESS
 40
0
  9
$LIMCHECK
 70
    0
  9
$CHAMFERA
 40
0
  9
$CHAMFERB
 40
0
  9
$CHAMFERC
 40
0
  9
$CHAMFERD
 40
0
  9
$SKPOLY
 70
    0
  9
$USRTIMER
 70
    1
  9
$ANGBASE
 50
0
  9
$ANGDIR
 70
    0
  9
$PDMODE
 70
   34
  9
$PDSIZE
 40
0
  9
$PLINEWID
 40
0
  9
$SPLFRAME
 70
    1
  9
$SPLINETYPE
 70
    2
  9
$SPLINESEGS
 70
    8
  9
$HANDSEED
  5
20000
  9
$SURFTAB1
 70
    6
  9
$SURFTAB2
 70
    6
  9
$SURFTYPE
 70
    6
  9
$SURFU
 70
    6
  9
$SURFV
 70
    6
  9
$UCSBASE
  2

  9
$UCSNAME
  2

  9
$UCSORG
 10
0
 20
0
 30
0
  9
$UCSXDIR
 10
1
 20
0
 30
0
  9
$UCSYDIR
 10
0
 20
1
 30
0
  9
$UCSORTHOREF
  2

  9
$UCSORTHOVIEW
 70
    0
  9
$UCSORGTOP
 10
0
 20
0
 30
0
  9
$UCSORGBOTTOM
 10
0
 20
0
 30
0
  9
$UCSORGLEFT
 10
0
 20
0
 30
0
  9
$UCSORGRIGHT
 10
0
 20
0
 30
0
  9
$UCSORGFRONT
 10
0
 20
0
 30
0
  9
$UCSORGBACK
 10
0
 20
0
 30
0
  9
$PUCSBASE
  2

  9
$PUCSNAME
  2

  9
$PUCSORG
 10
0
 20
0
 30
0
  9
$PUCSXDIR
 10
1
 20
0
 30
0
  9
$PUCSYDIR
 10
0
 20
1
 30
0
  9
$PUCSORTHOREF
  2

  9
$PUCSORTHOVIEW
 70
    0
  9
$PUCSORGTOP
 10
0
 20
0
 30
0
  9
$PUCSORGBOTTOM
 10
0
 20
0
 30
0
  9
$PUCSORGLEFT
 10
0
 20
0
 30
0
  9
$PUCSORGRIGHT
 10
0
 20
0
 30
0
  9
$PUCSORGFRONT
 10
0
 20
0
 30
0
  9
$PUCSORGBACK
 10
0
 20
0
 30
0
  9
$USERI1
 70
    0
  9
$USERI2
 70
    0
  9
$USERI3
 70
    0
  9
$USERI4
 70
    0
  9
$USERI5
 70
    0
  9
$USERR1
 40
0
  9
$USERR2
 40
0
  9
$USERR3
 40
0
  9
$USERR4
 40
0
  9
$USERR5
 40
0
  9
$WORLDVIEW
 70
    1
  9
$SHADEDGE
 70
    3
  9
$SHADEDIF
 70
   70
  9
$TILEMODE
 70
    1
  9
$MAXACTVP
 70
   64
  9
$PINSBASE
 10
0
 20
0
 30
0
  9
$PLIMCHECK
 70
    0
  9
$PEXTMIN
 10
0
 20
0
 30
0
  9
$PEXTMAX
 10
0
 20
0
 30
0
  9
$GRIDMODE
 70
    1
  9
$SNAPSTYLE
 70
    0
  9
$PLIMMIN
 10
0
 20
0
  9
$PLIMMAX
 10
210
 20
297
  9
$UNITMODE
 70
    0
  9
$VISRETAIN
 70
    1
  9
$PLINEGEN
 70
    0
  9
$PSLTSCALE
 70
    1
  9
$TREEDEPTH
 70
 3020
  9
$CMLSTYLE
  2
Standard
  9
$CMLJUST
 70
    0
  9
$CMLSCALE
 40
20
  9
$PROXYGRAPHICS
 70
    1
  9
$MEASUREMENT
 70
    1
  9
$CELWEIGHT
370
   -1
  9
$ENDCAPS
280
    0
  9
$JOINSTYLE
280
    0
  9
$LWDISPLAY
290
    0
  9
$INSUNITS
 70
    4
  9
$HYPERLINKBASE
  1

  9
$STYLESHEET
  1

  9
$XEDIT
290
    1
  9
$CEPSNTYPE
380
    0
  9
$PSTYLEMODE
290
    1
  9
$EXTNAMES
290
    1
  9
$PSVPSCALE
 40
1
  9
$OLESTARTUP
290
    0
  9
$SORTENTS
280
  127
  9
$INDEXCTL
280
    0
  9
$HIDETEXT
280
    1
  9
$XCLIPFRAME
290
    0
  9
$HALOGAP
280
    0
  9
$OBSCOLOR
 70
  257
  9
$OBSLTYPE
280
    0
  9
$INTERSECTIONDISPLAY
280
    0
  9
$INTERSECTIONCOLOR
 70
  257
  9
$DIMASSOC
280
    1
  9
$PROJECTNAME
  1

  9
$CAMERADISPLAY
290
    0
  9
$LENSLENGTH
 40
50
  9
$CAMERAHEIGHT
 40
0
  9
$STEPSPERSEC
 40
2
  9
$STEPSIZE
 40
50
  9
$3DDWFPREC
 40
2
  9
$PSOLWIDTH
 40
5
  9
$PSOLHEIGHT
 40
80
  9
$LOFTANG1
 40
1.570796326794897
  9
$LOFTANG2
 40
1.570796326794897
  9
$LOFTMAG1
 40
0
  9
$LOFTMAG2
 40
0
  9
$LOFTPARAM
 70
    7
  9
$LOFTNORMALS
280
    1
  9
$LATITUDE
 40
1
  9
$LONGITUDE
 40
1
  9
$NORTHDIRECTION
 40
0
  9
$TIMEZONE
 70
-8000
  9
$LIGHTGLYPHDISPLAY
280
    1
  9
$TILEMODELIGHTSYNCH
280
    1
  9
$SOLIDHIST
280
    1
  9
$SHOWHIST
280
    1
  9
$DWFFRAME
280
    2
  9
$DGNFRAME
280
    0
  9
$REALWORLDSCALE
290
    1
  9
$INTERFERECOLOR
 62
    1
  9
$CSHADOW
280
    0
  9
$SHADOWPLANELOCATION
 40
0
  0
ENDSEC
  0
SECTION
  2
CLASSES
  0
ENDSEC
  0
SECTION
  2
TABLES
  0
TABLE
  2
VPORT
  5
8
330
0
100
AcDbSymbolTable
 70
    1
  0
VPORT
  5
31
330
2
100
AcDbSymbolTableRecord
100
AcDbViewportTableRecord
  2
*ACTIVE
 70
    0
 10
0
 20
0
 11
1
 21
1
 12
457.4085637580768
 22
270.6013688115009
 13
0
 23
0
 14
10
 24
10
 15
10
 25
10
 16
0
 26
0
 36
1
 17
0
 27
0
 37
0
 40
651.9032975913431
 41
1.870283018867924
 42
50
 43
0
 44
0
 50
0
 51
0
 71
    0
 72
  100
 73
    1
 74
    3
 75
    0
 76
    1
 77
    0
 78
    0
281
    0
 65
    1
110
0
120
0
130
0
111
1
121
0
131
0
112
0
122
1
132
0
 79
    0
146
0
348
10020
 60
    7
 61
    5
292
1
282
    1
141
0
142
0
 63
  250
421
3358443
  0
ENDTAB
  0
TABLE
  2
LTYPE
  5
5
330
0
100
AcDbSymbolTable
 70
    4
  0
LTYPE
  5
14
330
5
100
AcDbSymbolTableRecord
100
AcDbLinetypeTableRecord
  2
ByBlock
 70
    0
  3

 72
   65
 73
    0
 40
0
  0
LTYPE
  5
15
330
5
100
AcDbSymbolTableRecord
100
AcDbLinetypeTableRecord
  2
ByLayer
 70
    0
  3

 72
   65
 73
    0
 40
0
  0
LTYPE
  5
16
330
5
100
AcDbSymbolTableRecord
100
AcDbLinetypeTableRecord
  2
Continuous
 70
    0
  3
Solid line
 72
   65
 73
    0
 40
0
  0
LTYPE
  5
32
330
5
100
AcDbSymbolTableRecord
100
AcDbLinetypeTableRecord
  2
DOT
 70
    0
  3
Dot . . . . . . . . . . . . . . . . . . . . . .
 72
   65
 73
    2
 40
6.35
 49
0
 74
    0
 49
-6.35
 74
    0
  0
LTYPE
  5
33
330
5
100
AcDbSymbolTableRecord
100
AcDbLinetypeTableRecord
  2
DOTTINY
 70
    0
  3
Dot (.15x) .....................................
 72
   65
 73
    2
 40
0.9525
 49
0
 74
    0
 49
-0.9525
 74
    0
  0
LTYPE
  5
34
330
5
100
AcDbSymbolTableRecord
100
AcDbLinetypeTableRecord
  2
DOT2
 70
    0
  3
Dot (.5x) .....................................
 72
   65
 73
    2
 40
3.175
 49
0
 74
    0
 49
-3.175
 74
    0
  0
LTYPE
  5
35
330
5
100
AcDbSymbolTableRecord
100
AcDbLinetypeTableRecord
  2
DOTX2
 70
    0
  3
Dot (2x) .  .  .  .  .  .  .  .  .  .  .  .  .
 72
   65
 73
    2
 40
12.7
 49
0
 74
    0
 49
-12.7
 74
    0
  0
LTYPE
  5
36
330
5
100
AcDbSymbolTableRecord
100
AcDbLinetypeTableRecord
  2
DASHED
 70
    0
  3
Dashed _ _ _ _ _ _ _ _ _ _ _ _ _ _ _ _ _
 72
   65
 73
    2
 40
19.05
 49
12.7
 74
    0
 49
-6.35
 74
    0
  0
LTYPE
  5
37
330
5
100
AcDbSymbolTableRecord
100
AcDbLinetypeTableRecord
  2
DASHEDTINY
 70
    0
  3
Dashed (.15x) _ _ _ _ _ _ _ _ _ _ _ _ _ _ _ _ _
 72
   65
 73
    2
 40
2.8575
 49
1.905
 74
    0
 49
-0.9525
 74
    0
  0
LTYPE
  5
38
330
5
100
AcDbSymbolTableRecord
100
AcDbLinetypeTableRecord
  2
DASHED2
 70
    0
  3
Dashed (.5x) _ _ _ _ _ _ _ _ _ _ _ _ _ _ _ _ _
 72
   65
 73
    2
 40
9.524999999999999
 49
6.35
 74
    0
 49
-3.175
 74
    0
  0
LTYPE
  5
39
330
5
100
AcDbSymbolTableRecord
100
AcDbLinetypeTableRecord
  2
DASHEDX2
 70
    0
  3
Dashed (2x) ____  ____  ____  ____  ____  ___
 72
   65
 73
    2
 40
38.09999999999999
 49
25.4
 74
    0
 49
-12.7
 74
    0
  0
LTYPE
  5
3A
330
5
100
AcDbSymbolTableRecord
100
AcDbLinetypeTableRecord
  2
DASHDOT
 70
    0
  3
Dash dot __ . __ . __ . __ . __ . __ . __ . __
 72
   65
 73
    4
 40
25.4
 49
12.7
 74
    0
 49
-6.35
 74
    0
 49
0
 74
    0
 49
-6.35
 74
    0
  0
LTYPE
  5
3B
330
5
100
AcDbSymbolTableRecord
100
AcDbLinetypeTableRecord
  2
DASHDOTTINY
 70
    0
  3
Dash dot (.15x) _._._._._._._._._._._._._._._.
 72
   65
 73
    4
 40
3.81
 49
1.905
 74
    0
 49
-0.9525
 74
    0
 49
0
 74
    0
 49
-0.9525
 74
    0
  0
LTYPE
  5
3C
330
5
100
AcDbSymbolTableRecord
100
AcDbLinetypeTableRecord
  2
DASHDOT2
 70
    0
  3
Dash dot (.5x) _._._._._._._._._._._._._._._.
 72
   65
 73
    4
 40
12.7
 49
6.35
 74
    0
 49
-3.175
 74
    0
 49
0
 74
    0
 49
-3.175
 74
    0
  0
LTYPE
  5
3D
330
5
100
AcDbSymbolTableRecord
100
AcDbLinetypeTableRecord
  2
DASHDOTX2
 70
    0
  3
Dash dot (2x) ____  .  ____  .  ____  .  ___
 72
   65
 73
    4
 40
50.8
 49
25.4
 74
    0
 49
-12.7
 74
    0
 49
0
 74
    0
 49
-12.7
 74
    0
  0
LTYPE
  5
3E
330
5
100
AcDbSymbolTableRecord
100
AcDbLinetypeTableRecord
  2
DIVIDE
 70
    0
  3
Divide ____ . . ____ . . ____ . . ____ . . ____
 72
   65
 73
    6
 40
31.75
 49
12.7
 74
    0
 49
-6.35
 74
    0
 49
0
 74
    0
 49
-6.35
 74
    0
 49
0
 74
    0
 49
-6.35
 74
    0
  0
LTYPE
  5
3F
330
5
100
AcDbSymbolTableRecord
100
AcDbLinetypeTableRecord
  2
DIVIDETINY
 70
    0
  3
Divide (.15x) __..__..__..__..__..__..__..__.._
 72
   65
 73
    6
 40
4.7625
 49
1.905
 74
    0
 49
-0.9525
 74
    0
 49
0
 74
    0
 49
-0.9525
 74
    0
 49
0
 74
    0
 49
-0.9525
 74
    0
  0
LTYPE
  5
40
330
5
100
AcDbSymbolTableRecord
100
AcDbLinetypeTableRecord
  2
DIVIDE2
 70
    0
  3
Divide (.5x) __..__..__..__..__..__..__..__.._
 72
   65
 73
    6
 40
15.875
 49
6.35
 74
    0
 49
-3.175
 74
    0
 49
0
 74
    0
 49
-3.175
 74
    0
 49
0
 74
    0
 49
-3.175
 74
    0
  0
LTYPE
  5
41
330
5
100
AcDbSymbolTableRecord
100
AcDbLinetypeTableRecord
  2
DIVIDEX2
 70
    0
  3
Divide (2x) ________  .  .  ________  .  .  _
 72
   65
 73
    6
 40
63.5
 49
25.4
 74
    0
 49
-12.7
 74
    0
 49
0
 74
    0
 49
-12.7
 74
    0
 49
0
 74
    0
 49
-12.7
 74
    0
  0
LTYPE
  5
42
330
5
100
AcDbSymbolTableRecord
100
AcDbLinetypeTableRecord
  2
BORDER
 70
    0
  3
Border __ __ . __ __ . __ __ . __ __ . __ __ .
 72
   65
 73
    6
 40
44.45
 49
12.7
 74
    0
 49
-6.35
 74
    0
 49
12.7
 74
    0
 49
-6.35
 74
    0
 49
0
 74
    0
 49
-6.35
 74
    0
  0
LTYPE
  5
43
330
5
100
AcDbSymbolTableRecord
100
AcDbLinetypeTableRecord
  2
BORDERTINY
 70
    0
  3
Border (.15x) __.__.__.__.__.__.__.__.__.__.__.
 72
   65
 73
    6
 40
6.6675
 49
1.905
 74
    0
 49
-0.9525
 74
    0
 49
1.905
 74
    0
 49
-0.9525
 74
    0
 49
0
 74
    0
 49
-0.9525
 74
    0
  0
LTYPE
  5
44
330
5
100
AcDbSymbolTableRecord
100
AcDbLinetypeTableRecord
  2
BORDER2
 70
    0
  3
Border (.5x) __.__.__.__.__.__.__.__.__.__.__.
 72
   65
 73
    6
 40
22.225
 49
6.35
 74
    0
 49
-3.175
 74
    0
 49
6.35
 74
    0
 49
-3.175
 74
    0
 49
0
 74
    0
 49
-3.175
 74
    0
  0
LTYPE
  5
45
330
5
100
AcDbSymbolTableRecord
100
AcDbLinetypeTableRecord
  2
BORDERX2
 70
    0
  3
Border (2x) ____  ____  .  ____  ____  .  ___
 72
   65
 73
    6
 40
88.89999999999999
 49
25.4
 74
    0
 49
-12.7
 74
    0
 49
25.4
 74
    0
 49
-12.7
 74
    0
 49
0
 74
    0
 49
-12.7
 74
    0
  0
LTYPE
  5
46
330
5
100
AcDbSymbolTableRecord
100
AcDbLinetypeTableRecord
  2
CENTER
 70
    0
  3
Center ____ _ ____ _ ____ _ ____ _ ____ _ ____
 72
   65
 73
    4
 40
50.8
 49
31.75
 74
    0
 49
-6.35
 74
    0
 49
6.35
 74
    0
 49
-6.35
 74
    0
  0
LTYPE
  5
47
330
5
100
AcDbSymbolTableRecord
100
AcDbLinetypeTableRecord
  2
CENTERTINY
 70
    0
  3
Center (.15x) ___ _ ___ _ ___ _ ___ _ ___ _ ___
 72
   65
 73
    4
 40
7.62
 49
4.7625
 74
    0
 49
-0.9525
 74
    0
 49
0.9525
 74
    0
 49
-0.9525
 74
    0
  0
LTYPE
  5
48
330
5
100
AcDbSymbolTableRecord
100
AcDbLinetypeTableRecord
  2
CENTER2
 70
    0
  3
Center (.5x) ___ _ ___ _ ___ _ ___ _ ___ _ ___
 72
   65
 73
    4
 40
28.575
 49
19.05
 74
    0
 49
-3.175
 74
    0
 49
3.175
 74
    0
 49
-3.175
 74
    0
  0
LTYPE
  5
49
330
5
100
AcDbSymbolTableRecord
100
AcDbLinetypeTableRecord
  2
CENTERX2
 70
    0
  3
Center (2x) ________  __  ________  __  _____
 72
   65
 73
    4
 40
101.6
 49
63.5
 74
    0
 49
-12.7
 74
    0
 49
12.7
 74
    0
 49
-12.7
 74
    0
  0
ENDTAB
  0
TABLE
  2
LAYER
  5
2
330
0
100
AcDbSymbolTable
 70
    1
  0
LAYER
  5
10
330
2
100
AcDbSymbolTableRecord
100
AcDbLayerTableRecord
  2
0
 70
    0
 62
    7
  6
CONTINUOUS
370
   -3
390
F
  0
LAYER
  5
4A
330
2
100
AcDbSymbolTableRecord
100
AcDbLayerTableRecord
  2
cotas
 70
    0
 62
    7
  6
CONTINUOUS
370
    0
390
F
  0
ENDTAB
  0
TABLE
  2
STYLE
  5
3
330
0
100
AcDbSymbolTable
 70
    3
  0
STYLE
  5
4B
330
2
100
AcDbSymbolTableRecord
100
AcDbTextStyleTableRecord
  2
Standard
 70
    0
 40
0
 41
1
 50
0
 71
    0
 42
1
  3
txt
  4

  0
ENDTAB
  0
TABLE
  2
VIEW
  5
6
330
0
100
AcDbSymbolTable
 70
    0
  0
ENDTAB
  0
TABLE
  2
UCS
  5
7
330
0
100
AcDbSymbolTable
 70
    0
  0
ENDTAB
  0
TABLE
  2
APPID
  5
9
330
0
100
AcDbSymbolTable
 70
    1
  0
APPID
  5
12
330
9
100
AcDbSymbolTableRecord
100
AcDbRegAppTableRecord
  2
ACAD
 70
    0
  0
APPID
  5
4C
330
9
100
AcDbSymbolTableRecord
100
AcDbRegAppTableRecord
  2
LibreCad
 70
    0
  0
ENDTAB
  0
TABLE
  2
DIMSTYLE
  5
A
330
0
100
AcDbSymbolTable
 70
    1
100
AcDbDimStyleTable
 71
    1
  0
DIMSTYLE
105
4D
330
A
100
AcDbSymbolTableRecord
100
AcDbDimStyleTableRecord
  2
Standard
 70
    0
 40
2.5
 41
2.5
 42
0.625
 43
0.38
 44
1.25
 45
0
 46
0
 47
0
 48
0
 49
1
140
2.5
141
0.09
142
0
143
25.4
144
1
145
0
146
1
147
0.625
148
0
 71
    0
 72
    0
 73
    0
 74
    1
 75
    0
 76
    0
 77
    0
 78
    8
 79
    0
170
    0
171
    2
172
    0
173
    0
174
    0
175
    0
176
    0
177
    0
178
    0
179
    0
271
    2
272
    4
273
    2
274
    2
275
    0
276
    0
277
    2
278
   44
279
    0
280
    0
281
    0
282
    0
283
    1
284
    0
285
    0
286
    0
288
    0
289
    3
340
STANDARD
341

371
   -2
372
   -2
  0
ENDTAB
  0
TABLE
  2
BLOCK_RECORD
  5
1
330
0
100
AcDbSymbolTable
 70
    2
  0
BLOCK_RECORD
  5
1F
330
1
100
AcDbSymbolTableRecord
100
AcDbBlockTableRecord
  2
*Model_Space
 70
    0
280
    1
281
    0
  0
BLOCK_RECORD
  5
1E
330
1
100
AcDbSymbolTableRecord
100
AcDbBlockTableRecord
  2
*Paper_Space
 70
    0
280
    1
281
    0
  0
BLOCK_RECORD
  5
4E
330
1
100
AcDbSymbolTableRecord
100
AcDbBlockTableRecord
  2
Bottom plate
 70
    0
280
    1
281
    0
  0
BLOCK_RECORD
  5
51
330
1
100
AcDbSymbolTableRecord
100
AcDbBlockTableRecord
  2
Window
 70
    0
280
    1
281
    0
  0
BLOCK_RECORD
  5
54
330
1
100
AcDbSymbolTableRecord
100
AcDbBlockTableRecord
  2
Logo guard
 70
    0
280
    1
281
    0
  0
ENDTAB
  0
ENDSEC
  0
SECTION
  2
BLOCKS
  0
BLOCK
  5
20
330
1F
100
AcDbEntity
  8
0
100
AcDbBlockBegin
  2
*Model_Space
 70
    0
 10
0
 20
0
 30
0
  3
*Model_Space
  1

  0
ENDBLK
  5
21
330
1F
100
AcDbEntity
  8
0
100
AcDbBlockEnd
  0
BLOCK
  5
1C
330
1B
100
AcDbEntity
  8
0
100
AcDbBlockBegin
  2
*Paper_Space
 70
    0
 10
0
 20
0
 30
0
  3
*Paper_Space
  1

  0
ENDBLK
  5
1D
330
1F
100
AcDbEntity
  8
0
100
AcDbBlockEnd
  0
BLOCK
  5
4F
330
4E
100
AcDbEntity
  8
0
100
AcDbBlockBegin
  2
Bottom plate
 70
    0
 10
0
 20
0
  3
Bottom plate
  1

  0
CIRCLE
  5
57
100
AcDbEntity
  8
0
  6
ByLayer
 62
    7
370
   -1
100
AcDbCircle
 10
14.00039611129598
 20
156.7514738124797
 40
1.1
  0
CIRCLE
  5
58
100
AcDbEntity
  8
0
  6
ByLayer
 62
    7
370
   -1
100
AcDbCircle
 10
107.587196111296
 20
156.7514738124797
 40
1.09999999999999
  0
CIRCLE
  5
59
100
AcDbEntity
  8
0
  6
ByLayer
 62
    7
370
   -1
100
AcDbCircle
 10
260.076096111296
 20
156.7514738124797
 40
1.09999999999999
  0
CIRCLE
  5
5A
100
AcDbEntity
  8
0
  6
ByLayer
 62
    7
370
   -1
100
AcDbCircle
 10
107.587196111296
 20
138.0014738124797
 40
1.09999999999999
  0
CIRCLE
  5
5B
100
AcDbEntity
  8
0
  6
ByLayer
 62
    7
370
   -1
100
AcDbCircle
 10
14.00039611129598
 20
138.0014738124797
 40
1.1
  0
CIRCLE
  5
5C
100
AcDbEntity
  8
0
  6
ByLayer
 62
    7
370
   -1
100
AcDbCircle
 10
260.076096111296
 20
138.0014738124797
 40
1.09999999999999
  0
CIRCLE
  5
5D
100
AcDbEntity
  8
0
  6
ByLayer
 62
    7
370
   -1
100
AcDbCircle
 10
352.661455535832
 20
156.7514738124797
 40
1.09999999999999
  0
CIRCLE
  5
5E
100
AcDbEntity
  8
0
  6
ByLayer
 62
    7
370
   -1
100
AcDbCircle
 10
352.661455535832
 20
138.0014738124797
 40
1.09999999999999
  0
ARC
  5
5F
100
AcDbEntity
  8
0
  6
ByLayer
 62
  256
370
   -1
100
AcDbCircle
 10
12.00033773431964
 20
158.7514738067104
 40
2
100
AcDbArc
 50
89.99999983471903
 51
179.998298949672
  0
LINE
  5
60
100
AcDbEntity
  8
0
  6
ByLayer
 62
    7
370
   -1
100
AcDbLine
 10
10.00033773520108
 20
158.7515331845684
 11
9.99966226829852
 21
136.0000589478039
  0
LINE
  5
61
100
AcDbEntity
  8
0
  6
ByLayer
 62
    7
370
   -1
100
AcDbLine
 10
356.662283125969
 20
135.9999166155176
 11
356.6615224053619
 21
158.7515396900148
  0
LINE
  5
62
100
AcDbEntity
  8
0
  6
ByLayer
 62
    7
370
   -1
100
AcDbLine
 10
354.6615224122492
 20
160.7514728182488
 11
12.00033774008904
 21
160.7514738067104
  0
ARC
  5
63
100
AcDbEntity
  8
0
  6
ByLayer
 62
  256
370
   -1
100
AcDbCircle
 10
354.6615224064799
 20
158.7514728182488
 40
2
100
AcDbArc
 50
0.001915734978774082
 51
89.99999983472108
  0
CIRCLE
  5
64
100
AcDbEntity
  8
0
  6
ByLayer
 62
  256
370
   -1
100
AcDbCircle
 10
38.04977500000001
 20
116.8095
 40
1
  0
CIRCLE
  5
65
100
AcDbEntity
  8
0
  6
ByLayer
 62
  256
370
   -1
100
AcDbCircle
 10
352.1581225179121
 20
31.03360000000002
 40
1.100000000000023
  0
CIRCLE
  5
66
100
AcDbEntity
  8
0
  6
ByLayer
 62
  256
370
   -1
100
AcDbCircle
 10
305.0670274820879
 20
64.18430000000001
 40
1.100000000000023
  0
CIRCLE
  5
67
100
AcDbEntity
  8
0
  6
ByLayer
 62
  256
370
   -1
100
AcDbCircle
 10
352.1625750000001
 20
64.18430000000001
 40
1.100000000000023
  0
CIRCLE
  5
68
100
AcDbEntity
  8
0
  6
ByLayer
 62
  256
370
   -1
100
AcDbCircle
 10
39.29062500000001
 20
57.13395000000001
 40
1.100000000000001
  0
CIRCLE
  5
69
100
AcDbEntity
  8
0
  6
ByLayer
 62
  256
370
   -1
100
AcDbCircle
 10
347.6625750000001
 20
109.52155
 40
1.100000000000023
  0
CIRCLE
  5
6A
100
AcDbEntity
  8
0
  6
ByLayer
 62
  256
370
   -1
100
AcDbCircle
 10
296.465575
 20
19.03387000000002
 40
1.100000000000023
  0
CIRCLE
  5
6B
100
AcDbEntity
  8
0
  6
ByLayer
 62
  256
370
   -1
100
AcDbCircle
 10
34.52742500000002
 20
19.03387000000002
 40
1.100000000000001
  0
CIRCLE
  5
6C
100
AcDbEntity
  8
0
  6
ByLayer
 62
  256
370
   -1
100
AcDbCircle
 10
305.0625749999999
 20
31.03696592085686
 40
1.100000000000023
  0
LINE
  5
6D
100
AcDbEntity
  8
0
  6
ByLayer
 62
  256
370
   -1
100
AcDbLine
 10
356.662283125969
 20
135.9999166155176
 11
356.662283125969
 21
12.03364000000001
  0
ARC
  5
6E
100
AcDbEntity
  8
0
  6
ByLayer
 62
  256
370
   -1
100
AcDbCircle
 10
354.662283125969
 20
12.03364
 40
2
100
AcDbArc
 50
270
 51
1.526666247102488e-013
  0
LINE
  5
6F
100
AcDbEntity
  8
0
  6
ByLayer
 62
  256
370
   -1
100
AcDbLine
 10
9.99966226829852
 20
136.0000589478039
 11
9.99966226829852
 21
12.03363999999999
  0
LINE
  5
70
100
AcDbEntity
  8
0
  6
ByLayer
 62
  256
370
   -1
100
AcDbLine
 10
354.662283125969
 20
10.03364
 11
11.99966226829849
 21
10.03364
  0
ARC
  5
71
100
AcDbEntity
  8
0
  6
ByLayer
 62
  256
370
   -1
100
AcDbCircle
 10
11.99966226829852
 20
12.03364
 40
2
100
AcDbArc
 50
180.0000000000003
 51
269.9999999999993
  0
DIMENSION
  5
72
100
AcDbEntity
  8
cotas
  6
ByLayer
 62
  256
370
   -1
100
AcDbDimension
 10
356.662283125969
 20
-20
 30
0
 11
183.3309726971337
 21
-15.3125
 31
0
 70
   32
 71
    5
  3
Standard
 53
0
210
0
220
0
230
1
100
AcDbAlignedDimension
 13
9.99966226829852
 23
13.03363999999999
 33
0
 14
356.662283125969
 24
13.03364000000001
 34
0
100
AcDbRotatedDimension
  0
DIMENSION
  5
73
100
AcDbEntity
  8
cotas
  6
ByLayer
 62
  256
370
   -1
100
AcDbDimension
 10
380
 20
10.03364
 30
0
 11
375.3125
 21
85.39255641056673
 31
0
 70
   32
 71
    5
  3
Standard
 53
0
210
0
220
0
230
1
100
AcDbAlignedDimension
 13
353.6615224122492
 23
160.7514728211335
 33
0
 14
353.662283125969
 24
10.03364
 34
0
 50
90
100
AcDbRotatedDimension
  0
DIMENSION
  5
74
100
AcDbEntity
  8
cotas
  6
ByLayer
 62
  256
370
   -1
100
AcDbDimension
 10
10
 20
165
 30
0
 11
12.00019805564799
 21
169.6875
 31
0
 70
   32
 71
    5
  3
Standard
 53
0
210
0
220
0
230
1
100
AcDbAlignedDimension
 13
14.00039611129598
 23
156.7514738124797
 33
0
 14
10
 24
157
 34
0
100
AcDbRotatedDimension
  0
DIMENSION
  5
75
100
AcDbEntity
  8
cotas
  6
ByLayer
 62
  256
370
   -1
100
AcDbDimension
 10
14.00039611129598
 20
165
 30
0
 11
60.79379611129598
 21
169.6875
 31
0
 70
   32
 71
    5
  3
Standard
 53
0
210
0
220
0
230
1
100
AcDbAlignedDimension
 13
107.587196111296
 23
156.7514738124797
 33
0
 14
14.00039611129598
 24
156.7514738124797
 34
0
100
AcDbRotatedDimension
  0
DIMENSION
  5
76
100
AcDbEntity
  8
cotas
  6
ByLayer
 62
  256
370
   -1
100
AcDbDimension
 10
260.076096111296
 20
165
 30
0
 11
183.831646111296
 21
169.6875
 31
0
 70
   32
 71
    5
  3
Standard
 53
0
210
0
220
0
230
1
100
AcDbAlignedDimension
 13
107.587196111296
 23
156.7514738124797
 33
0
 14
260.076096111296
 24
156.7514738124797
 34
0
100
AcDbRotatedDimension
  0
DIMENSION
  5
77
100
AcDbEntity
  8
cotas
  6
ByLayer
 62
  256
370
   -1
100
AcDbDimension
 10
352.661455535832
 20
165
 30
0
 11
306.368775823564
 21
169.6875
 31
0
 70
   32
 71
    5
  3
Standard
 53
0
210
0
220
0
230
1
100
AcDbAlignedDimension
 13
260.076096111296
 23
156.7514738124797
 33
0
 14
352.661455535832
 24
156.7514738124797
 34
0
100
AcDbRotatedDimension
  0
DIMENSION
  5
78
100
AcDbEntity
  8
cotas
  6
ByLayer
 62
  256
370
   -1
100
AcDbDimension
 10
3
 20
160.7514738009409
 30
0
 11
-1.6875
 21
158.7514738067103
 31
0
 70
   32
 71
    5
  3
Standard
 53
0
210
0
220
0
230
1
100
AcDbAlignedDimension
 13
14.00039611129598
 23
156.7514738124797
 33
0
 14
14.00039611129598
 24
160.7514738009409
 34
0
 50
90
100
AcDbRotatedDimension
  0
DIMENSION
  5
79
100
AcDbEntity
  8
cotas
  6
ByLayer
 62
  256
370
   -1
100
AcDbDimension
 10
2.999999999999998
 20
156.7514738124797
 30
0
 11
-1.687500000000003
 21
147.3757369062399
 31
0
 70
   32
 71
    5
  3
Standard
 53
0
210
0
220
0
230
1
100
AcDbAlignedDimension
 13
14
 23
138
 33
0
 14
14.00039611129598
 24
156.7514738124797
 34
0
 50
90
100
AcDbRotatedDimension
  0
DIMENSION
  5
7A
100
AcDbEntity
  8
cotas
  6
ByLayer
 62
  256
370
   -1
100
AcDbDimension
 10
2.999999999999998
 20
138.0014738124797
 30
0
 11
-1.687500000000003
 21
127.4054869062398
 31
0
 70
   32
 71
    5
  3
Standard
 53
0
210
0
220
0
230
1
100
AcDbAlignedDimension
 13
38.04977500000001
 23
116.8095
 33
0
 14
14.00039611129598
 24
138.0014738124797
 34
0
 50
90
100
AcDbRotatedDimension
  0
DIMENSION
  5
7B
100
AcDbEntity
  8
cotas
  6
ByLayer
 62
  256
370
   -1
100
AcDbDimension
 10
330
 20
138.0014738124797
 30
0
 11
325.3125
 21
123.7615119062399
 31
0
 70
   32
 71
    5
  3
Standard
 53
0
210
0
220
0
230
1
100
AcDbAlignedDimension
 13
347.6625750000001
 23
109.52155
 33
0
 14
352.661455535832
 24
138.0014738124797
 34
0
 50
90
100
AcDbRotatedDimension
  0
DIMENSION
  5
7C
100
AcDbEntity
  8
cotas
  6
ByLayer
 62
  256
370
   -1
100
AcDbDimension
 10
290
 20
31.03696592085686
 30
0
 11
285.3125
 21
47.61063296042843
 31
0
 70
   32
 71
    5
  3
Standard
 53
0
210
0
220
0
230
1
100
AcDbAlignedDimension
 13
305.0670274820879
 23
64.18430000000001
 33
0
 14
305.0625749999999
 24
31.03696592085686
 34
0
 50
90
100
AcDbRotatedDimension
  0
DIMENSION
  5
7D
100
AcDbEntity
  8
cotas
  6
ByLayer
 62
  256
370
   -1
100
AcDbDimension
 10
267.0289001800212
 20
10.03364000000001
 30
0
 11
262.3414001800212
 21
20.53530296042843
 31
0
 70
   32
 71
    5
  3
Standard
 53
0
210
0
220
0
230
1
100
AcDbAlignedDimension
 13
305.0625749999999
 23
31.03696592085686
 33
0
 14
304.9572089317057
 24
10.03364
 34
0
 50
90
100
AcDbRotatedDimension
  0
DIMENSION
  5
7E
100
AcDbEntity
  8
cotas
  6
ByLayer
 62
  256
370
   -1
100
AcDbDimension
 10
-10
 20
10.03364000000001
 30
0
 11
-14.6875
 21
14.53375500000001
 31
0
 70
   32
 71
    5
  3
Standard
 53
0
210
0
220
0
230
1
100
AcDbAlignedDimension
 13
34.52742500000002
 23
19.03387000000002
 33
0
 14
34.52066842568257
 24
10.03364
 34
0
 50
90
100
AcDbRotatedDimension
  0
DIMENSION
  5
7F
100
AcDbEntity
  8
cotas
  6
ByLayer
 62
  256
370
   -1
100
AcDbDimension
 10
-10
 20
19.03387000000003
 30
0
 11
-14.6875
 21
38.08391000000002
 31
0
 70
   32
 71
    5
  3
Standard
 53
0
210
0
220
0
230
1
100
AcDbAlignedDimension
 13
39.29062500000001
 23
57.13395000000001
 33
0
 14
34.52742500000002
 24
19.03387000000002
 34
0
 50
90
100
AcDbRotatedDimension
  0
DIMENSION
  5
80
100
AcDbEntity
  8
cotas
  6
ByLayer
 62
  256
370
   -1
100
AcDbDimension
 10
320.2689361799269
 20
9.999999999999998
 30
0
 11
315.5814361799269
 21
14.51693500000001
 31
0
 70
   32
 71
    5
  3
Standard
 53
0
210
0
220
0
230
1
100
AcDbAlignedDimension
 13
296.465575
 23
19.03387000000002
 33
0
 14
300
 24
10
 34
0
 50
90
100
AcDbRotatedDimension
  0
DIMENSION
  5
81
100
AcDbEntity
  8
cotas
  6
ByLayer
 62
  256
370
   -1
100
AcDbDimension
 10
9.999662268298518
 20
100
 30
0
 11
24.02471863414927
 21
104.6875
 31
0
 70
   32
 71
    5
  3
Standard
 53
0
210
0
220
0
230
1
100
AcDbAlignedDimension
 13
38.04977500000001
 23
116.8095
 33
0
 14
9.99966226829852
 24
116.8095
 34
0
100
AcDbRotatedDimension
  0
DIMENSION
  5
82
100
AcDbEntity
  8
cotas
  6
ByLayer
 62
  256
370
   -1
100
AcDbDimension
 10
9.99966226829852
 20
31.66226912928853
 30
0
 11
22.26354363414927
 21
36.34976912928853
 31
0
 70
   32
 71
    5
  3
Standard
 53
0
210
0
220
0
230
1
100
AcDbAlignedDimension
 13
34.52742500000002
 23
19.03387000000002
 33
0
 14
9.99966226829852
 24
20.44854881266551
 34
0
100
AcDbRotatedDimension
  0
DIMENSION
  5
83
100
AcDbEntity
  8
cotas
  6
ByLayer
 62
  256
370
   -1
100
AcDbDimension
 10
356.662283125969
 20
-10
 30
0
 11
326.5639290629845
 21
-5.3125
 31
0
 70
   32
 71
    5
  3
Standard
 53
0
210
0
220
0
230
1
100
AcDbAlignedDimension
 13
296.465575
 23
19.03387000000002
 33
0
 14
356.662283125969
 24
19.12928759894515
 34
0
100
AcDbRotatedDimension
  0
DIMENSION
  5
84
100
AcDbEntity
  8
cotas
  6
ByLayer
 62
  256
370
   -1
100
AcDbDimension
 10
352.1625750000001
 20
70
 30
0
 11
328.614801241044
 21
74.6875
 31
0
 70
   32
 71
    5
  3
Standard
 53
0
210
0
220
0
230
1
100
AcDbAlignedDimension
 13
305.0670274820879
 23
64.18430000000001
 33
0
 14
352.1625750000001
 24
64.18430000000001
 34
0
100
AcDbRotatedDimension
  0
DIMENSION
  5
85
100
AcDbEntity
  8
cotas
  6
ByLayer
 62
  256
370
   -1
100
AcDbDimension
 10
356.662283125969
 20
117.8668967036656
 30
0
 11
352.1624290629845
 21
122.5543967036656
 31
0
 70
   32
 71
    5
  3
Standard
 53
0
210
0
220
0
230
1
100
AcDbAlignedDimension
 13
347.6625750000001
 23
109.52155
 33
0
 14
356.662283125969
 24
108.8525452963145
 34
0
100
AcDbRotatedDimension
  0
DIMENSION
  5
86
100
AcDbEntity
  8
cotas
  6
ByLayer
 62
  256
370
   -1
100
AcDbDimension
 10
356.662283125969
 20
80
 30
0
 11
354.4124290629845
 21
84.6875
 31
0
 70
   32
 71
    5
  3
Standard
 53
0
210
0
220
0
230
1
100
AcDbAlignedDimension
 13
352.1625750000001
 23
64.18430000000001
 33
0
 14
356.662283125969
 24
12.03364000000001
 34
0
100
AcDbRotatedDimension
  0
DIMENSION
  5
87
100
AcDbEntity
  8
cotas
  6
ByLayer
 62
  256
370
   -1
100
AcDbDimension
 10
9.99966226829852
 20
70
 30
0
 11
24.64514363414927
 21
74.6875
 31
0
 70
   32
 71
    5
  3
Standard
 53
0
210
0
220
0
230
1
100
AcDbAlignedDimension
 13
39.29062500000001
 23
57.13395000000001
 33
0
 14
9.99966226829852
 24
57.13395000000001
 34
0
100
AcDbRotatedDimension
  0
DIMENSION
  5
88
100
AcDbEntity
  8
cotas
  6
ByLayer
 62
  256
370
   -1
100
AcDbDimension
 10
8.572244476756641e-016
 20
14
 30
0
 11
6
 21
18.6875
 31
0
 70
   32
 71
    5
  3
Standard
 53
0
210
0
220
0
230
1
100
AcDbAlignedDimension
 13
12
 23
12
 33
0
 14
0
 24
0
 34
0
100
AcDbRotatedDimension
  0
DIMENSION
  5
89
100
AcDbEntity
  8
cotas
  6
ByLayer
 62
  256
370
   -1
100
AcDbDimension
 10
14
 20
-1.714448895351328e-015
 30
0
 11
9.3125
 21
6.000000000000001
 31
0
 70
   32
 71
    5
  3
Standard
 53
0
210
0
220
0
230
1
100
AcDbAlignedDimension
 13
12
 23
12
 33
0
 14
0
 24
0
 34
0
 50
90
100
AcDbRotatedDimension
  0
DIMENSION
  5
8A
100
AcDbEntity
  8
cotas
  6
ByLayer
 62
  256
370
   -1
100
AcDbDimension
 10
34.52742500000002
 20
19.03387000000002
 30
0
 11
28.45392361431496
 21
8.738551264646262
 31
0
 70
   36
 71
    5
  3
Standard
 53
0
210
0
220
0
230
1
100
AcDbRadialDimension
 15
34.38481477424627
 25
17.94315357328295
 35
0
 40
0
  0
ENDBLK
  5
50
330
4E
100
AcDbEntity
  8
0
100
AcDbBlockEnd
  0
BLOCK
  5
52
330
51
100
AcDbEntity
  8
0
100
AcDbBlockBegin
  2
Window
 70
    0
 10
0
 20
0
  3
Window
  1

  0
CIRCLE
  5
8B
100
AcDbEntity
  8
0
  6
ByLayer
 62
    7
370
   -1
100
AcDbCircle
 10
4
 20
22.75
 40
1.1
  0
CIRCLE
  5
8C
100
AcDbEntity
  8
0
  6
ByLayer
 62
    7
370
   -1
100
AcDbCircle
 10
97.58680000000001
 20
22.75
 40
1.09999999999999
  0
CIRCLE
  5
8D
100
AcDbEntity
  8
0
  6
ByLayer
 62
    7
370
   -1
100
AcDbCircle
 10
250.0757
 20
22.75
 40
1.09999999999999
  0
CIRCLE
  5
8E
100
AcDbEntity
  8
0
  6
ByLayer
 62
    7
370
   -1
100
AcDbCircle
 10
97.58680000000001
 20
4
 40
1.09999999999999
  0
CIRCLE
  5
8F
100
AcDbEntity
  8
0
  6
ByLayer
 62
    7
370
   -1
100
AcDbCircle
 10
4
 20
4
 40
1.1
  0
CIRCLE
  5
90
100
AcDbEntity
  8
0
  6
ByLayer
 62
    7
370
   -1
100
AcDbCircle
 10
250.0757
 20
4
 40
1.09999999999999
  0
CIRCLE
  5
91
100
AcDbEntity
  8
0
  6
ByLayer
 62
    7
370
   -1
100
AcDbCircle
 10
342.661059424536
 20
22.75
 40
1.09999999999999
  0
CIRCLE
  5
92
100
AcDbEntity
  8
0
  6
ByLayer
 62
    7
370
   -1
100
AcDbCircle
 10
342.661059424536
 20
4
 40
1.09999999999999
  0
ARC
  5
93
100
AcDbEntity
  8
0
  6
ByLayer
 62
  256
370
   -1
100
AcDbCircle
 10
3.309265777462199
 20
-0.001473368042894663
 40
0
100
AcDbArc
 50
0
 51
90.71615994547041
  0
ARC
  5
94
100
AcDbEntity
  8
0
  6
ByLayer
 62
  256
370
   -1
100
AcDbCircle
 10
1.999941623023659
 20
24.74999999423071
 40
2
100
AcDbArc
 50
89.99999983471903
 51
179.998298949672
  0
LINE
  5
95
100
AcDbEntity
  8
0
  6
ByLayer
 62
    7
370
   -1
100
AcDbLine
 10
-5.837609490022544e-005
 20
24.75005937208869
 11
-0.0007338429974605987
 21
1.998585135324191
  0
ARC
  5
96
100
AcDbEntity
  8
0
  6
ByLayer
 62
  256
370
   -1
100
AcDbCircle
 10
1.999266156121109
 20
1.998525757466297
 40
2
100
AcDbArc
 50
179.998298949672
 51
269.9999749479281
  0
LINE
  5
97
100
AcDbEntity
  8
0
  6
ByLayer
 62
    7
370
   -1
100
AcDbLine
 10
1.999265281638829
 20
-0.001474242533504366
 11
344.6618861413086
 21
-0.001624068727807071
  0
ARC
  5
98
100
AcDbEntity
  8
0
  6
ByLayer
 62
  256
370
   -1
100
AcDbCircle
 10
344.6618870157909
 20
1.998375931271994
 40
2
100
AcDbArc
 50
269.999974947928
 51
0.001915734978774032
  0
LINE
  5
99
100
AcDbEntity
  8
0
  6
ByLayer
 62
    7
370
   -1
100
AcDbLine
 10
346.661887014673
 20
1.998442803037904
 11
346.6611262940659
 21
24.75006587753509
  0
LINE
  5
9A
100
AcDbEntity
  8
0
  6
ByLayer
 62
    7
370
   -1
100
AcDbLine
 10
344.6611263009532
 20
26.7499990057691
 11
1.99994162879306
 21
26.74999999423071
  0
ARC
  5
9B
100
AcDbEntity
  8
0
  6
ByLayer
 62
  256
370
   -1
100
AcDbCircle
 10
344.6611262951839
 20
24.7499990057691
 40
2
100
AcDbArc
 50
0.001915734978774082
 51
89.99999983472108
  0
DIMENSION
  5
9C
100
AcDbEntity
  8
cotas
  6
ByLayer
 62
  256
370
   -1
100
AcDbDimension
 10
346.6616355323491
 20
-20.98711999520393
 30
0
 11
173.3308177661745
 21
-16.29961999520393
 31
0
 70
   32
 71
    5
  3
Standard
 53
0
210
0
220
0
230
1
100
AcDbAlignedDimension
 13
0
 23
10
 33
0
 14
346.6616355323491
 24
9.519773224667484
 34
0
100
AcDbRotatedDimension
  0
DIMENSION
  5
9D
100
AcDbEntity
  8
cotas
  6
ByLayer
 62
  256
370
   -1
100
AcDbDimension
 10
346.6611597299489
 20
37.0258711746116
 30
0
 11
344.6611095772424
 21
41.7133711746116
 31
0
 70
   32
 71
    5
  3
Standard
 53
0
210
0
220
0
230
1
100
AcDbAlignedDimension
 13
342.661059424536
 23
22.75
 33
0
 14
346.6611597299489
 24
23.75006587809407
 34
0
100
AcDbRotatedDimension
  0
DIMENSION
  5
9E
100
AcDbEntity
  8
cotas
  6
ByLayer
 62
  256
370
   -1
100
AcDbDimension
 10
250.0757
 20
41.94539251949006
 30
0
 11
296.368379712268
 21
46.63289251949006
 31
0
 70
   32
 71
    5
  3
Standard
 53
0
210
0
220
0
230
1
100
AcDbAlignedDimension
 13
342.661059424536
 23
22.75
 33
0
 14
250.0757
 24
22.75
 34
0
100
AcDbRotatedDimension
  0
DIMENSION
  5
9F
100
AcDbEntity
  8
cotas
  6
ByLayer
 62
  256
370
   -1
100
AcDbDimension
 10
-8.806502385547145e-005
 20
43.0060034900678
 30
0
 11
1.999955967488072
 21
47.6935034900678
 31
0
 70
   32
 71
    5
  3
Standard
 53
0
210
0
220
0
230
1
100
AcDbAlignedDimension
 13
4
 23
22.75
 33
0
 14
-8.806502385665049e-005
 24
23.75005937252941
 34
0
100
AcDbRotatedDimension
  0
DIMENSION
  5
A0
100
AcDbEntity
  8
cotas
  6
ByLayer
 62
  256
370
   -1
100
AcDbDimension
 10
97.58680000000001
 20
39.39045452408865
 30
0
 11
50.79340000000001
 21
44.07795452408865
 31
0
 70
   32
 71
    5
  3
Standard
 53
0
210
0
220
0
230
1
100
AcDbAlignedDimension
 13
4
 23
22.75
 33
0
 14
97.58680000000001
 24
22.75
 34
0
100
AcDbRotatedDimension
  0
DIMENSION
  5
A1
100
AcDbEntity
  8
cotas
  6
ByLayer
 62
  256
370
   -1
100
AcDbDimension
 10
-24.05473030000889
 20
-0.001477648839333265
 30
0
 11
-28.74223030000889
 21
13.37426116146026
 31
0
 70
   32
 71
    5
  3
Standard
 53
0
210
0
220
0
230
1
100
AcDbAlignedDimension
 13
9.789715817056845
 23
26.74999997175984
 33
0
 14
9.789716675218267
 24
-0.00147764883933741
 34
0
 50
90
100
AcDbRotatedDimension
  0
DIMENSION
  5
A2
100
AcDbEntity
  8
cotas
  6
ByLayer
 62
  256
370
   -1
100
AcDbDimension
 10
-8.950597320933539
 20
-0.001473368042893161
 30
0
 11
-13.63809732093354
 21
1.999263315978553
 31
0
 70
   32
 71
    5
  3
Standard
 53
0
210
0
220
0
230
1
100
AcDbAlignedDimension
 13
4
 23
4
 33
0
 14
3.309265777462199
 24
-0.001473368042894663
 34
0
 50
90
100
AcDbRotatedDimension
  0
DIMENSION
  5
A3
100
AcDbEntity
  8
cotas
  6
ByLayer
 62
  256
370
   -1
100
AcDbDimension
 10
-8.950597320933539
 20
26.74999999134605
 30
0
 11
-13.63809732093354
 21
24.74999999567302
 31
0
 70
   32
 71
    5
  3
Standard
 53
0
210
0
220
0
230
1
100
AcDbAlignedDimension
 13
4
 23
22.75
 33
0
 14
2.99994162879306
 24
26.74999999134605
 34
0
 50
90
100
AcDbRotatedDimension
  0
DIMENSION
  5
A4
100
AcDbEntity
  8
cotas
  6
ByLayer
 62
  256
370
   -1
100
AcDbDimension
 10
1.999266156121109
 20
1.998525757466297
 30
0
 11
-4.098512152350122
 21
-6.816117455000299
 31
0
 70
   36
 71
    5
  3
Standard
 53
0
210
0
220
0
230
1
100
AcDbRadialDimension
 15
1.695348318369876
 25
0.02175213666481168
 35
0
 40
0
  0
DIMENSION
  5
A5
100
AcDbEntity
  8
cotas
  6
ByLayer
 62
  256
370
   -1
100
AcDbDimension
 10
4
 20
4
 30
0
 11
14.99583333333333
 21
8.6875
 31
0
 70
   36
 71
    5
  3
Standard
 53
0
210
0
220
0
230
1
100
AcDbRadialDimension
 15
5.1
 25
4
 35
0
 40
0
  0
ENDBLK
  5
53
330
51
100
AcDbEntity
  8
0
100
AcDbBlockEnd
  0
BLOCK
  5
55
330
54
100
AcDbEntity
  8
0
100
AcDbBlockBegin
  2
Logo guard
 70
    0
 10
0
 20
0
  3
Logo guard
  1

  0
LINE
  5
A6
100
AcDbEntity
  8
0
  6
ByLayer
 62
  256
370
   -1
100
AcDbLine
 10
16.55000000000007
 20
0
 11
16.55000000000007
 21
19.0499
  0
LINE
  5
A7
100
AcDbEntity
  8
0
  6
ByLayer
 62
  256
370
   -1
100
AcDbLine
 10
16.55000000000007
 20
19.0499
 11
35.55000000000007
 21
19.0499
  0
LINE
  5
A8
100
AcDbEntity
  8
0
  6
ByLayer
 62
  256
370
   -1
100
AcDbLine
 10
35.55000000000007
 20
19.0499
 11
35.55000000000007
 21
0
  0
LINE
  5
A9
100
AcDbEntity
  8
0
  6
ByLayer
 62
  256
370
   -1
100
AcDbLine
 10
35.55000000000007
 20
0
 11
52.10000000000019
 21
0
  0
LINE
  5
AA
100
AcDbEntity
  8
0
  6
ByLayer
 62
  256
370
   -1
100
AcDbLine
 10
52.10000000000019
 20
0
 11
52.10000000000019
 21
38.15069999999999
  0
LINE
  5
AB
100
AcDbEntity
  8
0
  6
ByLayer
 62
  256
370
   -1
100
AcDbLine
 10
52.10000000000019
 20
38.15069999999999
 11
14.00000000000006
 21
38.15069999999999
  0
LINE
  5
AC
100
AcDbEntity
  8
0
  6
ByLayer
 62
  256
370
   -1
100
AcDbLine
 10
0
 20
0
 11
16.55000000000007
 21
0
  0
LINE
  5
AD
100
AcDbEntity
  8
0
  6
ByLayer
 62
  256
370
   -1
100
AcDbLine
 10
0
 20
0
 11
0
 21
38.15069999999999
  0
LINE
  5
AE
100
AcDbEntity
  8
0
  6
ByLayer
 62
  256
370
   -1
100
AcDbLine
 10
0
 20
38.15069999999999
 11
14.00000000000006
 21
38.15069999999999
  0
CIRCLE
  5
AF
100
AcDbEntity
  8
0
  6
ByLayer
 62
  256
370
   -1
100
AcDbCircle
 10
49.59554751791217
 20
2.5
 40
1.100000000000023
  0
CIRCLE
  5
B0
100
AcDbEntity
  8
0
  6
ByLayer
 62
  256
370
   -1
100
AcDbCircle
 10
2.50445248208797
 20
35.65069999999999
 40
1.100000000000023
  0
CIRCLE
  5
B1
100
AcDbEntity
  8
0
  6
ByLayer
 62
  256
370
   -1
100
AcDbCircle
 10
49.60000000000019
 20
35.65069999999999
 40
1.100000000000023
  0
CIRCLE
  5
B2
100
AcDbEntity
  8
0
  6
ByLayer
 62
  256
370
   -1
100
AcDbCircle
 10
2.5
 20
2.50336592085684
 40
1.100000000000023
  0
DIMENSION
  5
B3
100
AcDbEntity
  8
cotas
  6
ByLayer
 62
  256
370
   -1
100
AcDbDimension
 10
52.10000000000019
 20
50
 30
0
 11
26.0500000000001
 21
54.6875
 31
0
 70
   32
 71
    5
 72
    0
  3
Standard
 53
0
210
0
220
0
230
1
100
AcDbAlignedDimension
 13
-6.123031769111886e-017
 23
37.15069999999999
 33
0
 14
52.10000000000019
 24
37.15069999999999
 34
0
100
AcDbRotatedDimension
  0
DIMENSION
  5
B4
100
AcDbEntity
  8
cotas
  6
ByLayer
 62
  256
370
   -1
100
AcDbDimension
 10
35.55000000000007
 20
-10
 30
0
 11
43.82500000000013
 21
-5.3125
 31
0
 70
   32
 71
    5
 72
    0
  3
Standard
 53
0
210
0
220
0
230
1
100
AcDbAlignedDimension
 13
52.10000000000019
 23
1
 33
0
 14
35.55000000000007
 24
1
 34
0
100
AcDbRotatedDimension
  0
DIMENSION
  5
B5
100
AcDbEntity
  8
cotas
  6
ByLayer
 62
  256
370
   -1
100
AcDbDimension
 10
16.55000000000007
 20
-10
 30
0
 11
26.05000000000007
 21
-5.3125
 31
0
 70
   32
 71
    5
 72
    0
  3
Standard
 53
0
210
0
220
0
230
1
100
AcDbAlignedDimension
 13
35.55000000000007
 23
1
 33
0
 14
16.55000000000007
 24
1
 34
0
100
AcDbRotatedDimension
  0
DIMENSION
  5
B6
100
AcDbEntity
  8
cotas
  6
ByLayer
 62
  256
370
   -1
100
AcDbDimension
 10
-6.123031769111886e-016
 20
-10
 30
0
 11
8.275000000000036
 21
-5.3125
 31
0
 70
   32
 71
    5
 72
    0
  3
Standard
 53
0
210
0
220
0
230
1
100
AcDbAlignedDimension
 13
16.55000000000007
 23
1
 33
0
 14
6.123031769111886e-017
 24
1
 34
0
100
AcDbRotatedDimension
  0
DIMENSION
  5
B7
100
AcDbEntity
  8
cotas
  6
ByLayer
 62
  256
370
   -1
100
AcDbDimension
 10
-10
 20
2.449212707644755e-015
 30
0
 11
-14.6875
 21
19.07535
 31
0
 70
   32
 71
    5
 72
    0
  3
Standard
 53
0
210
0
220
0
230
1
100
AcDbAlignedDimension
 13
7.00000000000003
 23
38.15069999999999
 33
0
 14
10
 24
0
 34
0
 50
90
100
AcDbRotatedDimension
  0
DIMENSION
  5
B8
100
AcDbEntity
  8
cotas
  6
ByLayer
 62
  256
370
   -1
100
AcDbDimension
 10
-12.12499999999999
 20
38.15069999999999
 30
0
 11
-16.81249999999999
 21
36.90069999999999
 31
0
 70
   32
 71
    5
 72
    0
  3
Standard
 53
0
210
0
220
0
230
1
100
AcDbAlignedDimension
 13
2.50445248208797
 23
35.65069999999999
 33
0
 14
7.00000000000003
 24
38.15069999999999
 34
0
 50
90
100
AcDbRotatedDimension
  0
DIMENSION
  5
B9
100
AcDbEntity
  8
cotas
  6
ByLayer
 62
  256
370
   -1
100
AcDbDimension
 10
-0.05804751791202989
 20
35.65069999999999
 30
0
 11
-4.745547517912031
 21
19.07703296042842
 31
0
 70
   32
 71
    5
 72
    0
  3
Standard
 53
0
210
0
220
0
230
1
100
AcDbAlignedDimension
 13
2.5
 23
2.50336592085684
 33
0
 14
2.50445248208797
 24
35.65069999999999
 34
0
 50
90
100
AcDbRotatedDimension
  0
DIMENSION
  5
BA
100
AcDbEntity
  8
cotas
  6
ByLayer
 62
  256
370
   -1
100
AcDbDimension
 10
49.60000000000019
 20
27.53918078663497
 30
0
 11
26.05222624104409
 21
32.22668078663497
 31
0
 70
   32
 71
    5
 72
    0
  3
Standard
 53
0
210
0
220
0
230
1
100
AcDbAlignedDimension
 13
2.50445248208797
 23
35.65069999999999
 33
0
 14
49.60000000000019
 24
35.65069999999999
 34
0
100
AcDbRotatedDimension
  0
DIMENSION
  5
BB
100
AcDbEntity
  8
cotas
  6
ByLayer
 62
  256
370
   -1
100
AcDbDimension
 10
8.556508285110028e-016
 20
52.125
 30
0
 11
1.252226241043985
 21
56.8125
 31
0
 70
   32
 71
    5
 72
    0
  3
Standard
 53
0
210
0
220
0
230
1
100
AcDbAlignedDimension
 13
2.50445248208797
 23
35.65069999999999
 33
0
 14
0
 24
38.15069999999999
 34
0
100
AcDbRotatedDimension
  0
DIMENSION
  5
BC
100
AcDbEntity
  8
cotas
  6
ByLayer
 62
  256
370
   -1
100
AcDbDimension
 10
2.50445248208797
 20
35.65069999999999
 30
0
 11
13.59424383369701
 21
31.19003472201484
 31
0
 70
   36
 71
    5
 72
    0
  3
Standard
 53
0
210
0
220
0
230
1
100
AcDbRadialDimension
 15
3.282269941393189
 25
34.87288254069477
 35
0
 40
0
  0
DIMENSION
  5
BD
100
AcDbEntity
  8
cotas
  6
ByLayer
 62
  256
370
   -1
100
AcDbDimension
 10
15.55000000000007
 20
1.224606353822377e-016
 30
0
 11
10.86250000000007
 21
9.52495
 31
0
 70
   32
 71
    5
 72
    0
  3
Standard
 53
0
210
0
220
0
230
1
100
AcDbAlignedDimension
 13
16.55000000000007
 23
19.0499
 33
0
 14
16.55000000000007
 24
0
 34
0
 50
90
100
AcDbRotatedDimension
  0
ENDBLK
  5
56
330
54
100
AcDbEntity
  8
0
100
AcDbBlockEnd
  0
ENDSEC
  0
SECTION
  2
ENTITIES
  0
LINE
  5
BE
100
AcDbEntity
  8
0
  6
ByLayer
 62
    0
370
   -1
100
AcDbLine
 10
123.492575
 20
16.03360000000002
 11
123.492575
 21
11.33310000000002
  0
LINE
  5
BF
100
AcDbEntity
  8
0
  6
ByLayer
 62
    0
370
   -1
100
AcDbLine
 10
88.62547500000001
 20
11.33310000000002
 11
88.62547500000001
 21
14.56330000000002
  0
LINE
  5
C0
100
AcDbEntity
  8
0
  6
ByLayer
 62
    0
370
   -1
100
AcDbLine
 10
88.62547500000001
 20
14.56330000000002
 11
77.117575
 21
14.56330000000002
  0
LINE
  5
C1
100
AcDbEntity
  8
0
  6
ByLayer
 62
    0
370
   -1
100
AcDbLine
 10
77.117575
 20
14.56330000000002
 11
77.117575
 21
11.33310000000002
  0
LINE
  5
C2
100
AcDbEntity
  8
0
  6
ByLayer
 62
    0
370
   -1
100
AcDbLine
 10
77.117575
 20
11.33310000000002
 11
76.29347500000002
 21
11.33310000000002
  0
LINE
  5
C3
100
AcDbEntity
  8
0
  6
ByLayer
 62
    0
370
   -1
100
AcDbLine
 10
76.29347500000002
 20
11.33310000000002
 11
76.29347500000002
 21
8.534340000000011
  0
LINE
  5
C4
100
AcDbEntity
  8
0
  6
ByLayer
 62
    0
370
   -1
100
AcDbLine
 10
76.29347500000002
 20
8.534340000000011
 11
77.117575
 21
8.534340000000011
  0
LINE
  5
C5
100
AcDbEntity
  8
0
  6
ByLayer
 62
    0
370
   -1
100
AcDbLine
 10
77.117575
 20
8.534340000000011
 11
77.117575
 21
2.264270000000019
  0
LINE
  5
C6
100
AcDbEntity
  8
0
  6
ByLayer
 62
    0
370
   -1
100
AcDbLine
 10
77.117575
 20
2.264270000000019
 11
78.84257500000002
 21
2.264270000000019
  0
LINE
  5
C7
100
AcDbEntity
  8
0
  6
ByLayer
 62
    0
370
   -1
100
AcDbLine
 10
78.84257500000002
 20
2.264270000000019
 11
78.84257500000002
 21
1.06400000000002
  0
LINE
  5
C8
100
AcDbEntity
  8
0
  6
ByLayer
 62
    0
370
   -1
100
AcDbLine
 10
78.84257500000002
 20
1.06400000000002
 11
82.143175
 21
1.06400000000002
  0
LINE
  5
C9
100
AcDbEntity
  8
0
  6
ByLayer
 62
    0
370
   -1
100
AcDbLine
 10
82.143175
 20
1.06400000000002
 11
82.143175
 21
2.264270000000019
  0
LINE
  5
CA
100
AcDbEntity
  8
0
  6
ByLayer
 62
    0
370
   -1
100
AcDbLine
 10
82.143175
 20
2.264270000000019
 11
83.59977500000001
 21
2.264270000000019
  0
LINE
  5
CB
100
AcDbEntity
  8
0
  6
ByLayer
 62
    0
370
   -1
100
AcDbLine
 10
83.59977500000001
 20
2.264270000000019
 11
83.59977500000001
 21
1.06400000000002
  0
LINE
  5
CC
100
AcDbEntity
  8
0
  6
ByLayer
 62
    0
370
   -1
100
AcDbLine
 10
83.59977500000001
 20
1.06400000000002
 11
86.900075
 21
1.06400000000002
  0
LINE
  5
CD
100
AcDbEntity
  8
0
  6
ByLayer
 62
    0
370
   -1
100
AcDbLine
 10
86.900075
 20
1.06400000000002
 11
86.900075
 21
2.264270000000019
  0
LINE
  5
CE
100
AcDbEntity
  8
0
  6
ByLayer
 62
    0
370
   -1
100
AcDbLine
 10
86.900075
 20
2.264270000000019
 11
88.62547500000001
 21
2.264270000000019
  0
LINE
  5
CF
100
AcDbEntity
  8
0
  6
ByLayer
 62
    0
370
   -1
100
AcDbLine
 10
88.62547500000001
 20
2.264270000000019
 11
88.62547500000001
 21
6.73323000000002
  0
LINE
  5
D0
100
AcDbEntity
  8
0
  6
ByLayer
 62
    0
370
   -1
100
AcDbLine
 10
123.492575
 20
6.73323000000002
 11
123.492575
 21
2.03414000000002
  0
LINE
  5
D1
100
AcDbEntity
  8
0
  6
ByLayer
 62
    0
370
   -1
100
AcDbLine
 10
123.492575
 20
2.03414000000002
 11
149.399575
 21
2.03414000000002
  0
LINE
  5
D2
100
AcDbEntity
  8
0
  6
ByLayer
 62
    0
370
   -1
100
AcDbLine
 10
149.399575
 20
2.03414000000002
 11
149.399575
 21
6.73323000000002
  0
LINE
  5
D3
100
AcDbEntity
  8
0
  6
ByLayer
 62
    0
370
   -1
100
AcDbLine
 10
177.117575
 20
6.73323000000002
 11
177.117575
 21
2.264270000000019
  0
LINE
  5
D4
100
AcDbEntity
  8
0
  6
ByLayer
 62
    0
370
   -1
100
AcDbLine
 10
177.117575
 20
2.264270000000019
 11
178.842575
 21
2.264270000000019
  0
LINE
  5
D5
100
AcDbEntity
  8
0
  6
ByLayer
 62
    0
370
   -1
100
AcDbLine
 10
178.842575
 20
2.264270000000019
 11
178.842575
 21
1.06400000000002
  0
LINE
  5
D6
100
AcDbEntity
  8
0
  6
ByLayer
 62
    0
370
   -1
100
AcDbLine
 10
178.842575
 20
1.06400000000002
 11
182.143575
 21
1.06400000000002
  0
LINE
  5
D7
100
AcDbEntity
  8
0
  6
ByLayer
 62
    0
370
   -1
100
AcDbLine
 10
182.143575
 20
1.06400000000002
 11
182.143575
 21
2.264270000000019
  0
LINE
  5
D8
100
AcDbEntity
  8
0
  6
ByLayer
 62
    0
370
   -1
100
AcDbLine
 10
182.143575
 20
2.264270000000019
 11
183.868575
 21
2.264270000000019
  0
LINE
  5
D9
100
AcDbEntity
  8
0
  6
ByLayer
 62
    0
370
   -1
100
AcDbLine
 10
183.868575
 20
2.264270000000019
 11
183.868575
 21
6.73323000000002
  0
LINE
  5
DA
100
AcDbEntity
  8
0
  6
ByLayer
 62
    0
370
   -1
100
AcDbLine
 10
194.931575
 20
6.73323000000002
 11
194.931575
 21
2.03414000000002
  0
LINE
  5
DB
100
AcDbEntity
  8
0
  6
ByLayer
 62
    0
370
   -1
100
AcDbLine
 10
194.931575
 20
2.03414000000002
 11
197.899575
 21
2.03414000000002
  0
LINE
  5
DC
100
AcDbEntity
  8
0
  6
ByLayer
 62
    0
370
   -1
100
AcDbLine
 10
197.899575
 20
2.03414000000002
 11
197.899575
 21
1.06400000000002
  0
LINE
  5
DD
100
AcDbEntity
  8
0
  6
ByLayer
 62
    0
370
   -1
100
AcDbLine
 10
197.899575
 20
1.06400000000002
 11
201.199575
 21
1.06400000000002
  0
LINE
  5
DE
100
AcDbEntity
  8
0
  6
ByLayer
 62
    0
370
   -1
100
AcDbLine
 10
201.199575
 20
1.06400000000002
 11
201.199575
 21
2.03414000000002
  0
LINE
  5
DF
100
AcDbEntity
  8
0
  6
ByLayer
 62
    0
370
   -1
100
AcDbLine
 10
201.199575
 20
2.03414000000002
 11
208.930575
 21
2.03414000000002
  0
LINE
  5
E0
100
AcDbEntity
  8
0
  6
ByLayer
 62
    0
370
   -1
100
AcDbLine
 10
208.930575
 20
2.03414000000002
 11
208.930575
 21
16.03360000000002
  0
LINE
  5
E1
100
AcDbEntity
  8
0
  6
ByLayer
 62
    0
370
   -1
100
AcDbLine
 10
208.930575
 20
16.03360000000002
 11
194.931575
 21
16.03360000000002
  0
LINE
  5
E2
100
AcDbEntity
  8
0
  6
ByLayer
 62
    0
370
   -1
100
AcDbLine
 10
194.931575
 20
16.03360000000002
 11
194.931575
 21
11.33310000000002
  0
LINE
  5
E3
100
AcDbEntity
  8
0
  6
ByLayer
 62
    0
370
   -1
100
AcDbLine
 10
183.868575
 20
11.33310000000002
 11
183.868575
 21
14.56330000000002
  0
LINE
  5
E4
100
AcDbEntity
  8
0
  6
ByLayer
 62
    0
370
   -1
100
AcDbLine
 10
183.868575
 20
14.56330000000002
 11
177.117575
 21
14.56330000000002
  0
LINE
  5
E5
100
AcDbEntity
  8
0
  6
ByLayer
 62
    0
370
   -1
100
AcDbLine
 10
177.117575
 20
14.56330000000002
 11
177.117575
 21
11.33310000000002
  0
LINE
  5
E6
100
AcDbEntity
  8
0
  6
ByLayer
 62
    0
370
   -1
100
AcDbLine
 10
149.399575
 20
11.33310000000002
 11
149.399575
 21
16.03360000000002
  0
LINE
  5
E7
100
AcDbEntity
  8
0
  6
ByLayer
 62
    0
370
   -1
100
AcDbLine
 10
149.399575
 20
16.03360000000002
 11
123.492575
 21
16.03360000000002
  0
LINE
  5
E8
100
AcDbEntity
  8
0
  6
ByLayer
 62
    0
370
   -1
100
AcDbLine
 10
330.6625750000001
 20
16.03360000000002
 11
344.6625750000001
 21
16.03360000000002
  0
LINE
  5
E9
100
AcDbEntity
  8
0
  6
ByLayer
 62
    0
370
   -1
100
AcDbLine
 10
344.6625750000001
 20
16.03360000000002
 11
344.6625750000001
 21
2.03414000000002
  0
LINE
  5
EA
100
AcDbEntity
  8
0
  6
ByLayer
 62
    0
370
   -1
100
AcDbLine
 10
344.6625750000001
 20
2.03414000000002
 11
330.6625750000001
 21
2.03414000000002
  0
LINE
  5
EB
100
AcDbEntity
  8
0
  6
ByLayer
 62
    0
370
   -1
100
AcDbLine
 10
330.6625750000001
 20
2.03414000000002
 11
330.6625750000001
 21
16.03360000000002
  0
LINE
  5
EC
100
AcDbEntity
  8
0
  6
ByLayer
 62
    0
370
   -1
100
AcDbLine
 10
311.612575
 20
16.03360000000002
 11
325.612575
 21
16.03360000000002
  0
LINE
  5
ED
100
AcDbEntity
  8
0
  6
ByLayer
 62
    0
370
   -1
100
AcDbLine
 10
325.612575
 20
16.03360000000002
 11
325.612575
 21
2.03414000000002
  0
LINE
  5
EE
100
AcDbEntity
  8
0
  6
ByLayer
 62
    0
370
   -1
100
AcDbLine
 10
325.612575
 20
2.03414000000002
 11
311.612575
 21
2.03414000000002
  0
LINE
  5
EF
100
AcDbEntity
  8
0
  6
ByLayer
 62
    0
370
   -1
100
AcDbLine
 10
311.612575
 20
2.03414000000002
 11
311.612575
 21
16.03360000000002
  0
LINE
  5
F0
100
AcDbEntity
  8
0
  6
ByLayer
 62
    0
370
   -1
100
AcDbLine
 10
292.562575
 20
16.03360000000002
 11
306.562575
 21
16.03360000000002
  0
LINE
  5
F1
100
AcDbEntity
  8
0
  6
ByLayer
 62
    0
370
   -1
100
AcDbLine
 10
306.562575
 20
16.03360000000002
 11
306.562575
 21
2.03414000000002
  0
LINE
  5
F2
100
AcDbEntity
  8
0
  6
ByLayer
 62
    0
370
   -1
100
AcDbLine
 10
306.562575
 20
2.03414000000002
 11
292.562575
 21
2.03414000000002
  0
LINE
  5
F3
100
AcDbEntity
  8
0
  6
ByLayer
 62
    0
370
   -1
100
AcDbLine
 10
292.562575
 20
2.03414000000002
 11
292.562575
 21
16.03360000000002
  0
LINE
  5
F4
100
AcDbEntity
  8
0
  6
ByLayer
 62
    0
370
   -1
100
AcDbLine
 10
263.987575
 20
16.03360000000002
 11
280.368575
 21
16.03360000000002
  0
LINE
  5
F5
100
AcDbEntity
  8
0
  6
ByLayer
 62
    0
370
   -1
100
AcDbLine
 10
280.368575
 20
16.03360000000002
 11
280.368575
 21
2.03414000000002
  0
LINE
  5
F6
100
AcDbEntity
  8
0
  6
ByLayer
 62
    0
370
   -1
100
AcDbLine
 10
280.368575
 20
2.03414000000002
 11
263.987575
 21
2.03414000000002
  0
LINE
  5
F7
100
AcDbEntity
  8
0
  6
ByLayer
 62
    0
370
   -1
100
AcDbLine
 10
263.987575
 20
2.03414000000002
 11
263.987575
 21
16.03360000000002
  0
LINE
  5
F8
100
AcDbEntity
  8
0
  6
ByLayer
 62
    0
370
   -1
100
AcDbLine
 10
240.175575
 20
16.03360000000002
 11
256.555575
 21
16.03360000000002
  0
LINE
  5
F9
100
AcDbEntity
  8
0
  6
ByLayer
 62
    0
370
   -1
100
AcDbLine
 10
256.555575
 20
16.03360000000002
 11
256.555575
 21
2.03414000000002
  0
LINE
  5
FA
100
AcDbEntity
  8
0
  6
ByLayer
 62
    0
370
   -1
100
AcDbLine
 10
256.555575
 20
2.03414000000002
 11
240.175575
 21
2.03414000000002
  0
LINE
  5
FB
100
AcDbEntity
  8
0
  6
ByLayer
 62
    0
370
   -1
100
AcDbLine
 10
240.175575
 20
2.03414000000002
 11
240.175575
 21
16.03360000000002
  0
LINE
  5
FC
100
AcDbEntity
  8
0
  6
ByLayer
 62
    0
370
   -1
100
AcDbLine
 10
216.362575
 20
16.03360000000002
 11
232.743575
 21
16.03360000000002
  0
LINE
  5
FD
100
AcDbEntity
  8
0
  6
ByLayer
 62
    0
370
   -1
100
AcDbLine
 10
232.743575
 20
16.03360000000002
 11
232.743575
 21
2.03414000000002
  0
LINE
  5
FE
100
AcDbEntity
  8
0
  6
ByLayer
 62
    0
370
   -1
100
AcDbLine
 10
232.743575
 20
2.03414000000002
 11
216.362575
 21
2.03414000000002
  0
LINE
  5
FF
100
AcDbEntity
  8
0
  6
ByLayer
 62
    0
370
   -1
100
AcDbLine
 10
216.362575
 20
2.03414000000002
 11
216.362575
 21
16.03360000000002
  0
LINE
  5
100
100
AcDbEntity
  8
0
  6
ByLayer
 62
    0
370
   -1
100
AcDbLine
 10
52.05657500000001
 20
16.03360000000002
 11
68.43707500000002
 21
16.03360000000002
  0
LINE
  5
101
100
AcDbEntity
  8
0
  6
ByLayer
 62
    0
370
   -1
100
AcDbLine
 10
68.43707500000002
 20
16.03360000000002
 11
68.43707500000002
 21
2.03414000000002
  0
LINE
  5
102
100
AcDbEntity
  8
0
  6
ByLayer
 62
    0
370
   -1
100
AcDbLine
 10
68.43707500000002
 20
2.03414000000002
 11
52.05657500000001
 21
2.03414000000002
  0
LINE
  5
103
100
AcDbEntity
  8
0
  6
ByLayer
 62
    0
370
   -1
100
AcDbLine
 10
52.05657500000001
 20
2.03414000000002
 11
52.05657500000001
 21
16.03360000000002
  0
LINE
  5
104
100
AcDbEntity
  8
0
  6
ByLayer
 62
    0
370
   -1
100
AcDbLine
 10
28.24257500000002
 20
16.03360000000002
 11
44.62457500000002
 21
16.03360000000002
  0
LINE
  5
105
100
AcDbEntity
  8
0
  6
ByLayer
 62
    0
370
   -1
100
AcDbLine
 10
44.62457500000002
 20
16.03360000000002
 11
44.62457500000002
 21
2.03414000000002
  0
LINE
  5
106
100
AcDbEntity
  8
0
  6
ByLayer
 62
    0
370
   -1
100
AcDbLine
 10
44.62457500000002
 20
2.03414000000002
 11
28.24257500000002
 21
2.03414000000002
  0
LINE
  5
107
100
AcDbEntity
  8
0
  6
ByLayer
 62
    0
370
   -1
100
AcDbLine
 10
28.24257500000002
 20
2.03414000000002
 11
28.24257500000002
 21
16.03360000000002
  0
LINE
  5
108
100
AcDbEntity
  8
0
  6
ByLayer
 62
    0
370
   -1
100
AcDbLine
 10
4.43148500000002
 20
16.03360000000002
 11
20.81227500000001
 21
16.03360000000002
  0
LINE
  5
109
100
AcDbEntity
  8
0
  6
ByLayer
 62
    0
370
   -1
100
AcDbLine
 10
20.81227500000001
 20
16.03360000000002
 11
20.81227500000001
 21
2.03414000000002
  0
LINE
  5
10A
100
AcDbEntity
  8
0
  6
ByLayer
 62
    0
370
   -1
100
AcDbLine
 10
20.81227500000001
 20
2.03414000000002
 11
4.43148500000002
 21
2.03414000000002
  0
LINE
  5
10B
100
AcDbEntity
  8
0
  6
ByLayer
 62
    0
370
   -1
100
AcDbLine
 10
4.43148500000002
 20
2.03414000000002
 11
4.43148500000002
 21
16.03360000000002
  0
LINE
  5
10C
100
AcDbEntity
  8
0
  6
ByLayer
 62
    0
370
   -1
100
AcDbLine
 10
242.556575
 20
35.08350000000002
 11
242.556575
 21
21.08410000000002
  0
LINE
  5
10D
100
AcDbEntity
  8
0
  6
ByLayer
 62
    0
370
   -1
100
AcDbLine
 10
242.556575
 20
21.08410000000002
 11
245.531575
 21
21.08410000000002
  0
LINE
  5
10E
100
AcDbEntity
  8
0
  6
ByLayer
 62
    0
370
   -1
100
AcDbLine
 10
245.531575
 20
21.08410000000002
 11
245.531575
 21
20.11400000000001
  0
LINE
  5
10F
100
AcDbEntity
  8
0
  6
ByLayer
 62
    0
370
   -1
100
AcDbLine
 10
245.531575
 20
20.11400000000001
 11
248.8305750000001
 21
20.11400000000001
  0
LINE
  5
110
100
AcDbEntity
  8
0
  6
ByLayer
 62
    0
370
   -1
100
AcDbLine
 10
248.8305750000001
 20
20.11400000000001
 11
248.8305750000001
 21
21.08410000000002
  0
LINE
  5
111
100
AcDbEntity
  8
0
  6
ByLayer
 62
    0
370
   -1
100
AcDbLine
 10
248.8305750000001
 20
21.08410000000002
 11
266.080575
 21
21.08410000000002
  0
LINE
  5
112
100
AcDbEntity
  8
0
  6
ByLayer
 62
    0
370
   -1
100
AcDbLine
 10
266.080575
 20
21.08410000000002
 11
266.080575
 21
25.78320000000001
  0
LINE
  5
113
100
AcDbEntity
  8
0
  6
ByLayer
 62
    0
370
   -1
100
AcDbLine
 10
266.080575
 20
25.78320000000001
 11
267.606575
 21
25.78320000000001
  0
LINE
  5
114
100
AcDbEntity
  8
0
  6
ByLayer
 62
    0
370
   -1
100
AcDbLine
 10
267.606575
 20
25.78320000000001
 11
267.606575
 21
21.31430000000002
  0
LINE
  5
115
100
AcDbEntity
  8
0
  6
ByLayer
 62
    0
370
   -1
100
AcDbLine
 10
267.606575
 20
21.31430000000002
 11
268.750575
 21
21.31430000000002
  0
LINE
  5
116
100
AcDbEntity
  8
0
  6
ByLayer
 62
    0
370
   -1
100
AcDbLine
 10
268.750575
 20
21.31430000000002
 11
268.750575
 21
21.08410000000002
  0
LINE
  5
117
100
AcDbEntity
  8
0
  6
ByLayer
 62
    0
370
   -1
100
AcDbLine
 10
268.750575
 20
21.08410000000002
 11
269.331575
 21
21.08410000000002
  0
LINE
  5
118
100
AcDbEntity
  8
0
  6
ByLayer
 62
    0
370
   -1
100
AcDbLine
 10
269.331575
 20
21.08410000000002
 11
269.331575
 21
20.11400000000001
  0
LINE
  5
119
100
AcDbEntity
  8
0
  6
ByLayer
 62
    0
370
   -1
100
AcDbLine
 10
269.331575
 20
20.11400000000001
 11
272.630575
 21
20.11400000000001
  0
LINE
  5
11A
100
AcDbEntity
  8
0
  6
ByLayer
 62
    0
370
   -1
100
AcDbLine
 10
272.630575
 20
20.11400000000001
 11
272.630575
 21
21.08410000000002
  0
LINE
  5
11B
100
AcDbEntity
  8
0
  6
ByLayer
 62
    0
370
   -1
100
AcDbLine
 10
272.630575
 20
21.08410000000002
 11
282.749575
 21
21.08410000000002
  0
LINE
  5
11C
100
AcDbEntity
  8
0
  6
ByLayer
 62
    0
370
   -1
100
AcDbLine
 10
282.749575
 20
21.08410000000002
 11
282.749575
 21
35.08350000000002
  0
LINE
  5
11D
100
AcDbEntity
  8
0
  6
ByLayer
 62
    0
370
   -1
100
AcDbLine
 10
282.749575
 20
35.08350000000002
 11
268.750575
 21
35.08350000000002
  0
LINE
  5
11E
100
AcDbEntity
  8
0
  6
ByLayer
 62
    0
370
   -1
100
AcDbLine
 10
268.750575
 20
35.08350000000002
 11
268.750575
 21
33.61330000000002
  0
LINE
  5
11F
100
AcDbEntity
  8
0
  6
ByLayer
 62
    0
370
   -1
100
AcDbLine
 10
268.750575
 20
33.61330000000002
 11
267.606575
 21
33.61330000000002
  0
LINE
  5
120
100
AcDbEntity
  8
0
  6
ByLayer
 62
    0
370
   -1
100
AcDbLine
 10
267.606575
 20
33.61330000000002
 11
267.606575
 21
30.38310000000001
  0
LINE
  5
121
100
AcDbEntity
  8
0
  6
ByLayer
 62
    0
370
   -1
100
AcDbLine
 10
267.606575
 20
30.38310000000001
 11
266.080575
 21
30.38310000000001
  0
LINE
  5
122
100
AcDbEntity
  8
0
  6
ByLayer
 62
    0
370
   -1
100
AcDbLine
 10
266.080575
 20
30.38310000000001
 11
266.080575
 21
35.08350000000002
  0
LINE
  5
123
100
AcDbEntity
  8
0
  6
ByLayer
 62
    0
370
   -1
100
AcDbLine
 10
266.080575
 20
35.08350000000002
 11
242.556575
 21
35.08350000000002
  0
LINE
  5
124
100
AcDbEntity
  8
0
  6
ByLayer
 62
    0
370
   -1
100
AcDbLine
 10
4.43148500000002
 20
35.08350000000002
 11
4.43148500000002
 21
21.08410000000002
  0
LINE
  5
125
100
AcDbEntity
  8
0
  6
ByLayer
 62
    0
370
   -1
100
AcDbLine
 10
4.43148500000002
 20
21.08410000000002
 11
7.406665000000011
 21
21.08410000000002
  0
LINE
  5
126
100
AcDbEntity
  8
0
  6
ByLayer
 62
    0
370
   -1
100
AcDbLine
 10
7.406665000000011
 20
21.08410000000002
 11
7.406665000000011
 21
20.11400000000001
  0
LINE
  5
127
100
AcDbEntity
  8
0
  6
ByLayer
 62
    0
370
   -1
100
AcDbLine
 10
7.406665000000011
 20
20.11400000000001
 11
10.70567500000001
 21
20.11400000000001
  0
LINE
  5
128
100
AcDbEntity
  8
0
  6
ByLayer
 62
    0
370
   -1
100
AcDbLine
 10
10.70567500000001
 20
20.11400000000001
 11
10.70567500000001
 21
21.08410000000002
  0
LINE
  5
129
100
AcDbEntity
  8
0
  6
ByLayer
 62
    0
370
   -1
100
AcDbLine
 10
10.70567500000001
 20
21.08410000000002
 11
31.20537500000002
 21
21.08410000000002
  0
LINE
  5
12A
100
AcDbEntity
  8
0
  6
ByLayer
 62
    0
370
   -1
100
AcDbLine
 10
31.20537500000002
 20
21.08410000000002
 11
31.20537500000002
 21
20.11400000000001
  0
LINE
  5
12B
100
AcDbEntity
  8
0
  6
ByLayer
 62
    0
370
   -1
100
AcDbLine
 10
31.20537500000002
 20
20.11400000000001
 11
34.50577500000001
 21
20.11400000000001
  0
LINE
  5
12C
100
AcDbEntity
  8
0
  6
ByLayer
 62
    0
370
   -1
100
AcDbLine
 10
34.50577500000001
 20
20.11400000000001
 11
34.50577500000001
 21
21.08410000000002
  0
LINE
  5
12D
100
AcDbEntity
  8
0
  6
ByLayer
 62
    0
370
   -1
100
AcDbLine
 10
34.50577500000001
 20
21.08410000000002
 11
39.86207500000002
 21
21.08410000000002
  0
LINE
  5
12E
100
AcDbEntity
  8
0
  6
ByLayer
 62
    0
370
   -1
100
AcDbLine
 10
39.86207500000002
 20
21.08410000000002
 11
39.86207500000002
 21
35.08350000000002
  0
LINE
  5
12F
100
AcDbEntity
  8
0
  6
ByLayer
 62
    0
370
   -1
100
AcDbLine
 10
39.86207500000002
 20
35.08350000000002
 11
4.43148500000002
 21
35.08350000000002
  0
LINE
  5
130
100
AcDbEntity
  8
0
  6
ByLayer
 62
    0
370
   -1
100
AcDbLine
 10
311.612575
 20
35.08350000000002
 11
325.612575
 21
35.08350000000002
  0
LINE
  5
131
100
AcDbEntity
  8
0
  6
ByLayer
 62
    0
370
   -1
100
AcDbLine
 10
325.612575
 20
35.08350000000002
 11
325.612575
 21
21.08410000000002
  0
LINE
  5
132
100
AcDbEntity
  8
0
  6
ByLayer
 62
    0
370
   -1
100
AcDbLine
 10
325.612575
 20
21.08410000000002
 11
311.612575
 21
21.08410000000002
  0
LINE
  5
133
100
AcDbEntity
  8
0
  6
ByLayer
 62
    0
370
   -1
100
AcDbLine
 10
311.612575
 20
21.08410000000002
 11
311.612575
 21
35.08350000000002
  0
LINE
  5
134
100
AcDbEntity
  8
0
  6
ByLayer
 62
    0
370
   -1
100
AcDbLine
 10
216.362575
 20
35.08350000000002
 11
230.362575
 21
35.08350000000002
  0
LINE
  5
135
100
AcDbEntity
  8
0
  6
ByLayer
 62
    0
370
   -1
100
AcDbLine
 10
230.362575
 20
35.08350000000002
 11
230.362575
 21
21.08410000000002
  0
LINE
  5
136
100
AcDbEntity
  8
0
  6
ByLayer
 62
    0
370
   -1
100
AcDbLine
 10
230.362575
 20
21.08410000000002
 11
216.362575
 21
21.08410000000002
  0
LINE
  5
137
100
AcDbEntity
  8
0
  6
ByLayer
 62
    0
370
   -1
100
AcDbLine
 10
216.362575
 20
21.08410000000002
 11
216.362575
 21
35.08350000000002
  0
LINE
  5
138
100
AcDbEntity
  8
0
  6
ByLayer
 62
    0
370
   -1
100
AcDbLine
 10
197.312575
 20
35.08350000000002
 11
211.312575
 21
35.08350000000002
  0
LINE
  5
139
100
AcDbEntity
  8
0
  6
ByLayer
 62
    0
370
   -1
100
AcDbLine
 10
211.312575
 20
35.08350000000002
 11
211.312575
 21
21.08410000000002
  0
LINE
  5
13A
100
AcDbEntity
  8
0
  6
ByLayer
 62
    0
370
   -1
100
AcDbLine
 10
211.312575
 20
21.08410000000002
 11
197.312575
 21
21.08410000000002
  0
LINE
  5
13B
100
AcDbEntity
  8
0
  6
ByLayer
 62
    0
370
   -1
100
AcDbLine
 10
197.312575
 20
21.08410000000002
 11
197.312575
 21
35.08350000000002
  0
LINE
  5
13C
100
AcDbEntity
  8
0
  6
ByLayer
 62
    0
370
   -1
100
AcDbLine
 10
178.262575
 20
35.08350000000002
 11
192.262575
 21
35.08350000000002
  0
LINE
  5
13D
100
AcDbEntity
  8
0
  6
ByLayer
 62
    0
370
   -1
100
AcDbLine
 10
192.262575
 20
35.08350000000002
 11
192.262575
 21
21.08410000000002
  0
LINE
  5
13E
100
AcDbEntity
  8
0
  6
ByLayer
 62
    0
370
   -1
100
AcDbLine
 10
192.262575
 20
21.08410000000002
 11
178.262575
 21
21.08410000000002
  0
LINE
  5
13F
100
AcDbEntity
  8
0
  6
ByLayer
 62
    0
370
   -1
100
AcDbLine
 10
178.262575
 20
21.08410000000002
 11
178.262575
 21
35.08350000000002
  0
LINE
  5
140
100
AcDbEntity
  8
0
  6
ByLayer
 62
    0
370
   -1
100
AcDbLine
 10
159.212575
 20
35.08350000000002
 11
173.212575
 21
35.08350000000002
  0
LINE
  5
141
100
AcDbEntity
  8
0
  6
ByLayer
 62
    0
370
   -1
100
AcDbLine
 10
173.212575
 20
35.08350000000002
 11
173.212575
 21
21.08410000000002
  0
LINE
  5
142
100
AcDbEntity
  8
0
  6
ByLayer
 62
    0
370
   -1
100
AcDbLine
 10
173.212575
 20
21.08410000000002
 11
159.212575
 21
21.08410000000002
  0
LINE
  5
143
100
AcDbEntity
  8
0
  6
ByLayer
 62
    0
370
   -1
100
AcDbLine
 10
159.212575
 20
21.08410000000002
 11
159.212575
 21
35.08350000000002
  0
LINE
  5
144
100
AcDbEntity
  8
0
  6
ByLayer
 62
    0
370
   -1
100
AcDbLine
 10
140.162575
 20
35.08350000000002
 11
154.162575
 21
35.08350000000002
  0
LINE
  5
145
100
AcDbEntity
  8
0
  6
ByLayer
 62
    0
370
   -1
100
AcDbLine
 10
154.162575
 20
35.08350000000002
 11
154.162575
 21
21.08410000000002
  0
LINE
  5
146
100
AcDbEntity
  8
0
  6
ByLayer
 62
    0
370
   -1
100
AcDbLine
 10
154.162575
 20
21.08410000000002
 11
140.162575
 21
21.08410000000002
  0
LINE
  5
147
100
AcDbEntity
  8
0
  6
ByLayer
 62
    0
370
   -1
100
AcDbLine
 10
140.162575
 20
21.08410000000002
 11
140.162575
 21
35.08350000000002
  0
LINE
  5
148
100
AcDbEntity
  8
0
  6
ByLayer
 62
    0
370
   -1
100
AcDbLine
 10
121.112575
 20
35.08350000000002
 11
135.112575
 21
35.08350000000002
  0
LINE
  5
149
100
AcDbEntity
  8
0
  6
ByLayer
 62
    0
370
   -1
100
AcDbLine
 10
135.112575
 20
35.08350000000002
 11
135.112575
 21
21.08410000000002
  0
LINE
  5
14A
100
AcDbEntity
  8
0
  6
ByLayer
 62
    0
370
   -1
100
AcDbLine
 10
135.112575
 20
21.08410000000002
 11
121.112575
 21
21.08410000000002
  0
LINE
  5
14B
100
AcDbEntity
  8
0
  6
ByLayer
 62
    0
370
   -1
100
AcDbLine
 10
121.112575
 20
21.08410000000002
 11
121.112575
 21
35.08350000000002
  0
LINE
  5
14C
100
AcDbEntity
  8
0
  6
ByLayer
 62
    0
370
   -1
100
AcDbLine
 10
102.062575
 20
35.08350000000002
 11
116.062575
 21
35.08350000000002
  0
LINE
  5
14D
100
AcDbEntity
  8
0
  6
ByLayer
 62
    0
370
   -1
100
AcDbLine
 10
116.062575
 20
35.08350000000002
 11
116.062575
 21
21.08410000000002
  0
LINE
  5
14E
100
AcDbEntity
  8
0
  6
ByLayer
 62
    0
370
   -1
100
AcDbLine
 10
116.062575
 20
21.08410000000002
 11
102.062575
 21
21.08410000000002
  0
LINE
  5
14F
100
AcDbEntity
  8
0
  6
ByLayer
 62
    0
370
   -1
100
AcDbLine
 10
102.062575
 20
21.08410000000002
 11
102.062575
 21
35.08350000000002
  0
LINE
  5
150
100
AcDbEntity
  8
0
  6
ByLayer
 62
    0
370
   -1
100
AcDbLine
 10
83.01277500000002
 20
35.08350000000002
 11
97.012075
 21
35.08350000000002
  0
LINE
  5
151
100
AcDbEntity
  8
0
  6
ByLayer
 62
    0
370
   -1
100
AcDbLine
 10
97.012075
 20
35.08350000000002
 11
97.012075
 21
21.08410000000002
  0
LINE
  5
152
100
AcDbEntity
  8
0
  6
ByLayer
 62
    0
370
   -1
100
AcDbLine
 10
97.012075
 20
21.08410000000002
 11
83.01277500000002
 21
21.08410000000002
  0
LINE
  5
153
100
AcDbEntity
  8
0
  6
ByLayer
 62
    0
370
   -1
100
AcDbLine
 10
83.01277500000002
 20
21.08410000000002
 11
83.01277500000002
 21
35.08350000000002
  0
LINE
  5
154
100
AcDbEntity
  8
0
  6
ByLayer
 62
    0
370
   -1
100
AcDbLine
 10
63.96277500000002
 20
35.08350000000002
 11
77.96207500000001
 21
35.08350000000002
  0
LINE
  5
155
100
AcDbEntity
  8
0
  6
ByLayer
 62
    0
370
   -1
100
AcDbLine
 10
77.96207500000001
 20
35.08350000000002
 11
77.96207500000001
 21
21.08410000000002
  0
LINE
  5
156
100
AcDbEntity
  8
0
  6
ByLayer
 62
    0
370
   -1
100
AcDbLine
 10
77.96207500000001
 20
21.08410000000002
 11
63.96277500000002
 21
21.08410000000002
  0
LINE
  5
157
100
AcDbEntity
  8
0
  6
ByLayer
 62
    0
370
   -1
100
AcDbLine
 10
63.96277500000002
 20
21.08410000000002
 11
63.96277500000002
 21
35.08350000000002
  0
LINE
  5
158
100
AcDbEntity
  8
0
  6
ByLayer
 62
    0
370
   -1
100
AcDbLine
 10
44.91277500000001
 20
35.08350000000002
 11
58.91207500000002
 21
35.08350000000002
  0
LINE
  5
159
100
AcDbEntity
  8
0
  6
ByLayer
 62
    0
370
   -1
100
AcDbLine
 10
58.91207500000002
 20
35.08350000000002
 11
58.91207500000002
 21
21.08410000000002
  0
LINE
  5
15A
100
AcDbEntity
  8
0
  6
ByLayer
 62
    0
370
   -1
100
AcDbLine
 10
58.91207500000002
 20
21.08410000000002
 11
44.91277500000001
 21
21.08410000000002
  0
LINE
  5
15B
100
AcDbEntity
  8
0
  6
ByLayer
 62
    0
370
   -1
100
AcDbLine
 10
44.91277500000001
 20
21.08410000000002
 11
44.91277500000001
 21
35.08350000000002
  0
LINE
  5
15C
100
AcDbEntity
  8
0
  6
ByLayer
 62
    0
370
   -1
100
AcDbLine
 10
263.987575
 20
73.18360000000001
 11
263.987575
 21
59.18430000000001
  0
LINE
  5
15D
100
AcDbEntity
  8
0
  6
ByLayer
 62
    0
370
   -1
100
AcDbLine
 10
263.987575
 20
59.18430000000001
 11
266.367575
 21
59.18430000000001
  0
LINE
  5
15E
100
AcDbEntity
  8
0
  6
ByLayer
 62
    0
370
   -1
100
AcDbLine
 10
266.367575
 20
59.18430000000001
 11
266.367575
 21
54.13360000000002
  0
LINE
  5
15F
100
AcDbEntity
  8
0
  6
ByLayer
 62
    0
370
   -1
100
AcDbLine
 10
266.367575
 20
54.13360000000002
 11
244.937575
 21
54.13360000000002
  0
LINE
  5
160
100
AcDbEntity
  8
0
  6
ByLayer
 62
    0
370
   -1
100
AcDbLine
 10
244.937575
 20
54.13360000000002
 11
244.937575
 21
40.13430000000002
  0
LINE
  5
161
100
AcDbEntity
  8
0
  6
ByLayer
 62
    0
370
   -1
100
AcDbLine
 10
244.937575
 20
40.13430000000002
 11
250.2925750000001
 21
40.13430000000002
  0
LINE
  5
162
100
AcDbEntity
  8
0
  6
ByLayer
 62
    0
370
   -1
100
AcDbLine
 10
250.2925750000001
 20
40.13430000000002
 11
250.2925750000001
 21
39.16410000000002
  0
LINE
  5
163
100
AcDbEntity
  8
0
  6
ByLayer
 62
    0
370
   -1
100
AcDbLine
 10
250.2925750000001
 20
39.16410000000002
 11
253.591575
 21
39.16410000000002
  0
LINE
  5
164
100
AcDbEntity
  8
0
  6
ByLayer
 62
    0
370
   -1
100
AcDbLine
 10
253.591575
 20
39.16410000000002
 11
253.591575
 21
40.13430000000002
  0
LINE
  5
165
100
AcDbEntity
  8
0
  6
ByLayer
 62
    0
370
   -1
100
AcDbLine
 10
253.591575
 20
40.13430000000002
 11
270.843575
 21
40.13430000000002
  0
LINE
  5
166
100
AcDbEntity
  8
0
  6
ByLayer
 62
    0
370
   -1
100
AcDbLine
 10
270.843575
 20
40.13430000000002
 11
270.843575
 21
41.38420000000001
  0
LINE
  5
167
100
AcDbEntity
  8
0
  6
ByLayer
 62
    0
370
   -1
100
AcDbLine
 10
270.843575
 20
41.38420000000001
 11
272.367575
 21
41.38420000000001
  0
LINE
  5
168
100
AcDbEntity
  8
0
  6
ByLayer
 62
    0
370
   -1
100
AcDbLine
 10
272.367575
 20
41.38420000000001
 11
272.367575
 21
40.36430000000001
  0
LINE
  5
169
100
AcDbEntity
  8
0
  6
ByLayer
 62
    0
370
   -1
100
AcDbLine
 10
272.367575
 20
40.36430000000001
 11
274.092575
 21
40.36430000000001
  0
LINE
  5
16A
100
AcDbEntity
  8
0
  6
ByLayer
 62
    0
370
   -1
100
AcDbLine
 10
274.092575
 20
40.36430000000001
 11
274.092575
 21
39.16410000000002
  0
LINE
  5
16B
100
AcDbEntity
  8
0
  6
ByLayer
 62
    0
370
   -1
100
AcDbLine
 10
274.092575
 20
39.16410000000002
 11
277.3935750000001
 21
39.16410000000002
  0
LINE
  5
16C
100
AcDbEntity
  8
0
  6
ByLayer
 62
    0
370
   -1
100
AcDbLine
 10
277.3935750000001
 20
39.16410000000002
 11
277.3935750000001
 21
40.36430000000001
  0
LINE
  5
16D
100
AcDbEntity
  8
0
  6
ByLayer
 62
    0
370
   -1
100
AcDbLine
 10
277.3935750000001
 20
40.36430000000001
 11
279.118575
 21
40.36430000000001
  0
LINE
  5
16E
100
AcDbEntity
  8
0
  6
ByLayer
 62
    0
370
   -1
100
AcDbLine
 10
279.118575
 20
40.36430000000001
 11
279.118575
 21
46.63420000000001
  0
LINE
  5
16F
100
AcDbEntity
  8
0
  6
ByLayer
 62
    0
370
   -1
100
AcDbLine
 10
279.118575
 20
46.63420000000001
 11
279.942575
 21
46.63420000000001
  0
LINE
  5
170
100
AcDbEntity
  8
0
  6
ByLayer
 62
    0
370
   -1
100
AcDbLine
 10
279.942575
 20
46.63420000000001
 11
279.942575
 21
49.43310000000002
  0
LINE
  5
171
100
AcDbEntity
  8
0
  6
ByLayer
 62
    0
370
   -1
100
AcDbLine
 10
279.942575
 20
49.43310000000002
 11
279.118575
 21
49.43310000000002
  0
LINE
  5
172
100
AcDbEntity
  8
0
  6
ByLayer
 62
    0
370
   -1
100
AcDbLine
 10
279.118575
 20
49.43310000000002
 11
279.118575
 21
49.65930000000002
  0
LINE
  5
173
100
AcDbEntity
  8
0
  6
ByLayer
 62
    0
370
   -1
100
AcDbLine
 10
279.118575
 20
49.65930000000002
 11
280.368575
 21
49.65930000000002
  0
LINE
  5
174
100
AcDbEntity
  8
0
  6
ByLayer
 62
    0
370
   -1
100
AcDbLine
 10
280.368575
 20
49.65930000000002
 11
280.368575
 21
63.65860000000002
  0
LINE
  5
175
100
AcDbEntity
  8
0
  6
ByLayer
 62
    0
370
   -1
100
AcDbLine
 10
280.368575
 20
63.65860000000002
 11
277.987575
 21
63.65860000000002
  0
LINE
  5
176
100
AcDbEntity
  8
0
  6
ByLayer
 62
    0
370
   -1
100
AcDbLine
 10
277.987575
 20
63.65860000000002
 11
277.987575
 21
65.18400000000001
  0
LINE
  5
177
100
AcDbEntity
  8
0
  6
ByLayer
 62
    0
370
   -1
100
AcDbLine
 10
277.987575
 20
65.18400000000001
 11
278.897575
 21
65.18400000000001
  0
LINE
  5
178
100
AcDbEntity
  8
0
  6
ByLayer
 62
    0
370
   -1
100
AcDbLine
 10
278.897575
 20
65.18400000000001
 11
278.897575
 21
71.93370000000002
  0
LINE
  5
179
100
AcDbEntity
  8
0
  6
ByLayer
 62
    0
370
   -1
100
AcDbLine
 10
278.897575
 20
71.93370000000002
 11
277.987575
 21
71.93370000000002
  0
LINE
  5
17A
100
AcDbEntity
  8
0
  6
ByLayer
 62
    0
370
   -1
100
AcDbLine
 10
277.987575
 20
71.93370000000002
 11
277.987575
 21
73.18360000000001
  0
LINE
  5
17B
100
AcDbEntity
  8
0
  6
ByLayer
 62
    0
370
   -1
100
AcDbLine
 10
277.987575
 20
73.18360000000001
 11
263.987575
 21
73.18360000000001
  0
LINE
  5
17C
100
AcDbEntity
  8
0
  6
ByLayer
 62
    0
370
   -1
100
AcDbLine
 10
225.887575
 20
54.13360000000002
 11
239.887575
 21
54.13360000000002
  0
LINE
  5
17D
100
AcDbEntity
  8
0
  6
ByLayer
 62
    0
370
   -1
100
AcDbLine
 10
239.887575
 20
54.13360000000002
 11
239.887575
 21
40.13430000000002
  0
LINE
  5
17E
100
AcDbEntity
  8
0
  6
ByLayer
 62
    0
370
   -1
100
AcDbLine
 10
239.887575
 20
40.13430000000002
 11
225.887575
 21
40.13430000000002
  0
LINE
  5
17F
100
AcDbEntity
  8
0
  6
ByLayer
 62
    0
370
   -1
100
AcDbLine
 10
225.887575
 20
40.13430000000002
 11
225.887575
 21
54.13360000000002
  0
LINE
  5
180
100
AcDbEntity
  8
0
  6
ByLayer
 62
    0
370
   -1
100
AcDbLine
 10
206.837575
 20
54.13360000000002
 11
220.837575
 21
54.13360000000002
  0
LINE
  5
181
100
AcDbEntity
  8
0
  6
ByLayer
 62
    0
370
   -1
100
AcDbLine
 10
220.837575
 20
54.13360000000002
 11
220.837575
 21
40.13430000000002
  0
LINE
  5
182
100
AcDbEntity
  8
0
  6
ByLayer
 62
    0
370
   -1
100
AcDbLine
 10
220.837575
 20
40.13430000000002
 11
206.837575
 21
40.13430000000002
  0
LINE
  5
183
100
AcDbEntity
  8
0
  6
ByLayer
 62
    0
370
   -1
100
AcDbLine
 10
206.837575
 20
40.13430000000002
 11
206.837575
 21
54.13360000000002
  0
LINE
  5
184
100
AcDbEntity
  8
0
  6
ByLayer
 62
    0
370
   -1
100
AcDbLine
 10
187.787575
 20
54.13360000000002
 11
201.787575
 21
54.13360000000002
  0
LINE
  5
185
100
AcDbEntity
  8
0
  6
ByLayer
 62
    0
370
   -1
100
AcDbLine
 10
201.787575
 20
54.13360000000002
 11
201.787575
 21
40.13430000000002
  0
LINE
  5
186
100
AcDbEntity
  8
0
  6
ByLayer
 62
    0
370
   -1
100
AcDbLine
 10
201.787575
 20
40.13430000000002
 11
187.787575
 21
40.13430000000002
  0
LINE
  5
187
100
AcDbEntity
  8
0
  6
ByLayer
 62
    0
370
   -1
100
AcDbLine
 10
187.787575
 20
40.13430000000002
 11
187.787575
 21
54.13360000000002
  0
LINE
  5
188
100
AcDbEntity
  8
0
  6
ByLayer
 62
    0
370
   -1
100
AcDbLine
 10
168.737575
 20
54.13360000000002
 11
182.737575
 21
54.13360000000002
  0
LINE
  5
189
100
AcDbEntity
  8
0
  6
ByLayer
 62
    0
370
   -1
100
AcDbLine
 10
182.737575
 20
54.13360000000002
 11
182.737575
 21
40.13430000000002
  0
LINE
  5
18A
100
AcDbEntity
  8
0
  6
ByLayer
 62
    0
370
   -1
100
AcDbLine
 10
182.737575
 20
40.13430000000002
 11
168.737575
 21
40.13430000000002
  0
LINE
  5
18B
100
AcDbEntity
  8
0
  6
ByLayer
 62
    0
370
   -1
100
AcDbLine
 10
168.737575
 20
40.13430000000002
 11
168.737575
 21
54.13360000000002
  0
LINE
  5
18C
100
AcDbEntity
  8
0
  6
ByLayer
 62
    0
370
   -1
100
AcDbLine
 10
149.687575
 20
54.13360000000002
 11
163.687575
 21
54.13360000000002
  0
LINE
  5
18D
100
AcDbEntity
  8
0
  6
ByLayer
 62
    0
370
   -1
100
AcDbLine
 10
163.687575
 20
54.13360000000002
 11
163.687575
 21
40.13430000000002
  0
LINE
  5
18E
100
AcDbEntity
  8
0
  6
ByLayer
 62
    0
370
   -1
100
AcDbLine
 10
163.687575
 20
40.13430000000002
 11
149.687575
 21
40.13430000000002
  0
LINE
  5
18F
100
AcDbEntity
  8
0
  6
ByLayer
 62
    0
370
   -1
100
AcDbLine
 10
149.687575
 20
40.13430000000002
 11
149.687575
 21
54.13360000000002
  0
LINE
  5
190
100
AcDbEntity
  8
0
  6
ByLayer
 62
    0
370
   -1
100
AcDbLine
 10
130.637575
 20
54.13360000000002
 11
144.637575
 21
54.13360000000002
  0
LINE
  5
191
100
AcDbEntity
  8
0
  6
ByLayer
 62
    0
370
   -1
100
AcDbLine
 10
144.637575
 20
54.13360000000002
 11
144.637575
 21
40.13430000000002
  0
LINE
  5
192
100
AcDbEntity
  8
0
  6
ByLayer
 62
    0
370
   -1
100
AcDbLine
 10
144.637575
 20
40.13430000000002
 11
130.637575
 21
40.13430000000002
  0
LINE
  5
193
100
AcDbEntity
  8
0
  6
ByLayer
 62
    0
370
   -1
100
AcDbLine
 10
130.637575
 20
40.13430000000002
 11
130.637575
 21
54.13360000000002
  0
LINE
  5
194
100
AcDbEntity
  8
0
  6
ByLayer
 62
    0
370
   -1
100
AcDbLine
 10
111.587575
 20
54.13360000000002
 11
125.587575
 21
54.13360000000002
  0
LINE
  5
195
100
AcDbEntity
  8
0
  6
ByLayer
 62
    0
370
   -1
100
AcDbLine
 10
125.587575
 20
54.13360000000002
 11
125.587575
 21
40.13430000000002
  0
LINE
  5
196
100
AcDbEntity
  8
0
  6
ByLayer
 62
    0
370
   -1
100
AcDbLine
 10
125.587575
 20
40.13430000000002
 11
111.587575
 21
40.13430000000002
  0
LINE
  5
197
100
AcDbEntity
  8
0
  6
ByLayer
 62
    0
370
   -1
100
AcDbLine
 10
111.587575
 20
40.13430000000002
 11
111.587575
 21
54.13360000000002
  0
LINE
  5
198
100
AcDbEntity
  8
0
  6
ByLayer
 62
    0
370
   -1
100
AcDbLine
 10
92.537775
 20
54.13360000000002
 11
106.537575
 21
54.13360000000002
  0
LINE
  5
199
100
AcDbEntity
  8
0
  6
ByLayer
 62
    0
370
   -1
100
AcDbLine
 10
106.537575
 20
54.13360000000002
 11
106.537575
 21
40.13430000000002
  0
LINE
  5
19A
100
AcDbEntity
  8
0
  6
ByLayer
 62
    0
370
   -1
100
AcDbLine
 10
106.537575
 20
40.13430000000002
 11
92.537775
 21
40.13430000000002
  0
LINE
  5
19B
100
AcDbEntity
  8
0
  6
ByLayer
 62
    0
370
   -1
100
AcDbLine
 10
92.537775
 20
40.13430000000002
 11
92.537775
 21
54.13360000000002
  0
LINE
  5
19C
100
AcDbEntity
  8
0
  6
ByLayer
 62
    0
370
   -1
100
AcDbLine
 10
73.48777500000001
 20
54.13360000000002
 11
87.48707500000002
 21
54.13360000000002
  0
LINE
  5
19D
100
AcDbEntity
  8
0
  6
ByLayer
 62
    0
370
   -1
100
AcDbLine
 10
87.48707500000002
 20
54.13360000000002
 11
87.48707500000002
 21
40.13430000000002
  0
LINE
  5
19E
100
AcDbEntity
  8
0
  6
ByLayer
 62
    0
370
   -1
100
AcDbLine
 10
87.48707500000002
 20
40.13430000000002
 11
73.48777500000001
 21
40.13430000000002
  0
LINE
  5
19F
100
AcDbEntity
  8
0
  6
ByLayer
 62
    0
370
   -1
100
AcDbLine
 10
73.48777500000001
 20
40.13430000000002
 11
73.48777500000001
 21
54.13360000000002
  0
LINE
  5
1A0
100
AcDbEntity
  8
0
  6
ByLayer
 62
    0
370
   -1
100
AcDbLine
 10
54.43777500000002
 20
54.13360000000002
 11
68.43707500000002
 21
54.13360000000002
  0
LINE
  5
1A1
100
AcDbEntity
  8
0
  6
ByLayer
 62
    0
370
   -1
100
AcDbLine
 10
68.43707500000002
 20
54.13360000000002
 11
68.43707500000002
 21
40.13430000000002
  0
LINE
  5
1A2
100
AcDbEntity
  8
0
  6
ByLayer
 62
    0
370
   -1
100
AcDbLine
 10
68.43707500000002
 20
40.13430000000002
 11
54.43777500000002
 21
40.13430000000002
  0
LINE
  5
1A3
100
AcDbEntity
  8
0
  6
ByLayer
 62
    0
370
   -1
100
AcDbLine
 10
54.43777500000002
 20
40.13430000000002
 11
54.43777500000002
 21
54.13360000000002
  0
LINE
  5
1A4
100
AcDbEntity
  8
0
  6
ByLayer
 62
    0
370
   -1
100
AcDbLine
 10
35.38777500000002
 20
54.13360000000002
 11
49.38707500000001
 21
54.13360000000002
  0
LINE
  5
1A5
100
AcDbEntity
  8
0
  6
ByLayer
 62
    0
370
   -1
100
AcDbLine
 10
49.38707500000001
 20
54.13360000000002
 11
49.38707500000001
 21
40.13430000000002
  0
LINE
  5
1A6
100
AcDbEntity
  8
0
  6
ByLayer
 62
    0
370
   -1
100
AcDbLine
 10
49.38707500000001
 20
40.13430000000002
 11
35.38777500000002
 21
40.13430000000002
  0
LINE
  5
1A7
100
AcDbEntity
  8
0
  6
ByLayer
 62
    0
370
   -1
100
AcDbLine
 10
35.38777500000002
 20
40.13430000000002
 11
35.38777500000002
 21
54.13360000000002
  0
LINE
  5
1A8
100
AcDbEntity
  8
0
  6
ByLayer
 62
    0
370
   -1
100
AcDbLine
 10
4.43148500000002
 20
54.13360000000002
 11
23.19347500000001
 21
54.13360000000002
  0
LINE
  5
1A9
100
AcDbEntity
  8
0
  6
ByLayer
 62
    0
370
   -1
100
AcDbLine
 10
23.19347500000001
 20
54.13360000000002
 11
23.19347500000001
 21
40.13430000000002
  0
LINE
  5
1AA
100
AcDbEntity
  8
0
  6
ByLayer
 62
    0
370
   -1
100
AcDbLine
 10
23.19347500000001
 20
40.13430000000002
 11
4.43148500000002
 21
40.13430000000002
  0
LINE
  5
1AB
100
AcDbEntity
  8
0
  6
ByLayer
 62
    0
370
   -1
100
AcDbLine
 10
4.43148500000002
 20
40.13430000000002
 11
4.43148500000002
 21
54.13360000000002
  0
LINE
  5
1AC
100
AcDbEntity
  8
0
  6
ByLayer
 62
    0
370
   -1
100
AcDbLine
 10
330.6625750000001
 20
73.18360000000001
 11
344.6625750000001
 21
73.18360000000001
  0
LINE
  5
1AD
100
AcDbEntity
  8
0
  6
ByLayer
 62
    0
370
   -1
100
AcDbLine
 10
344.6625750000001
 20
73.18360000000001
 11
344.6625750000001
 21
59.18430000000001
  0
LINE
  5
1AE
100
AcDbEntity
  8
0
  6
ByLayer
 62
    0
370
   -1
100
AcDbLine
 10
344.6625750000001
 20
59.18430000000001
 11
330.6625750000001
 21
59.18430000000001
  0
LINE
  5
1AF
100
AcDbEntity
  8
0
  6
ByLayer
 62
    0
370
   -1
100
AcDbLine
 10
330.6625750000001
 20
59.18430000000001
 11
330.6625750000001
 21
73.18360000000001
  0
LINE
  5
1B0
100
AcDbEntity
  8
0
  6
ByLayer
 62
    0
370
   -1
100
AcDbLine
 10
311.612575
 20
73.18360000000001
 11
325.612575
 21
73.18360000000001
  0
LINE
  5
1B1
100
AcDbEntity
  8
0
  6
ByLayer
 62
    0
370
   -1
100
AcDbLine
 10
325.612575
 20
73.18360000000001
 11
325.612575
 21
59.18430000000001
  0
LINE
  5
1B2
100
AcDbEntity
  8
0
  6
ByLayer
 62
    0
370
   -1
100
AcDbLine
 10
325.612575
 20
59.18430000000001
 11
311.612575
 21
59.18430000000001
  0
LINE
  5
1B3
100
AcDbEntity
  8
0
  6
ByLayer
 62
    0
370
   -1
100
AcDbLine
 10
311.612575
 20
59.18430000000001
 11
311.612575
 21
73.18360000000001
  0
LINE
  5
1B4
100
AcDbEntity
  8
0
  6
ByLayer
 62
    0
370
   -1
100
AcDbLine
 10
292.562575
 20
73.18360000000001
 11
306.562575
 21
73.18360000000001
  0
LINE
  5
1B5
100
AcDbEntity
  8
0
  6
ByLayer
 62
    0
370
   -1
100
AcDbLine
 10
306.562575
 20
73.18360000000001
 11
306.562575
 21
59.18430000000001
  0
LINE
  5
1B6
100
AcDbEntity
  8
0
  6
ByLayer
 62
    0
370
   -1
100
AcDbLine
 10
306.562575
 20
59.18430000000001
 11
292.562575
 21
59.18430000000001
  0
LINE
  5
1B7
100
AcDbEntity
  8
0
  6
ByLayer
 62
    0
370
   -1
100
AcDbLine
 10
292.562575
 20
59.18430000000001
 11
292.562575
 21
73.18360000000001
  0
LINE
  5
1B8
100
AcDbEntity
  8
0
  6
ByLayer
 62
    0
370
   -1
100
AcDbLine
 10
240.175575
 20
73.18360000000001
 11
254.174575
 21
73.18360000000001
  0
LINE
  5
1B9
100
AcDbEntity
  8
0
  6
ByLayer
 62
    0
370
   -1
100
AcDbLine
 10
254.174575
 20
73.18360000000001
 11
254.174575
 21
59.18430000000001
  0
LINE
  5
1BA
100
AcDbEntity
  8
0
  6
ByLayer
 62
    0
370
   -1
100
AcDbLine
 10
254.174575
 20
59.18430000000001
 11
240.175575
 21
59.18430000000001
  0
LINE
  5
1BB
100
AcDbEntity
  8
0
  6
ByLayer
 62
    0
370
   -1
100
AcDbLine
 10
240.175575
 20
59.18430000000001
 11
240.175575
 21
73.18360000000001
  0
LINE
  5
1BC
100
AcDbEntity
  8
0
  6
ByLayer
 62
    0
370
   -1
100
AcDbLine
 10
221.125575
 20
73.18360000000001
 11
235.124575
 21
73.18360000000001
  0
LINE
  5
1BD
100
AcDbEntity
  8
0
  6
ByLayer
 62
    0
370
   -1
100
AcDbLine
 10
235.124575
 20
73.18360000000001
 11
235.124575
 21
59.18430000000001
  0
LINE
  5
1BE
100
AcDbEntity
  8
0
  6
ByLayer
 62
    0
370
   -1
100
AcDbLine
 10
235.124575
 20
59.18430000000001
 11
221.125575
 21
59.18430000000001
  0
LINE
  5
1BF
100
AcDbEntity
  8
0
  6
ByLayer
 62
    0
370
   -1
100
AcDbLine
 10
221.125575
 20
59.18430000000001
 11
221.125575
 21
73.18360000000001
  0
LINE
  5
1C0
100
AcDbEntity
  8
0
  6
ByLayer
 62
    0
370
   -1
100
AcDbLine
 10
202.075575
 20
73.18360000000001
 11
216.074575
 21
73.18360000000001
  0
LINE
  5
1C1
100
AcDbEntity
  8
0
  6
ByLayer
 62
    0
370
   -1
100
AcDbLine
 10
216.074575
 20
73.18360000000001
 11
216.074575
 21
59.18430000000001
  0
LINE
  5
1C2
100
AcDbEntity
  8
0
  6
ByLayer
 62
    0
370
   -1
100
AcDbLine
 10
216.074575
 20
59.18430000000001
 11
202.075575
 21
59.18430000000001
  0
LINE
  5
1C3
100
AcDbEntity
  8
0
  6
ByLayer
 62
    0
370
   -1
100
AcDbLine
 10
202.075575
 20
59.18430000000001
 11
202.075575
 21
73.18360000000001
  0
LINE
  5
1C4
100
AcDbEntity
  8
0
  6
ByLayer
 62
    0
370
   -1
100
AcDbLine
 10
183.025575
 20
73.18360000000001
 11
197.024575
 21
73.18360000000001
  0
LINE
  5
1C5
100
AcDbEntity
  8
0
  6
ByLayer
 62
    0
370
   -1
100
AcDbLine
 10
197.024575
 20
73.18360000000001
 11
197.024575
 21
59.18430000000001
  0
LINE
  5
1C6
100
AcDbEntity
  8
0
  6
ByLayer
 62
    0
370
   -1
100
AcDbLine
 10
197.024575
 20
59.18430000000001
 11
183.025575
 21
59.18430000000001
  0
LINE
  5
1C7
100
AcDbEntity
  8
0
  6
ByLayer
 62
    0
370
   -1
100
AcDbLine
 10
183.025575
 20
59.18430000000001
 11
183.025575
 21
73.18360000000001
  0
LINE
  5
1C8
100
AcDbEntity
  8
0
  6
ByLayer
 62
    0
370
   -1
100
AcDbLine
 10
163.975575
 20
73.18360000000001
 11
177.974575
 21
73.18360000000001
  0
LINE
  5
1C9
100
AcDbEntity
  8
0
  6
ByLayer
 62
    0
370
   -1
100
AcDbLine
 10
177.974575
 20
73.18360000000001
 11
177.974575
 21
59.18430000000001
  0
LINE
  5
1CA
100
AcDbEntity
  8
0
  6
ByLayer
 62
    0
370
   -1
100
AcDbLine
 10
177.974575
 20
59.18430000000001
 11
163.975575
 21
59.18430000000001
  0
LINE
  5
1CB
100
AcDbEntity
  8
0
  6
ByLayer
 62
    0
370
   -1
100
AcDbLine
 10
163.975575
 20
59.18430000000001
 11
163.975575
 21
73.18360000000001
  0
LINE
  5
1CC
100
AcDbEntity
  8
0
  6
ByLayer
 62
    0
370
   -1
100
AcDbLine
 10
144.925575
 20
73.18360000000001
 11
158.924575
 21
73.18360000000001
  0
LINE
  5
1CD
100
AcDbEntity
  8
0
  6
ByLayer
 62
    0
370
   -1
100
AcDbLine
 10
158.924575
 20
73.18360000000001
 11
158.924575
 21
59.18430000000001
  0
LINE
  5
1CE
100
AcDbEntity
  8
0
  6
ByLayer
 62
    0
370
   -1
100
AcDbLine
 10
158.924575
 20
59.18430000000001
 11
144.925575
 21
59.18430000000001
  0
LINE
  5
1CF
100
AcDbEntity
  8
0
  6
ByLayer
 62
    0
370
   -1
100
AcDbLine
 10
144.925575
 20
59.18430000000001
 11
144.925575
 21
73.18360000000001
  0
LINE
  5
1D0
100
AcDbEntity
  8
0
  6
ByLayer
 62
    0
370
   -1
100
AcDbLine
 10
125.875575
 20
73.18360000000001
 11
139.874575
 21
73.18360000000001
  0
LINE
  5
1D1
100
AcDbEntity
  8
0
  6
ByLayer
 62
    0
370
   -1
100
AcDbLine
 10
139.874575
 20
73.18360000000001
 11
139.874575
 21
59.18430000000001
  0
LINE
  5
1D2
100
AcDbEntity
  8
0
  6
ByLayer
 62
    0
370
   -1
100
AcDbLine
 10
139.874575
 20
59.18430000000001
 11
125.875575
 21
59.18430000000001
  0
LINE
  5
1D3
100
AcDbEntity
  8
0
  6
ByLayer
 62
    0
370
   -1
100
AcDbLine
 10
125.875575
 20
59.18430000000001
 11
125.875575
 21
73.18360000000001
  0
LINE
  5
1D4
100
AcDbEntity
  8
0
  6
ByLayer
 62
    0
370
   -1
100
AcDbLine
 10
106.825575
 20
73.18360000000001
 11
120.824575
 21
73.18360000000001
  0
LINE
  5
1D5
100
AcDbEntity
  8
0
  6
ByLayer
 62
    0
370
   -1
100
AcDbLine
 10
120.824575
 20
73.18360000000001
 11
120.824575
 21
59.18430000000001
  0
LINE
  5
1D6
100
AcDbEntity
  8
0
  6
ByLayer
 62
    0
370
   -1
100
AcDbLine
 10
120.824575
 20
59.18430000000001
 11
106.825575
 21
59.18430000000001
  0
LINE
  5
1D7
100
AcDbEntity
  8
0
  6
ByLayer
 62
    0
370
   -1
100
AcDbLine
 10
106.825575
 20
59.18430000000001
 11
106.825575
 21
73.18360000000001
  0
LINE
  5
1D8
100
AcDbEntity
  8
0
  6
ByLayer
 62
    0
370
   -1
100
AcDbLine
 10
87.77527500000001
 20
73.18360000000001
 11
101.774575
 21
73.18360000000001
  0
LINE
  5
1D9
100
AcDbEntity
  8
0
  6
ByLayer
 62
    0
370
   -1
100
AcDbLine
 10
101.774575
 20
73.18360000000001
 11
101.774575
 21
59.18430000000001
  0
LINE
  5
1DA
100
AcDbEntity
  8
0
  6
ByLayer
 62
    0
370
   -1
100
AcDbLine
 10
101.774575
 20
59.18430000000001
 11
87.77527500000001
 21
59.18430000000001
  0
LINE
  5
1DB
100
AcDbEntity
  8
0
  6
ByLayer
 62
    0
370
   -1
100
AcDbLine
 10
87.77527500000001
 20
59.18430000000001
 11
87.77527500000001
 21
73.18360000000001
  0
LINE
  5
1DC
100
AcDbEntity
  8
0
  6
ByLayer
 62
    0
370
   -1
100
AcDbLine
 10
68.72527500000002
 20
73.18360000000001
 11
82.724575
 21
73.18360000000001
  0
LINE
  5
1DD
100
AcDbEntity
  8
0
  6
ByLayer
 62
    0
370
   -1
100
AcDbLine
 10
82.724575
 20
73.18360000000001
 11
82.724575
 21
59.18430000000001
  0
LINE
  5
1DE
100
AcDbEntity
  8
0
  6
ByLayer
 62
    0
370
   -1
100
AcDbLine
 10
82.724575
 20
59.18430000000001
 11
68.72527500000002
 21
59.18430000000001
  0
LINE
  5
1DF
100
AcDbEntity
  8
0
  6
ByLayer
 62
    0
370
   -1
100
AcDbLine
 10
68.72527500000002
 20
59.18430000000001
 11
68.72527500000002
 21
73.18360000000001
  0
LINE
  5
1E0
100
AcDbEntity
  8
0
  6
ByLayer
 62
    0
370
   -1
100
AcDbLine
 10
49.67527500000001
 20
73.18360000000001
 11
63.67457500000002
 21
73.18360000000001
  0
LINE
  5
1E1
100
AcDbEntity
  8
0
  6
ByLayer
 62
    0
370
   -1
100
AcDbLine
 10
63.67457500000002
 20
73.18360000000001
 11
63.67457500000002
 21
59.18430000000001
  0
LINE
  5
1E2
100
AcDbEntity
  8
0
  6
ByLayer
 62
    0
370
   -1
100
AcDbLine
 10
63.67457500000002
 20
59.18430000000001
 11
49.67527500000001
 21
59.18430000000001
  0
LINE
  5
1E3
100
AcDbEntity
  8
0
  6
ByLayer
 62
    0
370
   -1
100
AcDbLine
 10
49.67527500000001
 20
59.18430000000001
 11
49.67527500000001
 21
73.18360000000001
  0
LINE
  5
1E4
100
AcDbEntity
  8
0
  6
ByLayer
 62
    0
370
   -1
100
AcDbLine
 10
30.62527500000002
 20
73.18360000000001
 11
44.62457500000002
 21
73.18360000000001
  0
LINE
  5
1E5
100
AcDbEntity
  8
0
  6
ByLayer
 62
    0
370
   -1
100
AcDbLine
 10
44.62457500000002
 20
73.18360000000001
 11
44.62457500000002
 21
59.18430000000001
  0
LINE
  5
1E6
100
AcDbEntity
  8
0
  6
ByLayer
 62
    0
370
   -1
100
AcDbLine
 10
44.62457500000002
 20
59.18430000000001
 11
30.62527500000002
 21
59.18430000000001
  0
LINE
  5
1E7
100
AcDbEntity
  8
0
  6
ByLayer
 62
    0
370
   -1
100
AcDbLine
 10
30.62527500000002
 20
59.18430000000001
 11
30.62527500000002
 21
73.18360000000001
  0
LINE
  5
1E8
100
AcDbEntity
  8
0
  6
ByLayer
 62
    0
370
   -1
100
AcDbLine
 10
6.812735000000011
 20
73.18360000000001
 11
20.81227500000001
 21
73.18360000000001
  0
LINE
  5
1E9
100
AcDbEntity
  8
0
  6
ByLayer
 62
    0
370
   -1
100
AcDbLine
 10
20.81227500000001
 20
73.18360000000001
 11
20.81227500000001
 21
59.18430000000001
  0
LINE
  5
1EA
100
AcDbEntity
  8
0
  6
ByLayer
 62
    0
370
   -1
100
AcDbLine
 10
20.81227500000001
 20
59.18430000000001
 11
6.812735000000011
 21
59.18430000000001
  0
LINE
  5
1EB
100
AcDbEntity
  8
0
  6
ByLayer
 62
    0
370
   -1
100
AcDbLine
 10
6.812735000000011
 20
59.18430000000001
 11
6.812735000000011
 21
73.18360000000001
  0
LINE
  5
1EC
100
AcDbEntity
  8
0
  6
ByLayer
 62
    0
370
   -1
100
AcDbLine
 10
249.7005750000001
 20
92.2336
 11
249.7005750000001
 21
78.23430000000002
  0
LINE
  5
1ED
100
AcDbEntity
  8
0
  6
ByLayer
 62
    0
370
   -1
100
AcDbLine
 10
249.7005750000001
 20
78.23430000000002
 11
252.673575
 21
78.23430000000002
  0
LINE
  5
1EE
100
AcDbEntity
  8
0
  6
ByLayer
 62
    0
370
   -1
100
AcDbLine
 10
252.673575
 20
78.23430000000002
 11
252.673575
 21
77.26410000000001
  0
LINE
  5
1EF
100
AcDbEntity
  8
0
  6
ByLayer
 62
    0
370
   -1
100
AcDbLine
 10
252.673575
 20
77.26410000000001
 11
255.974575
 21
77.26410000000001
  0
LINE
  5
1F0
100
AcDbEntity
  8
0
  6
ByLayer
 62
    0
370
   -1
100
AcDbLine
 10
255.974575
 20
77.26410000000001
 11
255.974575
 21
78.23430000000002
  0
LINE
  5
1F1
100
AcDbEntity
  8
0
  6
ByLayer
 62
    0
370
   -1
100
AcDbLine
 10
255.974575
 20
78.23430000000002
 11
276.475575
 21
78.23430000000002
  0
LINE
  5
1F2
100
AcDbEntity
  8
0
  6
ByLayer
 62
    0
370
   -1
100
AcDbLine
 10
276.475575
 20
78.23430000000002
 11
276.475575
 21
77.26410000000001
  0
LINE
  5
1F3
100
AcDbEntity
  8
0
  6
ByLayer
 62
    0
370
   -1
100
AcDbLine
 10
276.475575
 20
77.26410000000001
 11
279.774575
 21
77.26410000000001
  0
LINE
  5
1F4
100
AcDbEntity
  8
0
  6
ByLayer
 62
    0
370
   -1
100
AcDbLine
 10
279.774575
 20
77.26410000000001
 11
279.774575
 21
78.23430000000002
  0
LINE
  5
1F5
100
AcDbEntity
  8
0
  6
ByLayer
 62
    0
370
   -1
100
AcDbLine
 10
279.774575
 20
78.23430000000002
 11
282.749575
 21
78.23430000000002
  0
LINE
  5
1F6
100
AcDbEntity
  8
0
  6
ByLayer
 62
    0
370
   -1
100
AcDbLine
 10
282.749575
 20
78.23430000000002
 11
282.749575
 21
92.2336
  0
LINE
  5
1F7
100
AcDbEntity
  8
0
  6
ByLayer
 62
    0
370
   -1
100
AcDbLine
 10
282.749575
 20
92.2336
 11
249.7005750000001
 21
92.2336
  0
LINE
  5
1F8
100
AcDbEntity
  8
0
  6
ByLayer
 62
    0
370
   -1
100
AcDbLine
 10
330.6625750000001
 20
92.2336
 11
344.6625750000001
 21
92.2336
  0
LINE
  5
1F9
100
AcDbEntity
  8
0
  6
ByLayer
 62
    0
370
   -1
100
AcDbLine
 10
344.6625750000001
 20
92.2336
 11
344.6625750000001
 21
78.23430000000002
  0
LINE
  5
1FA
100
AcDbEntity
  8
0
  6
ByLayer
 62
    0
370
   -1
100
AcDbLine
 10
344.6625750000001
 20
78.23430000000002
 11
330.6625750000001
 21
78.23430000000002
  0
LINE
  5
1FB
100
AcDbEntity
  8
0
  6
ByLayer
 62
    0
370
   -1
100
AcDbLine
 10
330.6625750000001
 20
78.23430000000002
 11
330.6625750000001
 21
92.2336
  0
LINE
  5
1FC
100
AcDbEntity
  8
0
  6
ByLayer
 62
    0
370
   -1
100
AcDbLine
 10
311.612575
 20
92.2336
 11
325.612575
 21
92.2336
  0
LINE
  5
1FD
100
AcDbEntity
  8
0
  6
ByLayer
 62
    0
370
   -1
100
AcDbLine
 10
325.612575
 20
92.2336
 11
325.612575
 21
78.23430000000002
  0
LINE
  5
1FE
100
AcDbEntity
  8
0
  6
ByLayer
 62
    0
370
   -1
100
AcDbLine
 10
325.612575
 20
78.23430000000002
 11
311.612575
 21
78.23430000000002
  0
LINE
  5
1FF
100
AcDbEntity
  8
0
  6
ByLayer
 62
    0
370
   -1
100
AcDbLine
 10
311.612575
 20
78.23430000000002
 11
311.612575
 21
92.2336
  0
LINE
  5
200
100
AcDbEntity
  8
0
  6
ByLayer
 62
    0
370
   -1
100
AcDbLine
 10
292.562575
 20
92.2336
 11
306.562575
 21
92.2336
  0
LINE
  5
201
100
AcDbEntity
  8
0
  6
ByLayer
 62
    0
370
   -1
100
AcDbLine
 10
306.562575
 20
92.2336
 11
306.562575
 21
78.23430000000002
  0
LINE
  5
202
100
AcDbEntity
  8
0
  6
ByLayer
 62
    0
370
   -1
100
AcDbLine
 10
306.562575
 20
78.23430000000002
 11
292.562575
 21
78.23430000000002
  0
LINE
  5
203
100
AcDbEntity
  8
0
  6
ByLayer
 62
    0
370
   -1
100
AcDbLine
 10
292.562575
 20
78.23430000000002
 11
292.562575
 21
92.2336
  0
LINE
  5
204
100
AcDbEntity
  8
0
  6
ByLayer
 62
    0
370
   -1
100
AcDbLine
 10
230.650575
 20
92.2336
 11
244.649575
 21
92.2336
  0
LINE
  5
205
100
AcDbEntity
  8
0
  6
ByLayer
 62
    0
370
   -1
100
AcDbLine
 10
244.649575
 20
92.2336
 11
244.649575
 21
78.23430000000002
  0
LINE
  5
206
100
AcDbEntity
  8
0
  6
ByLayer
 62
    0
370
   -1
100
AcDbLine
 10
244.649575
 20
78.23430000000002
 11
230.650575
 21
78.23430000000002
  0
LINE
  5
207
100
AcDbEntity
  8
0
  6
ByLayer
 62
    0
370
   -1
100
AcDbLine
 10
230.650575
 20
78.23430000000002
 11
230.650575
 21
92.2336
  0
LINE
  5
208
100
AcDbEntity
  8
0
  6
ByLayer
 62
    0
370
   -1
100
AcDbLine
 10
211.600575
 20
92.2336
 11
225.599575
 21
92.2336
  0
LINE
  5
209
100
AcDbEntity
  8
0
  6
ByLayer
 62
    0
370
   -1
100
AcDbLine
 10
225.599575
 20
92.2336
 11
225.599575
 21
78.23430000000002
  0
LINE
  5
20A
100
AcDbEntity
  8
0
  6
ByLayer
 62
    0
370
   -1
100
AcDbLine
 10
225.599575
 20
78.23430000000002
 11
211.600575
 21
78.23430000000002
  0
LINE
  5
20B
100
AcDbEntity
  8
0
  6
ByLayer
 62
    0
370
   -1
100
AcDbLine
 10
211.600575
 20
78.23430000000002
 11
211.600575
 21
92.2336
  0
LINE
  5
20C
100
AcDbEntity
  8
0
  6
ByLayer
 62
    0
370
   -1
100
AcDbLine
 10
192.550575
 20
92.2336
 11
206.549575
 21
92.2336
  0
LINE
  5
20D
100
AcDbEntity
  8
0
  6
ByLayer
 62
    0
370
   -1
100
AcDbLine
 10
206.549575
 20
92.2336
 11
206.549575
 21
78.23430000000002
  0
LINE
  5
20E
100
AcDbEntity
  8
0
  6
ByLayer
 62
    0
370
   -1
100
AcDbLine
 10
206.549575
 20
78.23430000000002
 11
192.550575
 21
78.23430000000002
  0
LINE
  5
20F
100
AcDbEntity
  8
0
  6
ByLayer
 62
    0
370
   -1
100
AcDbLine
 10
192.550575
 20
78.23430000000002
 11
192.550575
 21
92.2336
  0
LINE
  5
210
100
AcDbEntity
  8
0
  6
ByLayer
 62
    0
370
   -1
100
AcDbLine
 10
173.500575
 20
92.2336
 11
187.499575
 21
92.2336
  0
LINE
  5
211
100
AcDbEntity
  8
0
  6
ByLayer
 62
    0
370
   -1
100
AcDbLine
 10
187.499575
 20
92.2336
 11
187.499575
 21
78.23430000000002
  0
LINE
  5
212
100
AcDbEntity
  8
0
  6
ByLayer
 62
    0
370
   -1
100
AcDbLine
 10
187.499575
 20
78.23430000000002
 11
173.500575
 21
78.23430000000002
  0
LINE
  5
213
100
AcDbEntity
  8
0
  6
ByLayer
 62
    0
370
   -1
100
AcDbLine
 10
173.500575
 20
78.23430000000002
 11
173.500575
 21
92.2336
  0
LINE
  5
214
100
AcDbEntity
  8
0
  6
ByLayer
 62
    0
370
   -1
100
AcDbLine
 10
154.450575
 20
92.2336
 11
168.449575
 21
92.2336
  0
LINE
  5
215
100
AcDbEntity
  8
0
  6
ByLayer
 62
    0
370
   -1
100
AcDbLine
 10
168.449575
 20
92.2336
 11
168.449575
 21
78.23430000000002
  0
LINE
  5
216
100
AcDbEntity
  8
0
  6
ByLayer
 62
    0
370
   -1
100
AcDbLine
 10
168.449575
 20
78.23430000000002
 11
154.450575
 21
78.23430000000002
  0
LINE
  5
217
100
AcDbEntity
  8
0
  6
ByLayer
 62
    0
370
   -1
100
AcDbLine
 10
154.450575
 20
78.23430000000002
 11
154.450575
 21
92.2336
  0
LINE
  5
218
100
AcDbEntity
  8
0
  6
ByLayer
 62
    0
370
   -1
100
AcDbLine
 10
135.400575
 20
92.2336
 11
149.399575
 21
92.2336
  0
LINE
  5
219
100
AcDbEntity
  8
0
  6
ByLayer
 62
    0
370
   -1
100
AcDbLine
 10
149.399575
 20
92.2336
 11
149.399575
 21
78.23430000000002
  0
LINE
  5
21A
100
AcDbEntity
  8
0
  6
ByLayer
 62
    0
370
   -1
100
AcDbLine
 10
149.399575
 20
78.23430000000002
 11
135.400575
 21
78.23430000000002
  0
LINE
  5
21B
100
AcDbEntity
  8
0
  6
ByLayer
 62
    0
370
   -1
100
AcDbLine
 10
135.400575
 20
78.23430000000002
 11
135.400575
 21
92.2336
  0
LINE
  5
21C
100
AcDbEntity
  8
0
  6
ByLayer
 62
    0
370
   -1
100
AcDbLine
 10
116.348575
 20
92.2336
 11
130.349575
 21
92.2336
  0
LINE
  5
21D
100
AcDbEntity
  8
0
  6
ByLayer
 62
    0
370
   -1
100
AcDbLine
 10
130.349575
 20
92.2336
 11
130.349575
 21
78.23430000000002
  0
LINE
  5
21E
100
AcDbEntity
  8
0
  6
ByLayer
 62
    0
370
   -1
100
AcDbLine
 10
130.349575
 20
78.23430000000002
 11
116.348575
 21
78.23430000000002
  0
LINE
  5
21F
100
AcDbEntity
  8
0
  6
ByLayer
 62
    0
370
   -1
100
AcDbLine
 10
116.348575
 20
78.23430000000002
 11
116.348575
 21
92.2336
  0
LINE
  5
220
100
AcDbEntity
  8
0
  6
ByLayer
 62
    0
370
   -1
100
AcDbLine
 10
97.298875
 20
92.2336
 11
111.299575
 21
92.2336
  0
LINE
  5
221
100
AcDbEntity
  8
0
  6
ByLayer
 62
    0
370
   -1
100
AcDbLine
 10
111.299575
 20
92.2336
 11
111.299575
 21
78.23430000000002
  0
LINE
  5
222
100
AcDbEntity
  8
0
  6
ByLayer
 62
    0
370
   -1
100
AcDbLine
 10
111.299575
 20
78.23430000000002
 11
97.298875
 21
78.23430000000002
  0
LINE
  5
223
100
AcDbEntity
  8
0
  6
ByLayer
 62
    0
370
   -1
100
AcDbLine
 10
97.298875
 20
78.23430000000002
 11
97.298875
 21
92.2336
  0
LINE
  5
224
100
AcDbEntity
  8
0
  6
ByLayer
 62
    0
370
   -1
100
AcDbLine
 10
78.250275
 20
92.2336
 11
92.24957499999999
 21
92.2336
  0
LINE
  5
225
100
AcDbEntity
  8
0
  6
ByLayer
 62
    0
370
   -1
100
AcDbLine
 10
92.24957499999999
 20
92.2336
 11
92.24957499999999
 21
78.23430000000002
  0
LINE
  5
226
100
AcDbEntity
  8
0
  6
ByLayer
 62
    0
370
   -1
100
AcDbLine
 10
92.24957499999999
 20
78.23430000000002
 11
78.250275
 21
78.23430000000002
  0
LINE
  5
227
100
AcDbEntity
  8
0
  6
ByLayer
 62
    0
370
   -1
100
AcDbLine
 10
78.250275
 20
78.23430000000002
 11
78.250275
 21
92.2336
  0
LINE
  5
228
100
AcDbEntity
  8
0
  6
ByLayer
 62
    0
370
   -1
100
AcDbLine
 10
59.20027500000002
 20
92.2336
 11
73.19957500000002
 21
92.2336
  0
LINE
  5
229
100
AcDbEntity
  8
0
  6
ByLayer
 62
    0
370
   -1
100
AcDbLine
 10
73.19957500000002
 20
92.2336
 11
73.19957500000002
 21
78.23430000000002
  0
LINE
  5
22A
100
AcDbEntity
  8
0
  6
ByLayer
 62
    0
370
   -1
100
AcDbLine
 10
73.19957500000002
 20
78.23430000000002
 11
59.20027500000002
 21
78.23430000000002
  0
LINE
  5
22B
100
AcDbEntity
  8
0
  6
ByLayer
 62
    0
370
   -1
100
AcDbLine
 10
59.20027500000002
 20
78.23430000000002
 11
59.20027500000002
 21
92.2336
  0
LINE
  5
22C
100
AcDbEntity
  8
0
  6
ByLayer
 62
    0
370
   -1
100
AcDbLine
 10
40.15027500000002
 20
92.2336
 11
54.14957500000001
 21
92.2336
  0
LINE
  5
22D
100
AcDbEntity
  8
0
  6
ByLayer
 62
    0
370
   -1
100
AcDbLine
 10
54.14957500000001
 20
92.2336
 11
54.14957500000001
 21
78.23430000000002
  0
LINE
  5
22E
100
AcDbEntity
  8
0
  6
ByLayer
 62
    0
370
   -1
100
AcDbLine
 10
54.14957500000001
 20
78.23430000000002
 11
40.15027500000002
 21
78.23430000000002
  0
LINE
  5
22F
100
AcDbEntity
  8
0
  6
ByLayer
 62
    0
370
   -1
100
AcDbLine
 10
40.15027500000002
 20
78.23430000000002
 11
40.15027500000002
 21
92.2336
  0
LINE
  5
230
100
AcDbEntity
  8
0
  6
ByLayer
 62
    0
370
   -1
100
AcDbLine
 10
21.10027500000001
 20
92.2336
 11
35.09957500000002
 21
92.2336
  0
LINE
  5
231
100
AcDbEntity
  8
0
  6
ByLayer
 62
    0
370
   -1
100
AcDbLine
 10
35.09957500000002
 20
92.2336
 11
35.09957500000002
 21
78.23430000000002
  0
LINE
  5
232
100
AcDbEntity
  8
0
  6
ByLayer
 62
    0
370
   -1
100
AcDbLine
 10
35.09957500000002
 20
78.23430000000002
 11
21.10027500000001
 21
78.23430000000002
  0
LINE
  5
233
100
AcDbEntity
  8
0
  6
ByLayer
 62
    0
370
   -1
100
AcDbLine
 10
21.10027500000001
 20
78.23430000000002
 11
21.10027500000001
 21
92.2336
  0
LINE
  5
234
100
AcDbEntity
  8
0
  6
ByLayer
 62
    0
370
   -1
100
AcDbLine
 10
2.050225000000021
 20
92.2336
 11
16.04977500000001
 21
92.2336
  0
LINE
  5
235
100
AcDbEntity
  8
0
  6
ByLayer
 62
    0
370
   -1
100
AcDbLine
 10
16.04977500000001
 20
92.2336
 11
16.04977500000001
 21
78.23430000000002
  0
LINE
  5
236
100
AcDbEntity
  8
0
  6
ByLayer
 62
    0
370
   -1
100
AcDbLine
 10
16.04977500000001
 20
78.23430000000002
 11
2.050225000000021
 21
78.23430000000002
  0
LINE
  5
237
100
AcDbEntity
  8
0
  6
ByLayer
 62
    0
370
   -1
100
AcDbLine
 10
2.050225000000021
 20
78.23430000000002
 11
2.050225000000021
 21
92.2336
  0
LINE
  5
238
100
AcDbEntity
  8
0
  6
ByLayer
 62
    0
370
   -1
100
AcDbLine
 10
330.6625750000001
 20
120.8085
 11
344.6625750000001
 21
120.8085
  0
LINE
  5
239
100
AcDbEntity
  8
0
  6
ByLayer
 62
    0
370
   -1
100
AcDbLine
 10
344.6625750000001
 20
120.8085
 11
344.6625750000001
 21
106.8095
  0
LINE
  5
23A
100
AcDbEntity
  8
0
  6
ByLayer
 62
    0
370
   -1
100
AcDbLine
 10
344.6625750000001
 20
106.8095
 11
330.6625750000001
 21
106.8095
  0
LINE
  5
23B
100
AcDbEntity
  8
0
  6
ByLayer
 62
    0
370
   -1
100
AcDbLine
 10
330.6625750000001
 20
106.8095
 11
330.6625750000001
 21
120.8085
  0
LINE
  5
23C
100
AcDbEntity
  8
0
  6
ByLayer
 62
    0
370
   -1
100
AcDbLine
 10
311.612575
 20
120.8085
 11
325.612575
 21
120.8085
  0
LINE
  5
23D
100
AcDbEntity
  8
0
  6
ByLayer
 62
    0
370
   -1
100
AcDbLine
 10
325.612575
 20
120.8085
 11
325.612575
 21
106.8095
  0
LINE
  5
23E
100
AcDbEntity
  8
0
  6
ByLayer
 62
    0
370
   -1
100
AcDbLine
 10
325.612575
 20
106.8095
 11
311.612575
 21
106.8095
  0
LINE
  5
23F
100
AcDbEntity
  8
0
  6
ByLayer
 62
    0
370
   -1
100
AcDbLine
 10
311.612575
 20
106.8095
 11
311.612575
 21
120.8085
  0
LINE
  5
240
100
AcDbEntity
  8
0
  6
ByLayer
 62
    0
370
   -1
100
AcDbLine
 10
292.562575
 20
120.8085
 11
306.562575
 21
120.8085
  0
LINE
  5
241
100
AcDbEntity
  8
0
  6
ByLayer
 62
    0
370
   -1
100
AcDbLine
 10
306.562575
 20
120.8085
 11
306.562575
 21
106.8095
  0
LINE
  5
242
100
AcDbEntity
  8
0
  6
ByLayer
 62
    0
370
   -1
100
AcDbLine
 10
306.562575
 20
106.8095
 11
292.562575
 21
106.8095
  0
LINE
  5
243
100
AcDbEntity
  8
0
  6
ByLayer
 62
    0
370
   -1
100
AcDbLine
 10
292.562575
 20
106.8095
 11
292.562575
 21
120.8085
  0
LINE
  5
244
100
AcDbEntity
  8
0
  6
ByLayer
 62
    0
370
   -1
100
AcDbLine
 10
268.750575
 20
120.8085
 11
282.749575
 21
120.8085
  0
LINE
  5
245
100
AcDbEntity
  8
0
  6
ByLayer
 62
    0
370
   -1
100
AcDbLine
 10
282.749575
 20
120.8085
 11
282.749575
 21
106.8095
  0
LINE
  5
246
100
AcDbEntity
  8
0
  6
ByLayer
 62
    0
370
   -1
100
AcDbLine
 10
282.749575
 20
106.8095
 11
268.750575
 21
106.8095
  0
LINE
  5
247
100
AcDbEntity
  8
0
  6
ByLayer
 62
    0
370
   -1
100
AcDbLine
 10
268.750575
 20
106.8095
 11
268.750575
 21
120.8085
  0
LINE
  5
248
100
AcDbEntity
  8
0
  6
ByLayer
 62
    0
370
   -1
100
AcDbLine
 10
249.7005750000001
 20
120.8085
 11
263.699575
 21
120.8085
  0
LINE
  5
249
100
AcDbEntity
  8
0
  6
ByLayer
 62
    0
370
   -1
100
AcDbLine
 10
263.699575
 20
120.8085
 11
263.699575
 21
106.8095
  0
LINE
  5
24A
100
AcDbEntity
  8
0
  6
ByLayer
 62
    0
370
   -1
100
AcDbLine
 10
263.699575
 20
106.8095
 11
249.7005750000001
 21
106.8095
  0
LINE
  5
24B
100
AcDbEntity
  8
0
  6
ByLayer
 62
    0
370
   -1
100
AcDbLine
 10
249.7005750000001
 20
106.8095
 11
249.7005750000001
 21
120.8085
  0
LINE
  5
24C
100
AcDbEntity
  8
0
  6
ByLayer
 62
    0
370
   -1
100
AcDbLine
 10
230.650575
 20
120.8085
 11
244.649575
 21
120.8085
  0
LINE
  5
24D
100
AcDbEntity
  8
0
  6
ByLayer
 62
    0
370
   -1
100
AcDbLine
 10
244.649575
 20
120.8085
 11
244.649575
 21
106.8095
  0
LINE
  5
24E
100
AcDbEntity
  8
0
  6
ByLayer
 62
    0
370
   -1
100
AcDbLine
 10
244.649575
 20
106.8095
 11
230.650575
 21
106.8095
  0
LINE
  5
24F
100
AcDbEntity
  8
0
  6
ByLayer
 62
    0
370
   -1
100
AcDbLine
 10
230.650575
 20
106.8095
 11
230.650575
 21
120.8085
  0
LINE
  5
250
100
AcDbEntity
  8
0
  6
ByLayer
 62
    0
370
   -1
100
AcDbLine
 10
211.600575
 20
120.8085
 11
225.599575
 21
120.8085
  0
LINE
  5
251
100
AcDbEntity
  8
0
  6
ByLayer
 62
    0
370
   -1
100
AcDbLine
 10
225.599575
 20
120.8085
 11
225.599575
 21
106.8095
  0
LINE
  5
252
100
AcDbEntity
  8
0
  6
ByLayer
 62
    0
370
   -1
100
AcDbLine
 10
225.599575
 20
106.8095
 11
211.600575
 21
106.8095
  0
LINE
  5
253
100
AcDbEntity
  8
0
  6
ByLayer
 62
    0
370
   -1
100
AcDbLine
 10
211.600575
 20
106.8095
 11
211.600575
 21
120.8085
  0
LINE
  5
254
100
AcDbEntity
  8
0
  6
ByLayer
 62
    0
370
   -1
100
AcDbLine
 10
183.025575
 20
120.8085
 11
197.024575
 21
120.8085
  0
LINE
  5
255
100
AcDbEntity
  8
0
  6
ByLayer
 62
    0
370
   -1
100
AcDbLine
 10
197.024575
 20
120.8085
 11
197.024575
 21
106.8095
  0
LINE
  5
256
100
AcDbEntity
  8
0
  6
ByLayer
 62
    0
370
   -1
100
AcDbLine
 10
197.024575
 20
106.8095
 11
183.025575
 21
106.8095
  0
LINE
  5
257
100
AcDbEntity
  8
0
  6
ByLayer
 62
    0
370
   -1
100
AcDbLine
 10
183.025575
 20
106.8095
 11
183.025575
 21
120.8085
  0
LINE
  5
258
100
AcDbEntity
  8
0
  6
ByLayer
 62
    0
370
   -1
100
AcDbLine
 10
163.975575
 20
120.8085
 11
177.974575
 21
120.8085
  0
LINE
  5
259
100
AcDbEntity
  8
0
  6
ByLayer
 62
    0
370
   -1
100
AcDbLine
 10
177.974575
 20
120.8085
 11
177.974575
 21
106.8095
  0
LINE
  5
25A
100
AcDbEntity
  8
0
  6
ByLayer
 62
    0
370
   -1
100
AcDbLine
 10
177.974575
 20
106.8095
 11
163.975575
 21
106.8095
  0
LINE
  5
25B
100
AcDbEntity
  8
0
  6
ByLayer
 62
    0
370
   -1
100
AcDbLine
 10
163.975575
 20
106.8095
 11
163.975575
 21
120.8085
  0
LINE
  5
25C
100
AcDbEntity
  8
0
  6
ByLayer
 62
    0
370
   -1
100
AcDbLine
 10
144.925575
 20
120.8085
 11
158.924575
 21
120.8085
  0
LINE
  5
25D
100
AcDbEntity
  8
0
  6
ByLayer
 62
    0
370
   -1
100
AcDbLine
 10
158.924575
 20
120.8085
 11
158.924575
 21
106.8095
  0
LINE
  5
25E
100
AcDbEntity
  8
0
  6
ByLayer
 62
    0
370
   -1
100
AcDbLine
 10
158.924575
 20
106.8095
 11
144.925575
 21
106.8095
  0
LINE
  5
25F
100
AcDbEntity
  8
0
  6
ByLayer
 62
    0
370
   -1
100
AcDbLine
 10
144.925575
 20
106.8095
 11
144.925575
 21
120.8085
  0
LINE
  5
260
100
AcDbEntity
  8
0
  6
ByLayer
 62
    0
370
   -1
100
AcDbLine
 10
125.875575
 20
120.8085
 11
139.874575
 21
120.8085
  0
LINE
  5
261
100
AcDbEntity
  8
0
  6
ByLayer
 62
    0
370
   -1
100
AcDbLine
 10
139.874575
 20
120.8085
 11
139.874575
 21
106.8095
  0
LINE
  5
262
100
AcDbEntity
  8
0
  6
ByLayer
 62
    0
370
   -1
100
AcDbLine
 10
139.874575
 20
106.8095
 11
125.875575
 21
106.8095
  0
LINE
  5
263
100
AcDbEntity
  8
0
  6
ByLayer
 62
    0
370
   -1
100
AcDbLine
 10
125.875575
 20
106.8095
 11
125.875575
 21
120.8085
  0
LINE
  5
264
100
AcDbEntity
  8
0
  6
ByLayer
 62
    0
370
   -1
100
AcDbLine
 10
97.298875
 20
120.8085
 11
111.299575
 21
120.8085
  0
LINE
  5
265
100
AcDbEntity
  8
0
  6
ByLayer
 62
    0
370
   -1
100
AcDbLine
 10
111.299575
 20
120.8085
 11
111.299575
 21
106.8095
  0
LINE
  5
266
100
AcDbEntity
  8
0
  6
ByLayer
 62
    0
370
   -1
100
AcDbLine
 10
111.299575
 20
106.8095
 11
97.298875
 21
106.8095
  0
LINE
  5
267
100
AcDbEntity
  8
0
  6
ByLayer
 62
    0
370
   -1
100
AcDbLine
 10
97.298875
 20
106.8095
 11
97.298875
 21
120.8085
  0
LINE
  5
268
100
AcDbEntity
  8
0
  6
ByLayer
 62
    0
370
   -1
100
AcDbLine
 10
78.250275
 20
120.8085
 11
92.24957499999999
 21
120.8085
  0
LINE
  5
269
100
AcDbEntity
  8
0
  6
ByLayer
 62
    0
370
   -1
100
AcDbLine
 10
92.24957499999999
 20
120.8085
 11
92.24957499999999
 21
106.8095
  0
LINE
  5
26A
100
AcDbEntity
  8
0
  6
ByLayer
 62
    0
370
   -1
100
AcDbLine
 10
92.24957499999999
 20
106.8095
 11
78.250275
 21
106.8095
  0
LINE
  5
26B
100
AcDbEntity
  8
0
  6
ByLayer
 62
    0
370
   -1
100
AcDbLine
 10
78.250275
 20
106.8095
 11
78.250275
 21
120.8085
  0
LINE
  5
26C
100
AcDbEntity
  8
0
  6
ByLayer
 62
    0
370
   -1
100
AcDbLine
 10
59.20027500000002
 20
120.8085
 11
73.19957500000002
 21
120.8085
  0
LINE
  5
26D
100
AcDbEntity
  8
0
  6
ByLayer
 62
    0
370
   -1
100
AcDbLine
 10
73.19957500000002
 20
120.8085
 11
73.19957500000002
 21
106.8095
  0
LINE
  5
26E
100
AcDbEntity
  8
0
  6
ByLayer
 62
    0
370
   -1
100
AcDbLine
 10
73.19957500000002
 20
106.8095
 11
59.20027500000002
 21
106.8095
  0
LINE
  5
26F
100
AcDbEntity
  8
0
  6
ByLayer
 62
    0
370
   -1
100
AcDbLine
 10
59.20027500000002
 20
106.8095
 11
59.20027500000002
 21
120.8085
  0
LINE
  5
270
100
AcDbEntity
  8
0
  6
ByLayer
 62
    0
370
   -1
100
AcDbLine
 10
40.15027500000002
 20
120.8085
 11
54.14957500000001
 21
120.8085
  0
LINE
  5
271
100
AcDbEntity
  8
0
  6
ByLayer
 62
    0
370
   -1
100
AcDbLine
 10
54.14957500000001
 20
120.8085
 11
54.14957500000001
 21
106.8095
  0
LINE
  5
272
100
AcDbEntity
  8
0
  6
ByLayer
 62
    0
370
   -1
100
AcDbLine
 10
54.14957500000001
 20
106.8095
 11
40.15027500000002
 21
106.8095
  0
LINE
  5
273
100
AcDbEntity
  8
0
  6
ByLayer
 62
    0
370
   -1
100
AcDbLine
 10
40.15027500000002
 20
106.8095
 11
40.15027500000002
 21
120.8085
  0
LINE
  5
274
100
AcDbEntity
  8
0
  6
ByLayer
 62
    0
370
   -1
100
AcDbLine
 10
2.050225000000021
 20
120.8085
 11
16.04977500000001
 21
120.8085
  0
LINE
  5
275
100
AcDbEntity
  8
0
  6
ByLayer
 62
    0
370
   -1
100
AcDbLine
 10
16.04977500000001
 20
120.8085
 11
16.04977500000001
 21
106.8095
  0
LINE
  5
276
100
AcDbEntity
  8
0
  6
ByLayer
 62
    0
370
   -1
100
AcDbLine
 10
16.04977500000001
 20
106.8095
 11
2.050225000000021
 21
106.8095
  0
LINE
  5
277
100
AcDbEntity
  8
0
  6
ByLayer
 62
    0
370
   -1
100
AcDbLine
 10
2.050225000000021
 20
106.8095
 11
2.050225000000021
 21
120.8085
  0
ARC
  5
278
100
AcDbEntity
  8
0
  6
ByLayer
 62
  256
370
   -1
100
AcDbCircle
 10
2.05000000000004
 20
2.03364
 40
2
100
AcDbArc
 50
180
 51
269.9999999999993
  0
LINE
  5
279
100
AcDbEntity
  8
0
  6
ByLayer
 62
  256
370
   -1
100
AcDbLine
 10
344.66235
 20
0.03364000000000011
 11
2.05000000000001
 21
0.03364000000000011
  0
ARC
  5
27A
100
AcDbEntity
  8
0
  6
ByLayer
 62
  256
370
   -1
100
AcDbCircle
 10
344.66235
 20
2.03364
 40
2
100
AcDbArc
 50
270
 51
2.035554996136651e-013
  0
LINE
  5
27B
100
AcDbEntity
  8
0
  6
ByLayer
 62
  256
370
   -1
100
AcDbLine
 10
88.62547500000001
 20
11.33310000000002
 11
88.62547500000001
 21
6.73323000000002
  0
LINE
  5
27C
100
AcDbEntity
  8
0
  6
ByLayer
 62
  256
370
   -1
100
AcDbLine
 10
123.492575
 20
6.73323000000002
 11
123.492575
 21
11.33310000000002
  0
LINE
  5
27D
100
AcDbEntity
  8
0
  6
ByLayer
 62
  256
370
   -1
100
AcDbLine
 10
149.399575
 20
11.33310000000002
 11
149.399575
 21
6.73323000000002
  0
LINE
  5
27E
100
AcDbEntity
  8
0
  6
ByLayer
 62
  256
370
   -1
100
AcDbLine
 10
177.117575
 20
6.73323000000002
 11
177.117575
 21
11.33310000000002
  0
LINE
  5
27F
100
AcDbEntity
  8
0
  6
ByLayer
 62
  256
370
   -1
100
AcDbLine
 10
183.868575
 20
11.33310000000002
 11
183.868575
 21
6.73323000000002
  0
LINE
  5
280
100
AcDbEntity
  8
0
  6
ByLayer
 62
  256
370
   -1
100
AcDbLine
 10
194.931575
 20
6.73323000000002
 11
194.931575
 21
11.33310000000002
  0
LINE
  5
281
100
AcDbEntity
  8
0
  6
ByLayer
 62
  256
370
   -1
100
AcDbLine
 10
0.05000000000003979
 20
2.03364
 11
0.05000000000003979
 21
120.809
  0
ARC
  5
282
100
AcDbEntity
  8
0
  6
ByLayer
 62
  256
370
   -1
100
AcDbCircle
 10
2.050000000000029
 20
120.809
 40
2
100
AcDbArc
 50
90
 51
180
  0
LINE
  5
283
100
AcDbEntity
  8
0
  6
ByLayer
 62
  256
370
   -1
100
AcDbLine
 10
346.6623500000001
 20
120.809
 11
346.6623500000001
 21
2.033640000000011
  0
LINE
  5
284
100
AcDbEntity
  8
0
  6
ByLayer
 62
  256
370
   -1
100
AcDbLine
 10
2.050000000000029
 20
122.809
 11
344.6623500000001
 21
122.809
  0
ARC
  5
285
100
AcDbEntity
  8
0
  6
ByLayer
 62
  256
370
   -1
100
AcDbCircle
 10
344.6623500000001
 20
120.809
 40
2
100
AcDbArc
 50
0
 51
90
  0
LWPOLYLINE
  5
286
100
AcDbEntity
  8
0
  6
ByLayer
 62
  256
370
   -1
100
AcDbPolyline
 90
    4
 70
    1
 43
0
 10
0
 20
0
 10
500
 20
0
 10
500
 20
500
 10
0
 20
500
  0
CIRCLE
  5
287
100
AcDbEntity
  8
cotas
  6
ByLayer
 62
    7
370
   -1
100
AcDbCircle
 10
4.000396111295981
 20
275.3478277770765
 40
1.1
  0
CIRCLE
  5
288
100
AcDbEntity
  8
cotas
  6
ByLayer
 62
    7
370
   -1
100
AcDbCircle
 10
97.587196111296
 20
275.3478277770765
 40
1.09999999999999
  0
CIRCLE
  5
289
100
AcDbEntity
  8
cotas
  6
ByLayer
 62
    7
370
   -1
100
AcDbCircle
 10
250.076096111296
 20
275.3478277770765
 40
1.09999999999999
  0
CIRCLE
  5
28A
100
AcDbEntity
  8
cotas
  6
ByLayer
 62
    7
370
   -1
100
AcDbCircle
 10
97.587196111296
 20
256.5978277770765
 40
1.09999999999999
  0
CIRCLE
  5
28B
100
AcDbEntity
  8
cotas
  6
ByLayer
 62
    7
370
   -1
100
AcDbCircle
 10
4.000396111295981
 20
256.5978277770765
 40
1.1
  0
CIRCLE
  5
28C
100
AcDbEntity
  8
cotas
  6
ByLayer
 62
    7
370
   -1
100
AcDbCircle
 10
250.076096111296
 20
256.5978277770765
 40
1.09999999999999
  0
CIRCLE
  5
28D
100
AcDbEntity
  8
cotas
  6
ByLayer
 62
    7
370
   -1
100
AcDbCircle
 10
342.661455535832
 20
275.3478277770765
 40
1.09999999999999
  0
CIRCLE
  5
28E
100
AcDbEntity
  8
cotas
  6
ByLayer
 62
    7
370
   -1
100
AcDbCircle
 10
342.661455535832
 20
256.5978277770765
 40
1.09999999999999
  0
ARC
  5
28F
100
AcDbEntity
  8
cotas
  6
ByLayer
 62
  256
370
   -1
100
AcDbCircle
 10
2.00033773431964
 20
277.3478277713072
 40
2
100
AcDbArc
 50
89.99999983471903
 51
179.998298949672
  0
LINE
  5
290
100
AcDbEntity
  8
cotas
  6
ByLayer
 62
    7
370
   -1
100
AcDbLine
 10
0.000337735201089373
 20
277.3478871491652
 11
-0.0003377317014781056
 21
254.5964129124006
  0
LINE
  5
291
100
AcDbEntity
  8
cotas
  6
ByLayer
 62
    7
370
   -1
100
AcDbLine
 10
346.662283125969
 20
254.5962705801143
 11
346.6615224053619
 21
277.3478936546115
  0
LINE
  5
292
100
AcDbEntity
  8
cotas
  6
ByLayer
 62
    7
370
   -1
100
AcDbLine
 10
344.6615224122492
 20
279.3478267828455
 11
2.000337740089041
 21
279.3478277713072
  0
ARC
  5
293
100
AcDbEntity
  8
cotas
  6
ByLayer
 62
  256
370
   -1
100
AcDbCircle
 10
344.6615224064799
 20
277.3478267828455
 40
2
100
AcDbArc
 50
0.001915734978774082
 51
89.99999983472108
  0
CIRCLE
  5
294
100
AcDbEntity
  8
cotas
  6
ByLayer
 62
  256
370
   -1
100
AcDbCircle
 10
28.04977500000001
 20
235.4058539645968
 40
1
  0
CIRCLE
  5
295
100
AcDbEntity
  8
cotas
  6
ByLayer
 62
  256
370
   -1
100
AcDbCircle
 10
342.1581225179121
 20
149.6299539645968
 40
1.100000000000023
  0
CIRCLE
  5
296
100
AcDbEntity
  8
cotas
  6
ByLayer
 62
  256
370
   -1
100
AcDbCircle
 10
295.0670274820879
 20
182.7806539645968
 40
1.100000000000023
  0
CIRCLE
  5
297
100
AcDbEntity
  8
cotas
  6
ByLayer
 62
  256
370
   -1
100
AcDbCircle
 10
342.1625750000001
 20
182.7806539645968
 40
1.100000000000023
  0
CIRCLE
  5
298
100
AcDbEntity
  8
cotas
  6
ByLayer
 62
  256
370
   -1
100
AcDbCircle
 10
29.29062500000001
 20
175.7303039645968
 40
1.100000000000001
  0
CIRCLE
  5
299
100
AcDbEntity
  8
cotas
  6
ByLayer
 62
  256
370
   -1
100
AcDbCircle
 10
337.6625750000001
 20
228.1179039645967
 40
1.100000000000023
  0
CIRCLE
  5
29A
100
AcDbEntity
  8
cotas
  6
ByLayer
 62
  256
370
   -1
100
AcDbCircle
 10
286.465575
 20
137.6302239645968
 40
1.100000000000023
  0
CIRCLE
  5
29B
100
AcDbEntity
  8
cotas
  6
ByLayer
 62
  256
370
   -1
100
AcDbCircle
 10
24.52742500000002
 20
137.6302239645968
 40
1.100000000000001
  0
CIRCLE
  5
29C
100
AcDbEntity
  8
cotas
  6
ByLayer
 62
  256
370
   -1
100
AcDbCircle
 10
295.0625749999999
 20
149.6333198854536
 40
1.100000000000023
  0
LINE
  5
29D
100
AcDbEntity
  8
cotas
  6
ByLayer
 62
  256
370
   -1
100
AcDbLine
 10
346.662283125969
 20
254.5962705801143
 11
346.662283125969
 21
130.6299939645968
  0
ARC
  5
29E
100
AcDbEntity
  8
cotas
  6
ByLayer
 62
  256
370
   -1
100
AcDbCircle
 10
344.662283125969
 20
130.6299939645967
 40
2
100
AcDbArc
 50
270
 51
1.526666247102488e-013
  0
LINE
  5
29F
100
AcDbEntity
  8
cotas
  6
ByLayer
 62
  256
370
   -1
100
AcDbLine
 10
-0.0003377317014781056
 20
254.5964129124006
 11
-0.0003377317014781056
 21
130.6299939645967
  0
LINE
  5
2A0
100
AcDbEntity
  8
cotas
  6
ByLayer
 62
  256
370
   -1
100
AcDbLine
 10
344.662283125969
 20
128.6299939645967
 11
1.99966226829849
 21
128.6299939645967
  0
ARC
  5
2A1
100
AcDbEntity
  8
cotas
  6
ByLayer
 62
  256
370
   -1
100
AcDbCircle
 10
1.99966226829852
 20
130.6299939645967
 40
2
100
AcDbArc
 50
180.0000000000003
 51
269.9999999999993
  0
CIRCLE
  5
2A2
100
AcDbEntity
  8
cotas
  6
ByLayer
 62
    7
370
   -1
100
AcDbCircle
 10
4
 20
307.2018765361055
 40
1.1
  0
CIRCLE
  5
2A3
100
AcDbEntity
  8
cotas
  6
ByLayer
 62
    7
370
   -1
100
AcDbCircle
 10
97.5868
 20
307.2018765361055
 40
1.09999999999999
  0
CIRCLE
  5
2A4
100
AcDbEntity
  8
cotas
  6
ByLayer
 62
    7
370
   -1
100
AcDbCircle
 10
250.0757
 20
307.2018765361055
 40
1.09999999999999
  0
CIRCLE
  5
2A5
100
AcDbEntity
  8
cotas
  6
ByLayer
 62
    7
370
   -1
100
AcDbCircle
 10
97.5868
 20
288.4518765361055
 40
1.09999999999999
  0
CIRCLE
  5
2A6
100
AcDbEntity
  8
cotas
  6
ByLayer
 62
    7
370
   -1
100
AcDbCircle
 10
4
 20
288.4518765361055
 40
1.1
  0
CIRCLE
  5
2A7
100
AcDbEntity
  8
cotas
  6
ByLayer
 62
    7
370
   -1
100
AcDbCircle
 10
250.0757
 20
288.4518765361055
 40
1.09999999999999
  0
CIRCLE
  5
2A8
100
AcDbEntity
  8
cotas
  6
ByLayer
 62
    7
370
   -1
100
AcDbCircle
 10
342.661059424536
 20
307.2018765361055
 40
1.09999999999999
  0
CIRCLE
  5
2A9
100
AcDbEntity
  8
cotas
  6
ByLayer
 62
    7
370
   -1
100
AcDbCircle
 10
342.661059424536
 20
288.4518765361055
 40
1.09999999999999
  0
ARC
  5
2AA
100
AcDbEntity
  8
cotas
  6
ByLayer
 62
  256
370
   -1
100
AcDbCircle
 10
3.309265777462199
 20
284.4504031680626
 40
0
100
AcDbArc
 50
0
 51
90.71615994547041
  0
ARC
  5
2AB
100
AcDbEntity
  8
cotas
  6
ByLayer
 62
  256
370
   -1
100
AcDbCircle
 10
1.999941623023661
 20
309.2018765303362
 40
2
100
AcDbArc
 50
89.99999983471903
 51
179.998298949672
  0
LINE
  5
2AC
100
AcDbEntity
  8
cotas
  6
ByLayer
 62
    7
370
   -1
100
AcDbLine
 10
-5.837609489844908e-005
 20
309.2019359081942
 11
-0.000733842997462375
 21
286.4504616714297
  0
ARC
  5
2AD
100
AcDbEntity
  8
cotas
  6
ByLayer
 62
  256
370
   -1
100
AcDbCircle
 10
1.999266156121109
 20
286.4504022935718
 40
2
100
AcDbArc
 50
179.998298949672
 51
269.9999749479281
  0
LINE
  5
2AE
100
AcDbEntity
  8
cotas
  6
ByLayer
 62
    7
370
   -1
100
AcDbLine
 10
1.999265281638831
 20
284.450402293572
 11
344.6618861413086
 21
284.4502524673777
  0
ARC
  5
2AF
100
AcDbEntity
  8
cotas
  6
ByLayer
 62
  256
370
   -1
100
AcDbCircle
 10
344.6618870157909
 20
286.4502524673775
 40
2
100
AcDbArc
 50
269.999974947928
 51
0.001915734978774032
  0
LINE
  5
2B0
100
AcDbEntity
  8
cotas
  6
ByLayer
 62
    7
370
   -1
100
AcDbLine
 10
346.661887014673
 20
286.4503193391434
 11
346.6611262940659
 21
309.2019424136406
  0
LINE
  5
2B1
100
AcDbEntity
  8
cotas
  6
ByLayer
 62
    7
370
   -1
100
AcDbLine
 10
344.6611263009532
 20
311.2018755418746
 11
1.99994162879306
 21
311.2018765303362
  0
ARC
  5
2B2
100
AcDbEntity
  8
cotas
  6
ByLayer
 62
  256
370
   -1
100
AcDbCircle
 10
344.6611262951839
 20
309.2018755418746
 40
2
100
AcDbArc
 50
0.001915734978774082
 51
89.99999983472108
  0
CIRCLE
  5
2B3
100
AcDbEntity
  8
cotas
  6
ByLayer
 62
    7
370
   -1
100
AcDbCircle
 10
368.0925649409356
 20
83.64292996170833
 40
1.09999999999999
  0
CIRCLE
  5
2B4
100
AcDbEntity
  8
cotas
  6
ByLayer
 62
    7
370
   -1
100
AcDbCircle
 10
368.0925649409356
 20
236.1318299617083
 40
1.09999999999999
  0
LINE
  5
2B5
100
AcDbEntity
  8
cotas
  6
ByLayer
 62
  256
370
   -1
100
AcDbLine
 10
354.9765009491288
 20
302.6211253944376
 11
354.9765009491287
 21
16.05573675708923
  0
LINE
  5
2B6
100
AcDbEntity
  8
cotas
  6
ByLayer
 62
  256
370
   -1
100
AcDbLine
 10
381.2086289327424
 20
16.05573693125281
 11
381.2086289327424
 21
302.6211253944375
  0
ARC
  5
2B7
100
AcDbEntity
  8
cotas
  6
ByLayer
 62
  256
370
   -1
100
AcDbCircle
 10
368.0925649409356
 20
16.05573385041238
 40
13.11606399180682
100
AcDbArc
 50
179.9999873025692
 51
359.9999937306937
  0
ARC
  5
2B8
100
AcDbEntity
  8
cotas
  6
ByLayer
 62
  256
370
   -1
100
AcDbCircle
 10
368.0925649409356
 20
302.6211253944375
 40
13.11606399180682
100
AcDbArc
 50
359.9999850373545
 51
180.0000156521286
  0
CIRCLE
  5
2B9
100
AcDbEntity
  8
cotas
  6
ByLayer
 62
    7
370
   -1
100
AcDbCircle
 10
397.616680864607
 20
83.39020081776677
 40
1.09999999999999
  0
CIRCLE
  5
2BA
100
AcDbEntity
  8
cotas
  6
ByLayer
 62
    7
370
   -1
100
AcDbCircle
 10
397.616680864607
 20
235.8791008177667
 40
1.09999999999999
  0
LINE
  5
2BB
100
AcDbEntity
  8
cotas
  6
ByLayer
 62
  256
370
   -1
100
AcDbLine
 10
407.616680864607
 20
15.8030047064707
 11
407.616680864607
 21
302.3683962504959
  0
LINE
  5
2BC
100
AcDbEntity
  8
cotas
  6
ByLayer
 62
  256
370
   -1
100
AcDbLine
 10
387.616680864607
 20
302.368396250496
 11
387.616680864607
 21
15.8030047064707
  0
ARC
  5
2BD
100
AcDbEntity
  8
cotas
  6
ByLayer
 62
  256
370
   -1
100
AcDbCircle
 10
397.616680864607
 20
15.8030047064707
 40
10
100
AcDbArc
 50
179.9999807134762
 51
3.098835209166415e-005
  0
ARC
  5
2BE
100
AcDbEntity
  8
cotas
  6
ByLayer
 62
  256
370
   -1
100
AcDbCircle
 10
397.616680864607
 20
302.3683962504959
 40
10
100
AcDbArc
 50
0
 51
179.9999462705882
  0
CIRCLE
  5
2BF
100
AcDbEntity
  8
cotas
  6
ByLayer
 62
    7
370
   -1
100
AcDbCircle
 10
421.506423520402
 20
82.96680516956319
 40
1.09999999999999
  0
CIRCLE
  5
2C0
100
AcDbEntity
  8
cotas
  6
ByLayer
 62
    7
370
   -1
100
AcDbCircle
 10
421.506423520402
 20
235.4557051695632
 40
1.09999999999999
  0
LINE
  5
2C1
100
AcDbEntity
  8
cotas
  6
ByLayer
 62
  256
370
   -1
100
AcDbLine
 10
428.9410234261582
 20
301.9337251873359
 11
428.5064154700076
 21
15.36899277562592
  0
LINE
  5
2C2
100
AcDbEntity
  8
cotas
  6
ByLayer
 62
  256
370
   -1
100
AcDbLine
 10
414.5064315707964
 20
15.36899277562604
 11
414.0718236146458
 21
301.9337251873359
  0
ARC
  5
2C3
100
AcDbEntity
  8
cotas
  6
ByLayer
 62
  256
370
   -1
100
AcDbCircle
 10
421.506423520402
 20
301.9450006022924
 40
7.434608455974796
100
AcDbArc
 50
0
 51
180
  0
ARC
  5
2C4
100
AcDbEntity
  8
cotas
  6
ByLayer
 62
  256
370
   -1
100
AcDbCircle
 10
421.506423520402
 20
15.37960905826723
 40
7
100
AcDbArc
 50
179.9130894142198
 51
359.9130894142198
  0
LINE
  5
2C5
100
AcDbEntity
  8
cotas
  6
ByLayer
 62
  256
370
   -1
100
AcDbLine
 10
450.0341369665529
 20
0
 11
450.0341369665529
 21
19.04989999999999
  0
LINE
  5
2C6
100
AcDbEntity
  8
cotas
  6
ByLayer
 62
  256
370
   -1
100
AcDbLine
 10
450.0341369665529
 20
19.04989999999999
 11
469.0341369665529
 21
19.04989999999999
  0
LINE
  5
2C7
100
AcDbEntity
  8
cotas
  6
ByLayer
 62
  256
370
   -1
100
AcDbLine
 10
469.0341369665529
 20
19.04989999999999
 11
469.0341369665529
 21
0
  0
LINE
  5
2C8
100
AcDbEntity
  8
cotas
  6
ByLayer
 62
  256
370
   -1
100
AcDbLine
 10
469.0341369665529
 20
0
 11
485.584136966553
 21
0
  0
LINE
  5
2C9
100
AcDbEntity
  8
cotas
  6
ByLayer
 62
  256
370
   -1
100
AcDbLine
 10
485.584136966553
 20
0
 11
485.584136966553
 21
38.15069999999999
  0
LINE
  5
2CA
100
AcDbEntity
  8
cotas
  6
ByLayer
 62
  256
370
   -1
100
AcDbLine
 10
485.584136966553
 20
38.15069999999999
 11
447.4841369665529
 21
38.15069999999999
  0
LINE
  5
2CB
100
AcDbEntity
  8
cotas
  6
ByLayer
 62
  256
370
   -1
100
AcDbLine
 10
433.4841369665529
 20
0
 11
450.0341369665529
 21
0
  0
LINE
  5
2CC
100
AcDbEntity
  8
cotas
  6
ByLayer
 62
  256
370
   -1
100
AcDbLine
 10
433.4841369665529
 20
0
 11
433.4841369665529
 21
38.15069999999999
  0
LINE
  5
2CD
100
AcDbEntity
  8
cotas
  6
ByLayer
 62
  256
370
   -1
100
AcDbLine
 10
433.4841369665529
 20
38.15069999999999
 11
447.4841369665529
 21
38.15069999999999
  0
CIRCLE
  5
2CE
100
AcDbEntity
  8
cotas
  6
ByLayer
 62
  256
370
   -1
100
AcDbCircle
 10
483.079684484465
 20
2.5
 40
1.100000000000023
  0
CIRCLE
  5
2CF
100
AcDbEntity
  8
cotas
  6
ByLayer
 62
  256
370
   -1
100
AcDbCircle
 10
435.9885894486409
 20
35.65069999999999
 40
1.100000000000023
  0
CIRCLE
  5
2D0
100
AcDbEntity
  8
cotas
  6
ByLayer
 62
  256
370
   -1
100
AcDbCircle
 10
483.084136966553
 20
35.65069999999999
 40
1.100000000000023
  0
CIRCLE
  5
2D1
100
AcDbEntity
  8
cotas
  6
ByLayer
 62
  256
370
   -1
100
AcDbCircle
 10
435.9841369665529
 20
2.503365920856837
 40
1.100000000000023
  0
ENDSEC
  0
SECTION
  2
OBJECTS
  0
DICTIONARY
  5
C
330
0
100
AcDbDictionary
281
    1
  3
ACAD_GROUP
350
D
  0
DICTIONARY
  5
D
330
C
100
AcDbDictionary
281
    1
  0
ENDSEC
  0
EOF
