%TF.GenerationSoftware,KiCad,Pcbnew,(5.1.8)-1*%
%TF.CreationDate,2020-12-24T13:39:18+01:00*%
%TF.ProjectId,Atenea,4174656e-6561-42e6-9b69-6361645f7063,1*%
%TF.SameCoordinates,Original*%
%TF.FileFunction,Soldermask,Bot*%
%TF.FilePolarity,Negative*%
%FSLAX46Y46*%
G04 Gerber Fmt 4.6, Leading zero omitted, Abs format (unit mm)*
G04 Created by KiCad (PCBNEW (5.1.8)-1) date 2020-12-24 13:39:18*
%MOMM*%
%LPD*%
G01*
G04 APERTURE LIST*
%ADD10C,3.987800*%
%ADD11C,3.048000*%
%ADD12C,2.250000*%
%ADD13C,1.701800*%
%ADD14C,1.905000*%
%ADD15R,1.905000X1.905000*%
%ADD16C,1.700000*%
%ADD17C,4.000000*%
%ADD18C,2.200000*%
%ADD19C,1.750000*%
%ADD20C,0.650000*%
%ADD21O,0.900000X2.400000*%
%ADD22O,0.900000X1.700000*%
%ADD23C,1.400000*%
%ADD24O,1.400000X1.400000*%
%ADD25C,1.800000*%
%ADD26R,1.800000X1.800000*%
%ADD27O,1.600000X1.600000*%
%ADD28R,1.600000X1.600000*%
%ADD29C,1.500000*%
%ADD30C,2.000000*%
%ADD31R,1.700000X1.700000*%
%ADD32C,1.600000*%
%ADD33C,1.200000*%
%ADD34R,1.200000X1.200000*%
G04 APERTURE END LIST*
D10*
%TO.C,ENTERISO1*%
X364617000Y-204597000D03*
X364617000Y-228473000D03*
D11*
X379857000Y-204597000D03*
X379857000Y-228473000D03*
D12*
X370372000Y-221035000D03*
X375372000Y-220535000D03*
D13*
X372872000Y-221615000D03*
X372872000Y-211455000D03*
D14*
X367792000Y-215265000D03*
D15*
X367792000Y-217805000D03*
D12*
X376872000Y-214035000D03*
D10*
X372872000Y-216535000D03*
G36*
G01*
X374574650Y-211973688D02*
X374574650Y-211973688D01*
G75*
G02*
X376163312Y-211887650I837350J-751312D01*
G01*
X377623320Y-213197640D01*
G75*
G02*
X377709358Y-214786302I-751312J-837350D01*
G01*
X377709358Y-214786302D01*
G75*
G02*
X376120696Y-214872340I-837350J751312D01*
G01*
X374660688Y-213562350D01*
G75*
G02*
X374574650Y-211973688I751312J837350D01*
G01*
G37*
D12*
X377952000Y-219075000D03*
G36*
G01*
X376249740Y-218956524D02*
X376249666Y-218957601D01*
G75*
G02*
X377449399Y-217912666I1122334J-77399D01*
G01*
X378029399Y-217952664D01*
G75*
G02*
X379074334Y-219152397I-77399J-1122334D01*
G01*
X379074334Y-219152397D01*
G75*
G02*
X377874601Y-220197332I-1122334J77399D01*
G01*
X377294601Y-220157334D01*
G75*
G02*
X376249666Y-218957601I77399J1122334D01*
G01*
G37*
%TD*%
D16*
%TO.C,ALTGRALT1*%
X327914000Y-264160000D03*
X317754000Y-264160000D03*
D17*
X322834000Y-264160000D03*
D18*
X319024000Y-261620000D03*
X325374000Y-259080000D03*
%TD*%
D16*
%TO.C,SCROLL1*%
X423291000Y-159385000D03*
X413131000Y-159385000D03*
D17*
X418211000Y-159385000D03*
D18*
X414401000Y-156845000D03*
X420751000Y-154305000D03*
%TD*%
D10*
%TO.C,SHIFTALT1*%
X370586000Y-253365000D03*
X346710000Y-253365000D03*
D11*
X370586000Y-238125000D03*
X346710000Y-238125000D03*
D19*
X363728000Y-245110000D03*
X353568000Y-245110000D03*
D15*
X359918000Y-250190000D03*
D14*
X357378000Y-250190000D03*
D12*
X356148000Y-241110000D03*
D10*
X358648000Y-245110000D03*
G36*
G01*
X354086688Y-243407350D02*
X354086683Y-243407345D01*
G75*
G02*
X354000655Y-241818683I751317J837345D01*
G01*
X355310657Y-240358683D01*
G75*
G02*
X356899319Y-240272655I837345J-751317D01*
G01*
X356899319Y-240272655D01*
G75*
G02*
X356985347Y-241861317I-751317J-837345D01*
G01*
X355675345Y-243321317D01*
G75*
G02*
X354086683Y-243407345I-837345J751317D01*
G01*
G37*
D12*
X361188000Y-240030000D03*
G36*
G01*
X361071483Y-241732395D02*
X361070597Y-241732334D01*
G75*
G02*
X360025666Y-240532597I77403J1122334D01*
G01*
X360065666Y-239952597D01*
G75*
G02*
X361265403Y-238907666I1122334J-77403D01*
G01*
X361265403Y-238907666D01*
G75*
G02*
X362310334Y-240107403I-77403J-1122334D01*
G01*
X362270334Y-240687403D01*
G75*
G02*
X361070597Y-241732334I-1122334J77403D01*
G01*
G37*
%TD*%
D10*
%TO.C,LONGSHIFT1*%
X132461000Y-253365000D03*
X108585000Y-253365000D03*
D11*
X132461000Y-238125000D03*
X108585000Y-238125000D03*
D19*
X125603000Y-245110000D03*
X115443000Y-245110000D03*
D15*
X121793000Y-250190000D03*
D14*
X119253000Y-250190000D03*
D12*
X118023000Y-241110000D03*
D10*
X120523000Y-245110000D03*
G36*
G01*
X115961688Y-243407350D02*
X115961683Y-243407345D01*
G75*
G02*
X115875655Y-241818683I751317J837345D01*
G01*
X117185657Y-240358683D01*
G75*
G02*
X118774319Y-240272655I837345J-751317D01*
G01*
X118774319Y-240272655D01*
G75*
G02*
X118860347Y-241861317I-751317J-837345D01*
G01*
X117550345Y-243321317D01*
G75*
G02*
X115961683Y-243407345I-837345J751317D01*
G01*
G37*
D12*
X123063000Y-240030000D03*
G36*
G01*
X122946483Y-241732395D02*
X122945597Y-241732334D01*
G75*
G02*
X121900666Y-240532597I77403J1122334D01*
G01*
X121940666Y-239952597D01*
G75*
G02*
X123140403Y-238907666I1122334J-77403D01*
G01*
X123140403Y-238907666D01*
G75*
G02*
X124185334Y-240107403I-77403J-1122334D01*
G01*
X124145334Y-240687403D01*
G75*
G02*
X122945597Y-241732334I-1122334J77403D01*
G01*
G37*
%TD*%
D10*
%TO.C,ENTERANSI1*%
X375285000Y-234315000D03*
X351409000Y-234315000D03*
D11*
X375285000Y-219075000D03*
X351409000Y-219075000D03*
D19*
X368427000Y-226060000D03*
X358267000Y-226060000D03*
D15*
X364617000Y-231140000D03*
D14*
X362077000Y-231140000D03*
D12*
X360847000Y-222060000D03*
D10*
X363347000Y-226060000D03*
G36*
G01*
X358785688Y-224357350D02*
X358785683Y-224357345D01*
G75*
G02*
X358699655Y-222768683I751317J837345D01*
G01*
X360009657Y-221308683D01*
G75*
G02*
X361598319Y-221222655I837345J-751317D01*
G01*
X361598319Y-221222655D01*
G75*
G02*
X361684347Y-222811317I-751317J-837345D01*
G01*
X360374345Y-224271317D01*
G75*
G02*
X358785683Y-224357345I-837345J751317D01*
G01*
G37*
D12*
X365887000Y-220980000D03*
G36*
G01*
X365770483Y-222682395D02*
X365769597Y-222682334D01*
G75*
G02*
X364724666Y-221482597I77403J1122334D01*
G01*
X364764666Y-220902597D01*
G75*
G02*
X365964403Y-219857666I1122334J-77403D01*
G01*
X365964403Y-219857666D01*
G75*
G02*
X367009334Y-221057403I-77403J-1122334D01*
G01*
X366969334Y-221637403D01*
G75*
G02*
X365769597Y-222682334I-1122334J77403D01*
G01*
G37*
%TD*%
D10*
%TO.C,BACKSPACE1*%
X380238000Y-191135000D03*
X356362000Y-191135000D03*
D11*
X380238000Y-175895000D03*
X356362000Y-175895000D03*
D19*
X373380000Y-182880000D03*
X363220000Y-182880000D03*
D15*
X369570000Y-187960000D03*
D14*
X367030000Y-187960000D03*
D12*
X365800000Y-178880000D03*
D10*
X368300000Y-182880000D03*
G36*
G01*
X363738688Y-181177350D02*
X363738683Y-181177345D01*
G75*
G02*
X363652655Y-179588683I751317J837345D01*
G01*
X364962657Y-178128683D01*
G75*
G02*
X366551319Y-178042655I837345J-751317D01*
G01*
X366551319Y-178042655D01*
G75*
G02*
X366637347Y-179631317I-751317J-837345D01*
G01*
X365327345Y-181091317D01*
G75*
G02*
X363738683Y-181177345I-837345J751317D01*
G01*
G37*
D12*
X370840000Y-177800000D03*
G36*
G01*
X370723483Y-179502395D02*
X370722597Y-179502334D01*
G75*
G02*
X369677666Y-178302597I77403J1122334D01*
G01*
X369717666Y-177722597D01*
G75*
G02*
X370917403Y-176677666I1122334J-77403D01*
G01*
X370917403Y-176677666D01*
G75*
G02*
X371962334Y-177877403I-77403J-1122334D01*
G01*
X371922334Y-178457403D01*
G75*
G02*
X370722597Y-179502334I-1122334J77403D01*
G01*
G37*
%TD*%
D20*
%TO.C,USB1*%
X274198000Y-128528000D03*
X275898000Y-128528000D03*
X275048000Y-128528000D03*
X273348000Y-128528000D03*
X272498000Y-128528000D03*
X271648000Y-128528000D03*
X270798000Y-128528000D03*
X269948000Y-128528000D03*
X275898000Y-127203000D03*
X275043000Y-127203000D03*
X274193000Y-127203000D03*
X273343000Y-127203000D03*
X272493000Y-127203000D03*
X271643000Y-127203000D03*
X270793000Y-127203000D03*
X269943000Y-127203000D03*
D21*
X277248000Y-127548000D03*
X268598000Y-127548000D03*
D22*
X277248000Y-124168000D03*
X268598000Y-124168000D03*
%TD*%
D10*
%TO.C,ST62*%
X299085000Y-255905000D03*
X184785000Y-255905000D03*
D11*
X299085000Y-271145000D03*
X184785000Y-271145000D03*
%TD*%
D10*
%TO.C,ST62*%
X280123900Y-255905000D03*
X180124100Y-255905000D03*
D11*
X280123900Y-271145000D03*
X180124100Y-271145000D03*
%TD*%
D18*
%TO.C,H2*%
X128770479Y-226074773D03*
%TD*%
%TO.C,H2*%
X124071479Y-264174773D03*
%TD*%
%TO.C,H2*%
X394581479Y-218962773D03*
%TD*%
%TO.C,H2*%
X385945479Y-264174773D03*
%TD*%
%TO.C,H2*%
X394581479Y-252109773D03*
%TD*%
%TO.C,H2*%
X441698479Y-252109773D03*
%TD*%
%TO.C,H2*%
X441698479Y-218962773D03*
%TD*%
%TO.C,H2*%
X437126479Y-173623773D03*
%TD*%
%TO.C,H2*%
X127635000Y-166497000D03*
%TD*%
%TO.C,H2*%
X442214000Y-145288000D03*
%TD*%
%TO.C,H2*%
X442214000Y-126492000D03*
%TD*%
%TO.C,H2*%
X349631000Y-145288000D03*
%TD*%
%TO.C,H2*%
X349631000Y-126492000D03*
%TD*%
%TO.C,H2*%
X197104000Y-145288000D03*
%TD*%
%TO.C,H2*%
X197104000Y-126492000D03*
%TD*%
%TO.C,H2*%
X103505000Y-145288000D03*
%TD*%
%TO.C,H2*%
X103505000Y-126492000D03*
%TD*%
D23*
%TO.C,R8*%
X282956000Y-126746000D03*
D24*
X290576000Y-126746000D03*
%TD*%
D25*
%TO.C,LED1*%
X253873000Y-144526000D03*
D26*
X251333000Y-144526000D03*
%TD*%
D27*
%TO.C,D93*%
X270637000Y-135255000D03*
D28*
X275717000Y-135255000D03*
%TD*%
D27*
%TO.C,D92*%
X270637000Y-132715000D03*
D28*
X275717000Y-132715000D03*
%TD*%
D27*
%TO.C,D91*%
X435991000Y-145923000D03*
D28*
X430911000Y-145923000D03*
%TD*%
D27*
%TO.C,D90*%
X433959000Y-141859000D03*
D28*
X428879000Y-141859000D03*
%TD*%
D27*
%TO.C,D89*%
X417449000Y-137795000D03*
D28*
X412369000Y-137795000D03*
%TD*%
D27*
%TO.C,D88*%
X405003000Y-141859000D03*
D28*
X399923000Y-141859000D03*
%TD*%
D27*
%TO.C,D87*%
X392557000Y-145923000D03*
D28*
X387477000Y-145923000D03*
%TD*%
D27*
%TO.C,D86*%
X378079000Y-145923000D03*
D28*
X372999000Y-145923000D03*
%TD*%
D27*
%TO.C,D85*%
X363474000Y-145923000D03*
D28*
X358394000Y-145923000D03*
%TD*%
D27*
%TO.C,D84*%
X207010000Y-146050000D03*
D28*
X212090000Y-146050000D03*
%TD*%
D27*
%TO.C,D83*%
X136652000Y-146050000D03*
D28*
X141732000Y-146050000D03*
%TD*%
D27*
%TO.C,D82*%
X122174000Y-146050000D03*
D28*
X127254000Y-146050000D03*
%TD*%
D27*
%TO.C,D81*%
X107696000Y-146050000D03*
D28*
X112776000Y-146050000D03*
%TD*%
D27*
%TO.C,D80*%
X431927000Y-137795000D03*
D28*
X426847000Y-137795000D03*
%TD*%
D27*
%TO.C,D79*%
X402971000Y-137795000D03*
D28*
X397891000Y-137795000D03*
%TD*%
D27*
%TO.C,D78*%
X390525000Y-141859000D03*
D28*
X385445000Y-141859000D03*
%TD*%
D27*
%TO.C,D77*%
X376047000Y-141859000D03*
D28*
X370967000Y-141859000D03*
%TD*%
D27*
%TO.C,D76*%
X361442000Y-141859000D03*
D28*
X356362000Y-141859000D03*
%TD*%
D27*
%TO.C,D75*%
X235966000Y-146050000D03*
D28*
X241046000Y-146050000D03*
%TD*%
D27*
%TO.C,D74*%
X237871000Y-141986000D03*
D28*
X242951000Y-141986000D03*
%TD*%
D27*
%TO.C,D73*%
X223393000Y-141986000D03*
D28*
X228473000Y-141986000D03*
%TD*%
D27*
%TO.C,D72*%
X208915000Y-141986000D03*
D28*
X213995000Y-141986000D03*
%TD*%
D27*
%TO.C,D71*%
X182118000Y-141986000D03*
D28*
X187198000Y-141986000D03*
%TD*%
D27*
%TO.C,D70*%
X167640000Y-141986000D03*
D28*
X172720000Y-141986000D03*
%TD*%
D27*
%TO.C,D69*%
X153289000Y-141986000D03*
D28*
X158369000Y-141986000D03*
%TD*%
D27*
%TO.C,D68*%
X138684000Y-141986000D03*
D28*
X143764000Y-141986000D03*
%TD*%
D27*
%TO.C,D67*%
X124206000Y-141986000D03*
D28*
X129286000Y-141986000D03*
%TD*%
D27*
%TO.C,D66*%
X109728000Y-141986000D03*
D28*
X114808000Y-141986000D03*
%TD*%
D27*
%TO.C,D65*%
X388493000Y-137795000D03*
D28*
X383413000Y-137795000D03*
%TD*%
D27*
%TO.C,D64*%
X374015000Y-137795000D03*
D28*
X368935000Y-137795000D03*
%TD*%
D27*
%TO.C,D63*%
X359410000Y-137795000D03*
D28*
X354330000Y-137795000D03*
%TD*%
D27*
%TO.C,D62*%
X221488000Y-146050000D03*
D28*
X226568000Y-146050000D03*
%TD*%
D27*
%TO.C,D61*%
X239903000Y-137922000D03*
D28*
X244983000Y-137922000D03*
%TD*%
D27*
%TO.C,D60*%
X225425000Y-137922000D03*
D28*
X230505000Y-137922000D03*
%TD*%
D27*
%TO.C,D59*%
X210947000Y-137922000D03*
D28*
X216027000Y-137922000D03*
%TD*%
D27*
%TO.C,D58*%
X184277000Y-137795000D03*
D28*
X189357000Y-137795000D03*
%TD*%
D27*
%TO.C,D57*%
X169672000Y-137922000D03*
D28*
X174752000Y-137922000D03*
%TD*%
D27*
%TO.C,D56*%
X155321000Y-137922000D03*
D28*
X160401000Y-137922000D03*
%TD*%
D27*
%TO.C,D55*%
X140716000Y-137922000D03*
D28*
X145796000Y-137922000D03*
%TD*%
D27*
%TO.C,D54*%
X126238000Y-137922000D03*
D28*
X131318000Y-137922000D03*
%TD*%
D27*
%TO.C,D53*%
X111760000Y-137922000D03*
D28*
X116840000Y-137922000D03*
%TD*%
D27*
%TO.C,D51*%
X421386000Y-145923000D03*
D28*
X416306000Y-145923000D03*
%TD*%
D27*
%TO.C,D50*%
X431927000Y-133731000D03*
D28*
X426847000Y-133731000D03*
%TD*%
D27*
%TO.C,D49*%
X417449000Y-133731000D03*
D28*
X412369000Y-133731000D03*
%TD*%
D27*
%TO.C,D48*%
X402971000Y-133731000D03*
D28*
X397891000Y-133731000D03*
%TD*%
D27*
%TO.C,D47*%
X388493000Y-133731000D03*
D28*
X383413000Y-133731000D03*
%TD*%
D27*
%TO.C,D46*%
X374015000Y-133731000D03*
D28*
X368935000Y-133731000D03*
%TD*%
D27*
%TO.C,D45*%
X359537000Y-133731000D03*
D28*
X354457000Y-133731000D03*
%TD*%
D27*
%TO.C,D44*%
X180086000Y-146050000D03*
D28*
X185166000Y-146050000D03*
%TD*%
D27*
%TO.C,D43*%
X239903000Y-133858000D03*
D28*
X244983000Y-133858000D03*
%TD*%
D27*
%TO.C,D42*%
X225425000Y-133858000D03*
D28*
X230505000Y-133858000D03*
%TD*%
D27*
%TO.C,D41*%
X210947000Y-133858000D03*
D28*
X216027000Y-133858000D03*
%TD*%
D27*
%TO.C,D40*%
X184277000Y-133731000D03*
D28*
X189357000Y-133731000D03*
%TD*%
D27*
%TO.C,D39*%
X169672000Y-133858000D03*
D28*
X174752000Y-133858000D03*
%TD*%
D27*
%TO.C,D38*%
X155321000Y-133858000D03*
D28*
X160401000Y-133858000D03*
%TD*%
D27*
%TO.C,D37*%
X140716000Y-133858000D03*
D28*
X145796000Y-133858000D03*
%TD*%
D27*
%TO.C,D36*%
X126238000Y-133858000D03*
D28*
X131318000Y-133858000D03*
%TD*%
D27*
%TO.C,D35*%
X111760000Y-133858000D03*
D28*
X116840000Y-133858000D03*
%TD*%
D27*
%TO.C,D34*%
X419354000Y-141859000D03*
D28*
X414274000Y-141859000D03*
%TD*%
%TO.C,D33*%
X428752000Y-129667000D03*
D27*
X433832000Y-129667000D03*
%TD*%
%TO.C,D32*%
X419354000Y-129667000D03*
D28*
X414274000Y-129667000D03*
%TD*%
D27*
%TO.C,D31*%
X404876000Y-129667000D03*
D28*
X399796000Y-129667000D03*
%TD*%
D27*
%TO.C,D30*%
X390398000Y-129667000D03*
D28*
X385318000Y-129667000D03*
%TD*%
D27*
%TO.C,D29*%
X375920000Y-129667000D03*
D28*
X370840000Y-129667000D03*
%TD*%
D27*
%TO.C,D28*%
X361442000Y-129667000D03*
D28*
X356362000Y-129667000D03*
%TD*%
D27*
%TO.C,D27*%
X165608000Y-146050000D03*
D28*
X170688000Y-146050000D03*
%TD*%
D27*
%TO.C,D26*%
X237871000Y-129794000D03*
D28*
X242951000Y-129794000D03*
%TD*%
D27*
%TO.C,D25*%
X223393000Y-129794000D03*
D28*
X228473000Y-129794000D03*
%TD*%
D27*
%TO.C,D24*%
X208915000Y-129794000D03*
D28*
X213995000Y-129794000D03*
%TD*%
D27*
%TO.C,D23*%
X182245000Y-129667000D03*
D28*
X187325000Y-129667000D03*
%TD*%
D27*
%TO.C,D22*%
X167640000Y-129794000D03*
D28*
X172720000Y-129794000D03*
%TD*%
D27*
%TO.C,D21*%
X153289000Y-129794000D03*
D28*
X158369000Y-129794000D03*
%TD*%
D27*
%TO.C,D20*%
X138684000Y-129794000D03*
D28*
X143764000Y-129794000D03*
%TD*%
D27*
%TO.C,D19*%
X124206000Y-129794000D03*
D28*
X129286000Y-129794000D03*
%TD*%
D27*
%TO.C,D18*%
X109728000Y-129794000D03*
D28*
X114808000Y-129794000D03*
%TD*%
D27*
%TO.C,D17*%
X407035000Y-145923000D03*
D28*
X401955000Y-145923000D03*
%TD*%
D27*
%TO.C,D16*%
X435991000Y-125603000D03*
D28*
X430911000Y-125603000D03*
%TD*%
D27*
%TO.C,D15*%
X421513000Y-125603000D03*
D28*
X416433000Y-125603000D03*
%TD*%
D27*
%TO.C,D14*%
X407035000Y-125603000D03*
D28*
X401955000Y-125603000D03*
%TD*%
D27*
%TO.C,D13*%
X392557000Y-125603000D03*
D28*
X387477000Y-125603000D03*
%TD*%
D27*
%TO.C,D12*%
X378079000Y-125603000D03*
D28*
X372999000Y-125603000D03*
%TD*%
D27*
%TO.C,D11*%
X363601000Y-125603000D03*
D28*
X358521000Y-125603000D03*
%TD*%
D27*
%TO.C,D10*%
X151130000Y-146050000D03*
D28*
X156210000Y-146050000D03*
%TD*%
D27*
%TO.C,D9*%
X235839000Y-125730000D03*
D28*
X240919000Y-125730000D03*
%TD*%
D27*
%TO.C,D8*%
X221361000Y-125730000D03*
D28*
X226441000Y-125730000D03*
%TD*%
D27*
%TO.C,D7*%
X206883000Y-125730000D03*
D28*
X211963000Y-125730000D03*
%TD*%
D27*
%TO.C,D6*%
X180213000Y-125603000D03*
D28*
X185293000Y-125603000D03*
%TD*%
D27*
%TO.C,D5*%
X165608000Y-125730000D03*
D28*
X170688000Y-125730000D03*
%TD*%
D27*
%TO.C,D4*%
X151257000Y-125730000D03*
D28*
X156337000Y-125730000D03*
%TD*%
D27*
%TO.C,D3*%
X136652000Y-125730000D03*
D28*
X141732000Y-125730000D03*
%TD*%
D27*
%TO.C,D2*%
X122301000Y-125730000D03*
D28*
X127381000Y-125730000D03*
%TD*%
D27*
%TO.C,D1*%
X107696000Y-125730000D03*
D28*
X112776000Y-125730000D03*
%TD*%
D29*
%TO.C,Y1*%
X311785000Y-126365000D03*
X316665000Y-126365000D03*
%TD*%
D30*
%TO.C,SW1*%
X258214000Y-124714000D03*
X258214000Y-129214000D03*
X251714000Y-124714000D03*
X251714000Y-129214000D03*
%TD*%
%TO.C,SW2*%
X258214000Y-133604000D03*
X258214000Y-138104000D03*
X251714000Y-133604000D03*
X251714000Y-138104000D03*
%TD*%
D23*
%TO.C,F14*%
X262128000Y-133340000D03*
X262128000Y-138440000D03*
%TD*%
D31*
%TO.C,J2*%
X322707000Y-127381000D03*
D16*
X322707000Y-124841000D03*
X325247000Y-127381000D03*
X325247000Y-124841000D03*
X327787000Y-127381000D03*
X327787000Y-124841000D03*
%TD*%
D23*
%TO.C,R2*%
X282956000Y-138176000D03*
D24*
X290576000Y-138176000D03*
%TD*%
D23*
%TO.C,R3*%
X282956000Y-132461000D03*
D24*
X290576000Y-132461000D03*
%TD*%
D23*
%TO.C,R4*%
X282956000Y-129540000D03*
D24*
X290576000Y-129540000D03*
%TD*%
D23*
%TO.C,R5*%
X282956000Y-140970000D03*
D24*
X290576000Y-140970000D03*
%TD*%
D23*
%TO.C,R6*%
X282956000Y-135255000D03*
D24*
X290576000Y-135255000D03*
%TD*%
D23*
%TO.C,R7*%
X282956000Y-143764000D03*
D24*
X290576000Y-143764000D03*
%TD*%
D32*
%TO.C,C1*%
X306538000Y-127635000D03*
X304038000Y-127635000D03*
%TD*%
D33*
%TO.C,C3*%
X258802000Y-144526000D03*
D34*
X257302000Y-144526000D03*
%TD*%
D32*
%TO.C,C5*%
X275637000Y-139446000D03*
X270637000Y-139446000D03*
%TD*%
%TO.C,C4*%
X275637000Y-142621000D03*
X270637000Y-142621000D03*
%TD*%
%TO.C,C2*%
X306665000Y-124714000D03*
X304165000Y-124714000D03*
%TD*%
D16*
%TO.C,hash1*%
X356616000Y-226060000D03*
X346456000Y-226060000D03*
D17*
X351536000Y-226060000D03*
D18*
X347726000Y-223520000D03*
X354076000Y-220980000D03*
%TD*%
D16*
%TO.C,\u00AC\u00BA11*%
X113665000Y-187960000D03*
X103505000Y-187960000D03*
D17*
X108585000Y-187960000D03*
D18*
X104775000Y-185420000D03*
X111125000Y-182880000D03*
%TD*%
D16*
%TO.C,Z1*%
X156591000Y-245110000D03*
X146431000Y-245110000D03*
D17*
X151511000Y-245110000D03*
D18*
X147701000Y-242570000D03*
X154051000Y-240030000D03*
%TD*%
D16*
%TO.C,Y2*%
X237490000Y-207010000D03*
X227330000Y-207010000D03*
D17*
X232410000Y-207010000D03*
D18*
X228600000Y-204470000D03*
X234950000Y-201930000D03*
%TD*%
D16*
%TO.C,X1*%
X175641000Y-245110000D03*
X165481000Y-245110000D03*
D17*
X170561000Y-245110000D03*
D18*
X166751000Y-242570000D03*
X173101000Y-240030000D03*
%TD*%
D16*
%TO.C,WINALT1*%
X142367000Y-264160000D03*
X132207000Y-264160000D03*
D17*
X137287000Y-264160000D03*
D18*
X133477000Y-261620000D03*
X139827000Y-259080000D03*
%TD*%
D16*
%TO.C,WIN2*%
X330327000Y-264160000D03*
X320167000Y-264160000D03*
D17*
X325247000Y-264160000D03*
D18*
X321437000Y-261620000D03*
X327787000Y-259080000D03*
%TD*%
D16*
%TO.C,WIN1*%
X139954000Y-264160000D03*
X129794000Y-264160000D03*
D17*
X134874000Y-264160000D03*
D18*
X131064000Y-261620000D03*
X137414000Y-259080000D03*
%TD*%
D16*
%TO.C,W1*%
X161290000Y-207010000D03*
X151130000Y-207010000D03*
D17*
X156210000Y-207010000D03*
D18*
X152400000Y-204470000D03*
X158750000Y-201930000D03*
%TD*%
D16*
%TO.C,V1*%
X213741000Y-245110000D03*
X203581000Y-245110000D03*
D17*
X208661000Y-245110000D03*
D18*
X204851000Y-242570000D03*
X211201000Y-240030000D03*
%TD*%
D16*
%TO.C,U2*%
X256540000Y-207010000D03*
X246380000Y-207010000D03*
D17*
X251460000Y-207010000D03*
D18*
X247650000Y-204470000D03*
X254000000Y-201930000D03*
%TD*%
D28*
%TO.C,U1*%
X344424000Y-131826000D03*
D27*
X296164000Y-147066000D03*
X341884000Y-131826000D03*
X298704000Y-147066000D03*
X339344000Y-131826000D03*
X301244000Y-147066000D03*
X336804000Y-131826000D03*
X303784000Y-147066000D03*
X334264000Y-131826000D03*
X306324000Y-147066000D03*
X331724000Y-131826000D03*
X308864000Y-147066000D03*
X329184000Y-131826000D03*
X311404000Y-147066000D03*
X326644000Y-131826000D03*
X313944000Y-147066000D03*
X324104000Y-131826000D03*
X316484000Y-147066000D03*
X321564000Y-131826000D03*
X319024000Y-147066000D03*
X319024000Y-131826000D03*
X321564000Y-147066000D03*
X316484000Y-131826000D03*
X324104000Y-147066000D03*
X313944000Y-131826000D03*
X326644000Y-147066000D03*
X311404000Y-131826000D03*
X329184000Y-147066000D03*
X308864000Y-131826000D03*
X331724000Y-147066000D03*
X306324000Y-131826000D03*
X334264000Y-147066000D03*
X303784000Y-131826000D03*
X336804000Y-147066000D03*
X301244000Y-131826000D03*
X339344000Y-147066000D03*
X298704000Y-131826000D03*
X341884000Y-147066000D03*
X296164000Y-131826000D03*
X344424000Y-147066000D03*
%TD*%
D16*
%TO.C,TOP1*%
X423291000Y-245110000D03*
X413131000Y-245110000D03*
D17*
X418211000Y-245110000D03*
D18*
X414401000Y-242570000D03*
X420751000Y-240030000D03*
%TD*%
D16*
%TO.C,TAB1*%
X118491000Y-207010000D03*
X108331000Y-207010000D03*
D17*
X113411000Y-207010000D03*
D18*
X109601000Y-204470000D03*
X115951000Y-201930000D03*
%TD*%
D16*
%TO.C,T1*%
X218440000Y-207010000D03*
X208280000Y-207010000D03*
D17*
X213360000Y-207010000D03*
D18*
X209550000Y-204470000D03*
X215900000Y-201930000D03*
%TD*%
D16*
%TO.C,STEPPED1*%
X116078000Y-226060000D03*
X105918000Y-226060000D03*
D17*
X110998000Y-226060000D03*
D18*
X107188000Y-223520000D03*
X113538000Y-220980000D03*
%TD*%
D16*
%TO.C,SPACE7U1*%
X235204000Y-264160000D03*
X225044000Y-264160000D03*
D17*
X230124000Y-264160000D03*
D18*
X226314000Y-261620000D03*
X232664000Y-259080000D03*
%TD*%
D16*
%TO.C,SPACE1*%
X247015000Y-264160000D03*
X236855000Y-264160000D03*
D17*
X241935000Y-264160000D03*
D18*
X238125000Y-261620000D03*
X244475000Y-259080000D03*
%TD*%
D16*
%TO.C,SHIFT2*%
X354203000Y-245110000D03*
X344043000Y-245110000D03*
D17*
X349123000Y-245110000D03*
D18*
X345313000Y-242570000D03*
X351663000Y-240030000D03*
%TD*%
D16*
%TO.C,SHIFT1*%
X116078000Y-245110000D03*
X105918000Y-245110000D03*
D17*
X110998000Y-245110000D03*
D18*
X107188000Y-242570000D03*
X113538000Y-240030000D03*
%TD*%
D16*
%TO.C,S1*%
X166116000Y-226060000D03*
X155956000Y-226060000D03*
D17*
X161036000Y-226060000D03*
D18*
X157226000Y-223520000D03*
X163576000Y-220980000D03*
%TD*%
D16*
%TO.C,RIGJT1*%
X442341000Y-264160000D03*
X432181000Y-264160000D03*
D17*
X437261000Y-264160000D03*
D18*
X433451000Y-261620000D03*
X439801000Y-259080000D03*
%TD*%
D16*
%TO.C,RCTRLALT1*%
X375539000Y-264160000D03*
X365379000Y-264160000D03*
D17*
X370459000Y-264160000D03*
D18*
X366649000Y-261620000D03*
X372999000Y-259080000D03*
%TD*%
D16*
%TO.C,RCTRL1*%
X378079000Y-264160000D03*
X367919000Y-264160000D03*
D17*
X372999000Y-264160000D03*
D18*
X369189000Y-261620000D03*
X375539000Y-259080000D03*
%TD*%
D16*
%TO.C,R1*%
X199390000Y-207010000D03*
X189230000Y-207010000D03*
D17*
X194310000Y-207010000D03*
D18*
X190500000Y-204470000D03*
X196850000Y-201930000D03*
%TD*%
D16*
%TO.C,Q1*%
X142240000Y-207010000D03*
X132080000Y-207010000D03*
D17*
X137160000Y-207010000D03*
D18*
X133350000Y-204470000D03*
X139700000Y-201930000D03*
%TD*%
D16*
%TO.C,PRTSC1*%
X404241000Y-159385000D03*
X394081000Y-159385000D03*
D17*
X399161000Y-159385000D03*
D18*
X395351000Y-156845000D03*
X401701000Y-154305000D03*
%TD*%
D16*
%TO.C,PGDN1*%
X442341000Y-207010000D03*
X432181000Y-207010000D03*
D17*
X437261000Y-207010000D03*
D18*
X433451000Y-204470000D03*
X439801000Y-201930000D03*
%TD*%
D16*
%TO.C,PAUSE1*%
X442341000Y-159385000D03*
X432181000Y-159385000D03*
D17*
X437261000Y-159385000D03*
D18*
X433451000Y-156845000D03*
X439801000Y-154305000D03*
%TD*%
D16*
%TO.C,PAGEUP1*%
X442341000Y-187960000D03*
X432181000Y-187960000D03*
D17*
X437261000Y-187960000D03*
D18*
X433451000Y-185420000D03*
X439801000Y-182880000D03*
%TD*%
D16*
%TO.C,P1*%
X313690000Y-207010000D03*
X303530000Y-207010000D03*
D17*
X308610000Y-207010000D03*
D18*
X304800000Y-204470000D03*
X311150000Y-201930000D03*
%TD*%
D16*
%TO.C,O1*%
X294640000Y-207010000D03*
X284480000Y-207010000D03*
D17*
X289560000Y-207010000D03*
D18*
X285750000Y-204470000D03*
X292100000Y-201930000D03*
%TD*%
D16*
%TO.C,NUM9*%
X285115000Y-187960000D03*
X274955000Y-187960000D03*
D17*
X280035000Y-187960000D03*
D18*
X276225000Y-185420000D03*
X282575000Y-182880000D03*
%TD*%
D16*
%TO.C,NUM8*%
X266065000Y-187960000D03*
X255905000Y-187960000D03*
D17*
X260985000Y-187960000D03*
D18*
X257175000Y-185420000D03*
X263525000Y-182880000D03*
%TD*%
D16*
%TO.C,NUM7*%
X247015000Y-187960000D03*
X236855000Y-187960000D03*
D17*
X241935000Y-187960000D03*
D18*
X238125000Y-185420000D03*
X244475000Y-182880000D03*
%TD*%
D16*
%TO.C,NUM6*%
X227965000Y-187960000D03*
X217805000Y-187960000D03*
D17*
X222885000Y-187960000D03*
D18*
X219075000Y-185420000D03*
X225425000Y-182880000D03*
%TD*%
D16*
%TO.C,NUM5*%
X208915000Y-187960000D03*
X198755000Y-187960000D03*
D17*
X203835000Y-187960000D03*
D18*
X200025000Y-185420000D03*
X206375000Y-182880000D03*
%TD*%
D16*
%TO.C,NUM4*%
X189865000Y-187960000D03*
X179705000Y-187960000D03*
D17*
X184785000Y-187960000D03*
D18*
X180975000Y-185420000D03*
X187325000Y-182880000D03*
%TD*%
D16*
%TO.C,NUM3*%
X170815000Y-187960000D03*
X160655000Y-187960000D03*
D17*
X165735000Y-187960000D03*
D18*
X161925000Y-185420000D03*
X168275000Y-182880000D03*
%TD*%
D16*
%TO.C,NUM2*%
X151765000Y-187960000D03*
X141605000Y-187960000D03*
D17*
X146685000Y-187960000D03*
D18*
X142875000Y-185420000D03*
X149225000Y-182880000D03*
%TD*%
D16*
%TO.C,NUM1*%
X132715000Y-187960000D03*
X122555000Y-187960000D03*
D17*
X127635000Y-187960000D03*
D18*
X123825000Y-185420000D03*
X130175000Y-182880000D03*
%TD*%
D16*
%TO.C,NUM0*%
X304165000Y-187960000D03*
X294005000Y-187960000D03*
D17*
X299085000Y-187960000D03*
D18*
X295275000Y-185420000D03*
X301625000Y-182880000D03*
%TD*%
D16*
%TO.C,N1*%
X251841000Y-245110000D03*
X241681000Y-245110000D03*
D17*
X246761000Y-245110000D03*
D18*
X242951000Y-242570000D03*
X249301000Y-240030000D03*
%TD*%
D16*
%TO.C,MENUALT1*%
X351917000Y-264160000D03*
X341757000Y-264160000D03*
D17*
X346837000Y-264160000D03*
D18*
X343027000Y-261620000D03*
X349377000Y-259080000D03*
%TD*%
D16*
%TO.C,MENU1*%
X354203000Y-264160000D03*
X344043000Y-264160000D03*
D17*
X349123000Y-264160000D03*
D18*
X345313000Y-261620000D03*
X351663000Y-259080000D03*
%TD*%
D16*
%TO.C,M1*%
X270891000Y-245110000D03*
X260731000Y-245110000D03*
D17*
X265811000Y-245110000D03*
D18*
X262001000Y-242570000D03*
X268351000Y-240030000D03*
%TD*%
D16*
%TO.C,LEFT1*%
X404241000Y-264160000D03*
X394081000Y-264160000D03*
D17*
X399161000Y-264160000D03*
D18*
X395351000Y-261620000D03*
X401701000Y-259080000D03*
%TD*%
D16*
%TO.C,LCTRLALT1*%
X116078000Y-264160000D03*
X105918000Y-264160000D03*
D17*
X110998000Y-264160000D03*
D18*
X107188000Y-261620000D03*
X113538000Y-259080000D03*
%TD*%
D16*
%TO.C,L1*%
X299466000Y-226060000D03*
X289306000Y-226060000D03*
D17*
X294386000Y-226060000D03*
D18*
X290576000Y-223520000D03*
X296926000Y-220980000D03*
%TD*%
D16*
%TO.C,K1*%
X280416000Y-226060000D03*
X270256000Y-226060000D03*
D17*
X275336000Y-226060000D03*
D18*
X271526000Y-223520000D03*
X277876000Y-220980000D03*
%TD*%
D16*
%TO.C,J1*%
X261366000Y-226060000D03*
X251206000Y-226060000D03*
D17*
X256286000Y-226060000D03*
D18*
X252476000Y-223520000D03*
X258826000Y-220980000D03*
%TD*%
D16*
%TO.C,INSERT1*%
X404241000Y-187960000D03*
X394081000Y-187960000D03*
D17*
X399161000Y-187960000D03*
D18*
X395351000Y-185420000D03*
X401701000Y-182880000D03*
%TD*%
D16*
%TO.C,I1*%
X275590000Y-207010000D03*
X265430000Y-207010000D03*
D17*
X270510000Y-207010000D03*
D18*
X266700000Y-204470000D03*
X273050000Y-201930000D03*
%TD*%
D16*
%TO.C,HOME1*%
X423291000Y-187960000D03*
X413131000Y-187960000D03*
D17*
X418211000Y-187960000D03*
D18*
X414401000Y-185420000D03*
X420751000Y-182880000D03*
%TD*%
D16*
%TO.C,H1*%
X242316000Y-226060000D03*
X232156000Y-226060000D03*
D17*
X237236000Y-226060000D03*
D18*
X233426000Y-223520000D03*
X239776000Y-220980000D03*
%TD*%
D16*
%TO.C,G1*%
X223266000Y-226060000D03*
X213106000Y-226060000D03*
D17*
X218186000Y-226060000D03*
D18*
X214376000Y-223520000D03*
X220726000Y-220980000D03*
%TD*%
D16*
%TO.C,FN1*%
X380365000Y-245110000D03*
X370205000Y-245110000D03*
D17*
X375285000Y-245110000D03*
D18*
X371475000Y-242570000D03*
X377825000Y-240030000D03*
%TD*%
D16*
%TO.C,F13*%
X204216000Y-226060000D03*
X194056000Y-226060000D03*
D17*
X199136000Y-226060000D03*
D18*
X195326000Y-223520000D03*
X201676000Y-220980000D03*
%TD*%
D16*
%TO.C,F12*%
X380365000Y-159385000D03*
X370205000Y-159385000D03*
D17*
X375285000Y-159385000D03*
D18*
X371475000Y-156845000D03*
X377825000Y-154305000D03*
%TD*%
D16*
%TO.C,F11*%
X361315000Y-159385000D03*
X351155000Y-159385000D03*
D17*
X356235000Y-159385000D03*
D18*
X352425000Y-156845000D03*
X358775000Y-154305000D03*
%TD*%
D16*
%TO.C,F10*%
X342265000Y-159385000D03*
X332105000Y-159385000D03*
D17*
X337185000Y-159385000D03*
D18*
X333375000Y-156845000D03*
X339725000Y-154305000D03*
%TD*%
D16*
%TO.C,F9*%
X323215000Y-159385000D03*
X313055000Y-159385000D03*
D17*
X318135000Y-159385000D03*
D18*
X314325000Y-156845000D03*
X320675000Y-154305000D03*
%TD*%
D16*
%TO.C,F8*%
X294640000Y-159385000D03*
X284480000Y-159385000D03*
D17*
X289560000Y-159385000D03*
D18*
X285750000Y-156845000D03*
X292100000Y-154305000D03*
%TD*%
D16*
%TO.C,F7*%
X275717000Y-159385000D03*
X265557000Y-159385000D03*
D17*
X270637000Y-159385000D03*
D18*
X266827000Y-156845000D03*
X273177000Y-154305000D03*
%TD*%
D16*
%TO.C,F6*%
X256667000Y-159385000D03*
X246507000Y-159385000D03*
D17*
X251587000Y-159385000D03*
D18*
X247777000Y-156845000D03*
X254127000Y-154305000D03*
%TD*%
D16*
%TO.C,F5*%
X237617000Y-159385000D03*
X227457000Y-159385000D03*
D17*
X232537000Y-159385000D03*
D18*
X228727000Y-156845000D03*
X235077000Y-154305000D03*
%TD*%
D16*
%TO.C,F4*%
X209042000Y-159385000D03*
X198882000Y-159385000D03*
D17*
X203962000Y-159385000D03*
D18*
X200152000Y-156845000D03*
X206502000Y-154305000D03*
%TD*%
D16*
%TO.C,F3*%
X189865000Y-159385000D03*
X179705000Y-159385000D03*
D17*
X184785000Y-159385000D03*
D18*
X180975000Y-156845000D03*
X187325000Y-154305000D03*
%TD*%
D16*
%TO.C,F2*%
X170815000Y-159385000D03*
X160655000Y-159385000D03*
D17*
X165735000Y-159385000D03*
D18*
X161925000Y-156845000D03*
X168275000Y-154305000D03*
%TD*%
D16*
%TO.C,F1*%
X151765000Y-159385000D03*
X141605000Y-159385000D03*
D17*
X146685000Y-159385000D03*
D18*
X142875000Y-156845000D03*
X149225000Y-154305000D03*
%TD*%
D16*
%TO.C,ESC1*%
X113665000Y-159385000D03*
X103505000Y-159385000D03*
D17*
X108585000Y-159385000D03*
D18*
X104775000Y-156845000D03*
X111125000Y-154305000D03*
%TD*%
D16*
%TO.C,ENTERISOALT1*%
X375666000Y-207010000D03*
X365506000Y-207010000D03*
D17*
X370586000Y-207010000D03*
D18*
X366776000Y-204470000D03*
X373126000Y-201930000D03*
%TD*%
D16*
%TO.C,END1*%
X423291000Y-207010000D03*
X413131000Y-207010000D03*
D17*
X418211000Y-207010000D03*
D18*
X414401000Y-204470000D03*
X420751000Y-201930000D03*
%TD*%
D16*
%TO.C,E1*%
X180340000Y-207010000D03*
X170180000Y-207010000D03*
D17*
X175260000Y-207010000D03*
D18*
X171450000Y-204470000D03*
X177800000Y-201930000D03*
%TD*%
D16*
%TO.C,DELETE1*%
X380365000Y-187960000D03*
X370205000Y-187960000D03*
D17*
X375285000Y-187960000D03*
D18*
X371475000Y-185420000D03*
X377825000Y-182880000D03*
%TD*%
D16*
%TO.C,DDELETE1*%
X404241000Y-207010000D03*
X394081000Y-207010000D03*
D17*
X399161000Y-207010000D03*
D18*
X395351000Y-204470000D03*
X401701000Y-201930000D03*
%TD*%
D16*
%TO.C,D52*%
X185166000Y-226060000D03*
X175006000Y-226060000D03*
D17*
X180086000Y-226060000D03*
D18*
X176276000Y-223520000D03*
X182626000Y-220980000D03*
%TD*%
D16*
%TO.C,CTRL1*%
X118491000Y-264160000D03*
X108331000Y-264160000D03*
D17*
X113411000Y-264160000D03*
D18*
X109601000Y-261620000D03*
X115951000Y-259080000D03*
%TD*%
D16*
%TO.C,CAPSLOCK1*%
X120904000Y-226060000D03*
X110744000Y-226060000D03*
D17*
X115824000Y-226060000D03*
D18*
X112014000Y-223520000D03*
X118364000Y-220980000D03*
%TD*%
D16*
%TO.C,C6*%
X194691000Y-245110000D03*
X184531000Y-245110000D03*
D17*
X189611000Y-245110000D03*
D18*
X185801000Y-242570000D03*
X192151000Y-240030000D03*
%TD*%
D16*
%TO.C,BOTTOM1*%
X423291000Y-264160000D03*
X413131000Y-264160000D03*
D17*
X418211000Y-264160000D03*
D18*
X414401000Y-261620000D03*
X420751000Y-259080000D03*
%TD*%
D16*
%TO.C,BACKSPACEALT1*%
X361315000Y-187960000D03*
X351155000Y-187960000D03*
D17*
X356235000Y-187960000D03*
D18*
X352425000Y-185420000D03*
X358775000Y-182880000D03*
%TD*%
D16*
%TO.C,B1*%
X232791000Y-245110000D03*
X222631000Y-245110000D03*
D17*
X227711000Y-245110000D03*
D18*
X223901000Y-242570000D03*
X230251000Y-240030000D03*
%TD*%
D16*
%TO.C,ALTGR1*%
X306578000Y-264160000D03*
X296418000Y-264160000D03*
D17*
X301498000Y-264160000D03*
D18*
X297688000Y-261620000D03*
X304038000Y-259080000D03*
%TD*%
D16*
%TO.C,ALTALT1*%
X166116000Y-264160000D03*
X155956000Y-264160000D03*
D17*
X161036000Y-264160000D03*
D18*
X157226000Y-261620000D03*
X163576000Y-259080000D03*
%TD*%
D16*
%TO.C,ALT1*%
X163703000Y-264160000D03*
X153543000Y-264160000D03*
D17*
X158623000Y-264160000D03*
D18*
X154813000Y-261620000D03*
X161163000Y-259080000D03*
%TD*%
D16*
%TO.C,A1*%
X147066000Y-226060000D03*
X136906000Y-226060000D03*
D17*
X141986000Y-226060000D03*
D18*
X138176000Y-223520000D03*
X144526000Y-220980000D03*
%TD*%
D16*
%TO.C,]1*%
X351917000Y-207010000D03*
X341757000Y-207010000D03*
D17*
X346837000Y-207010000D03*
D18*
X343027000Y-204470000D03*
X349377000Y-201930000D03*
%TD*%
D16*
%TO.C,\u005C<1*%
X137541000Y-245110000D03*
X127381000Y-245110000D03*
D17*
X132461000Y-245110000D03*
D18*
X128651000Y-242570000D03*
X135001000Y-240030000D03*
%TD*%
D16*
%TO.C,[1*%
X332740000Y-207010000D03*
X322580000Y-207010000D03*
D17*
X327660000Y-207010000D03*
D18*
X323850000Y-204470000D03*
X330200000Y-201930000D03*
%TD*%
D16*
%TO.C,@1*%
X337566000Y-226060000D03*
X327406000Y-226060000D03*
D17*
X332486000Y-226060000D03*
D18*
X328676000Y-223520000D03*
X335026000Y-220980000D03*
%TD*%
D16*
%TO.C,=1*%
X342265000Y-187960000D03*
X332105000Y-187960000D03*
D17*
X337185000Y-187960000D03*
D18*
X333375000Y-185420000D03*
X339725000Y-182880000D03*
%TD*%
D16*
%TO.C,:1*%
X318516000Y-226060000D03*
X308356000Y-226060000D03*
D17*
X313436000Y-226060000D03*
D18*
X309626000Y-223520000D03*
X315976000Y-220980000D03*
%TD*%
D16*
%TO.C,/1*%
X328041000Y-245110000D03*
X317881000Y-245110000D03*
D17*
X322961000Y-245110000D03*
D18*
X319151000Y-242570000D03*
X325501000Y-240030000D03*
%TD*%
D16*
%TO.C,-1*%
X323215000Y-187960000D03*
X313055000Y-187960000D03*
D17*
X318135000Y-187960000D03*
D18*
X314325000Y-185420000D03*
X320675000Y-182880000D03*
%TD*%
D16*
%TO.C,.1*%
X308991000Y-245110000D03*
X298831000Y-245110000D03*
D17*
X303911000Y-245110000D03*
D18*
X300101000Y-242570000D03*
X306451000Y-240030000D03*
%TD*%
D16*
%TO.C,\u002C1*%
X289941000Y-245110000D03*
X279781000Y-245110000D03*
D17*
X284861000Y-245110000D03*
D18*
X281051000Y-242570000D03*
X287401000Y-240030000D03*
%TD*%
M02*
