M48
; DRILL file {KiCad (5.1.8)-1} date 12/24/20 13:39:20
; FORMAT={-:-/ absolute / inch / decimal}
; #@! TF.CreationDate,2020-12-24T13:39:20+01:00
; #@! TF.GenerationSoftware,Kicad,Pcbnew,(5.1.8)-1
; #@! TF.FileFunction,Plated,1,2,PTH
FMAT,2
INCH
T1C0.0157
T2C0.0236
T3C0.0276
T4C0.0315
T5C0.0354
T6C0.0400
T7C0.0409
T8C0.0433
T9C0.0579
T10C0.0591
%
G90
G05
T1
X7.83Y-6.68
X8.31Y-6.59
X8.72Y-5.89
X9.13Y-6.59
X9.19Y-4.95
X9.19Y-5.72
X9.19Y-5.78
X9.47Y-4.87
X9.49Y-6.59
X9.54Y-5.02
X9.59Y-4.97
X9.81Y-5.5
X9.88Y-6.59
X10.12Y-6.5
X10.41Y-5.61
X10.46Y-5.65
X10.71Y-6.5
X10.87Y-6.5
X10.91Y-6.02
X10.94Y-5.11
X11.26Y-5.92
X11.32Y-6.04
X11.45Y-6.5
X12.33Y-5.9986
X12.42Y-6.03
X12.46Y-5.45
X12.46Y-5.93
X12.5Y-5.31
X12.53Y-5.51
X12.59Y-5.06
X12.7Y-5.85
X12.75Y-5.51
X13.02Y-5.51
X13.36Y-4.99
X13.36Y-5.88
X13.39Y-5.92
X13.94Y-4.89
X14.13Y-5.02
X15.17Y-7.02
X15.45Y-6.74
X16.61Y-6.43
X16.96Y-6.61
X17.1593Y-5.25
X17.36Y-6.64
X17.5Y-5.97
X10.6277Y-5.008
X10.6279Y-5.0602
X10.6611Y-5.008
X10.6613Y-5.0602
X10.6946Y-5.008
X10.6948Y-5.0602
X10.7281Y-5.008
X10.7283Y-5.0602
X10.7615Y-5.008
X10.7617Y-5.0602
X10.795Y-5.008
X10.7952Y-5.0602
X10.8285Y-5.008
X10.8287Y-5.0602
X10.8621Y-5.008
X10.8621Y-5.0602
T2
X10.13Y-5.69
X10.1891Y-5.69
T3
X11.14Y-5.55
X11.44Y-5.55
X11.14Y-5.44
X11.44Y-5.44
X11.14Y-5.1
X11.44Y-5.1
X10.32Y-5.2496
X10.32Y-5.4504
X11.14Y-5.66
X11.44Y-5.66
X11.14Y-5.215
X11.44Y-5.215
X11.14Y-5.325
X11.44Y-5.325
X11.14Y-4.99
X11.44Y-4.99
T4
X8.225Y-5.11
X8.425Y-5.11
X6.115Y-5.43
X6.315Y-5.43
X16.39Y-5.745
X16.59Y-5.745
X15.745Y-5.585
X15.945Y-5.585
X15.255Y-5.745
X15.455Y-5.745
X4.24Y-4.95
X4.44Y-4.95
X8.225Y-5.59
X8.425Y-5.59
X16.31Y-5.105
X16.51Y-5.105
X7.17Y-5.59
X7.37Y-5.59
X16.31Y-5.585
X16.51Y-5.585
X15.255Y-4.945
X15.455Y-4.945
X4.97Y-5.43
X5.17Y-5.43
X4.89Y-5.59
X5.09Y-5.59
X9.365Y-5.11
X9.565Y-5.11
X8.875Y-5.43
X9.075Y-5.43
X5.54Y-5.43
X5.74Y-5.43
X7.095Y-4.945
X7.295Y-4.945
X16.235Y-5.425
X16.435Y-5.425
X5.955Y-4.95
X6.155Y-4.95
X6.6Y-5.59
X6.8Y-5.59
X4.4Y-5.27
X4.6Y-5.27
X14.115Y-4.945
X14.315Y-4.945
X8.795Y-5.59
X8.995Y-5.59
X16.88Y-5.105
X17.08Y-5.105
X16.965Y-4.945
X17.165Y-4.945
X8.305Y-5.43
X8.505Y-5.43
X9.285Y-4.95
X9.485Y-4.95
X8.72Y-5.75
X8.92Y-5.75
X7.255Y-5.425
X7.455Y-5.425
X8.15Y-5.75
X8.35Y-5.75
X8.715Y-4.95
X8.915Y-4.95
X16.965Y-5.745
X17.165Y-5.745
X4.815Y-4.95
X5.015Y-4.95
X14.03Y-5.105
X14.23Y-5.105
X15.175Y-5.585
X15.375Y-5.585
X4.97Y-5.27
X5.17Y-5.27
X15.825Y-4.945
X16.025Y-4.945
X14.03Y-5.585
X14.23Y-5.585
X5.54Y-5.27
X5.74Y-5.27
X4.89Y-5.11
X5.09Y-5.11
X16.805Y-5.265
X17.005Y-5.265
X15.825Y-5.745
X16.025Y-5.745
X15.095Y-5.265
X15.295Y-5.265
X13.95Y-5.425
X14.15Y-5.425
X10.655Y-5.615
X10.8519Y-5.615
X14.685Y-5.745
X14.885Y-5.745
X14.11Y-5.745
X14.31Y-5.745
X6.52Y-4.95
X6.72Y-4.95
X7.255Y-5.265
X7.455Y-5.265
X9.365Y-5.59
X9.565Y-5.59
X6.115Y-5.27
X6.315Y-5.27
X16.395Y-4.945
X16.595Y-4.945
X15.665Y-5.425
X15.865Y-5.425
X9.445Y-5.27
X9.645Y-5.27
X4.32Y-5.11
X4.52Y-5.11
X6.68Y-5.43
X6.88Y-5.43
X8.795Y-5.11
X8.995Y-5.11
X9.445Y-5.43
X9.645Y-5.43
X10.655Y-5.49
X10.8519Y-5.49
X11.66Y-5.19
X11.66Y-5.79
X11.76Y-5.19
X11.76Y-5.79
X11.86Y-5.19
X11.86Y-5.79
X11.96Y-5.19
X11.96Y-5.79
X12.06Y-5.19
X12.06Y-5.79
X12.16Y-5.19
X12.16Y-5.79
X12.26Y-5.19
X12.26Y-5.79
X12.36Y-5.19
X12.36Y-5.79
X12.46Y-5.19
X12.46Y-5.79
X12.56Y-5.19
X12.56Y-5.79
X12.66Y-5.19
X12.66Y-5.79
X12.76Y-5.19
X12.76Y-5.79
X12.86Y-5.19
X12.86Y-5.79
X12.96Y-5.19
X12.96Y-5.79
X13.06Y-5.19
X13.06Y-5.79
X13.16Y-5.19
X13.16Y-5.79
X13.26Y-5.19
X13.26Y-5.79
X13.36Y-5.19
X13.36Y-5.79
X13.46Y-5.19
X13.46Y-5.79
X13.56Y-5.19
X13.56Y-5.79
X10.655Y-5.325
X10.855Y-5.325
X11.975Y-4.91
X12.0734Y-4.91
X5.38Y-5.75
X5.58Y-5.75
X8.145Y-4.95
X8.345Y-4.95
X5.46Y-5.59
X5.66Y-5.59
X14.6Y-5.105
X14.8Y-5.105
X14.605Y-5.585
X14.805Y-5.585
X6.68Y-5.27
X6.88Y-5.27
X6.6Y-5.11
X6.8Y-5.11
X16.805Y-5.425
X17.005Y-5.425
X15.17Y-5.105
X15.37Y-5.105
X5.46Y-5.11
X5.66Y-5.11
X13.955Y-5.265
X14.155Y-5.265
X5.95Y-5.75
X6.15Y-5.75
X16.235Y-5.265
X16.435Y-5.265
X12.275Y-4.975
X12.4671Y-4.975
X10.655Y-5.225
X10.855Y-5.225
X9.29Y-5.75
X9.49Y-5.75
X8.305Y-5.27
X8.505Y-5.27
X15.095Y-5.425
X15.295Y-5.425
X8.875Y-5.27
X9.075Y-5.27
X7.175Y-5.105
X7.375Y-5.105
X14.525Y-5.425
X14.725Y-5.425
X6.52Y-5.75
X6.72Y-5.75
X6.035Y-5.11
X6.235Y-5.11
X14.525Y-5.265
X14.725Y-5.265
X15.665Y-5.265
X15.865Y-5.265
X11.97Y-5.025
X12.0684Y-5.025
X4.81Y-5.75
X5.01Y-5.75
X16.885Y-5.585
X17.085Y-5.585
X5.38Y-4.95
X5.58Y-4.95
X6.035Y-5.59
X6.235Y-5.59
X15.74Y-5.105
X15.94Y-5.105
X4.24Y-5.75
X4.44Y-5.75
X7.09Y-5.75
X7.29Y-5.75
X14.685Y-4.945
X14.885Y-4.945
X4.4Y-5.43
X4.6Y-5.43
X4.32Y-5.59
X4.52Y-5.59
T5
X9.895Y-5.69
X9.995Y-5.69
T6
X12.705Y-4.915
X12.705Y-5.015
X12.805Y-4.915
X12.805Y-5.015
X12.905Y-4.915
X12.905Y-5.015
T7
X14.255Y-9.1
X14.355Y-9.1
X4.695Y-9.85
X4.795Y-9.85
X14.07Y-9.85
X14.17Y-9.85
X14.45Y-7.4
X14.55Y-7.4
X14.48Y-8.475
X14.48Y-8.575
T8
X9.91Y-4.91
X9.91Y-5.0872
X10.1659Y-4.91
X10.1659Y-5.0872
X9.91Y-5.26
X9.91Y-5.4372
X10.1659Y-5.26
X10.1659Y-5.4372
T9
X14.155Y-8.8
X14.2066Y-8.7425
X14.4034Y-8.7228
X14.405Y-8.7
X4.595Y-9.55
X4.6466Y-9.4925
X4.8434Y-9.4728
X4.845Y-9.45
X13.97Y-9.55
X14.0216Y-9.4925
X14.2184Y-9.4728
X14.22Y-9.45
X14.35Y-7.1
X14.4016Y-7.0425
X14.5984Y-7.0228
X14.6Y-7.0
X14.5816Y-8.7022
X14.7784Y-8.6825
X14.78Y-8.375
X14.8375Y-8.4266
X14.8572Y-8.6234
X14.88Y-8.625
T10
X8.44Y-8.8
X8.69Y-8.7
X15.565Y-6.175
X15.815Y-6.075
X9.19Y-8.8
X9.44Y-8.7
X7.5Y-8.05
X7.75Y-7.95
X10.875Y-7.3
X11.125Y-7.2
X7.315Y-9.55
X7.565Y-9.45
X8.065Y-9.55
X8.315Y-9.45
X9.565Y-9.55
X9.815Y-9.45
X14.44Y-8.05
X14.69Y-7.95
X9.0Y-8.05
X9.25Y-7.95
X14.625Y-6.175
X14.875Y-6.075
X6.095Y-10.3
X6.345Y-10.2
X13.69Y-8.8
X13.94Y-8.7
X6.375Y-6.175
X6.625Y-6.075
X16.315Y-6.175
X16.565Y-6.075
X10.5Y-8.05
X10.75Y-7.95
X4.22Y-9.55
X4.47Y-9.45
X4.22Y-10.3
X4.47Y-10.2
X9.005Y-6.175
X9.255Y-6.075
X12.375Y-7.3
X12.625Y-7.2
X6.0Y-8.05
X6.25Y-7.95
X9.375Y-7.3
X9.625Y-7.2
X7.125Y-6.175
X7.375Y-6.075
X6.19Y-8.8
X6.44Y-8.7
X16.315Y-7.3
X16.565Y-7.2
X4.315Y-10.3
X4.565Y-10.2
X8.815Y-9.55
X9.065Y-9.45
X12.56Y-10.3
X12.81Y-10.2
X6.375Y-7.3
X6.625Y-7.2
X5.25Y-8.05
X5.5Y-7.95
X10.505Y-6.175
X10.755Y-6.075
X14.535Y-10.3
X14.785Y-10.2
X9.755Y-6.175
X10.005Y-6.075
X14.625Y-7.3
X14.875Y-7.2
X12.655Y-10.3
X12.905Y-10.2
X11.25Y-8.05
X11.5Y-7.95
X13.875Y-7.3
X14.125Y-7.2
X13.595Y-9.55
X13.845Y-9.45
X7.69Y-8.8
X7.94Y-8.7
X12.19Y-8.8
X12.44Y-8.7
X17.065Y-7.3
X17.315Y-7.2
X14.435Y-10.3
X14.685Y-10.2
X15.565Y-7.3
X15.815Y-7.2
X4.22Y-8.8
X4.47Y-8.7
X11.25Y-6.175
X11.5Y-6.075
X5.065Y-9.55
X5.315Y-9.45
X9.375Y-10.3
X9.625Y-10.2
X12.375Y-6.175
X12.625Y-6.075
X13.125Y-7.3
X13.375Y-7.2
X6.565Y-9.55
X6.815Y-9.45
X13.595Y-10.3
X13.845Y-10.2
X7.88Y-6.175
X8.13Y-6.075
X16.315Y-9.55
X16.565Y-9.45
X5.625Y-7.3
X5.875Y-7.2
X12.94Y-8.8
X13.19Y-8.7
X17.065Y-6.175
X17.315Y-6.075
X16.315Y-8.05
X16.565Y-7.95
X6.75Y-8.05
X7.0Y-7.95
X17.065Y-10.3
X17.315Y-10.2
X10.69Y-8.8
X10.94Y-8.7
X4.125Y-7.3
X4.375Y-7.2
X13.875Y-6.175
X14.125Y-6.075
X5.625Y-6.175
X5.875Y-6.075
X8.91Y-10.3
X9.16Y-10.2
X13.505Y-10.3
X13.755Y-10.2
X11.72Y-10.3
X11.97Y-10.2
X11.44Y-8.8
X11.69Y-8.7
X12.565Y-9.55
X12.815Y-9.45
X9.75Y-8.05
X10.0Y-7.95
X14.625Y-9.55
X14.875Y-9.45
X13.505Y-8.05
X13.755Y-7.95
X11.815Y-9.55
X12.065Y-9.45
X4.315Y-8.05
X4.565Y-7.95
X7.125Y-7.3
X7.375Y-7.2
X9.94Y-8.8
X10.19Y-8.7
X11.065Y-9.55
X11.315Y-9.45
X8.25Y-8.05
X8.5Y-7.95
X10.315Y-9.55
X10.565Y-9.45
X6.19Y-10.3
X6.44Y-10.2
X5.815Y-9.55
X6.065Y-9.45
X8.625Y-7.3
X8.875Y-7.2
X5.44Y-8.8
X5.69Y-8.7
X5.16Y-10.3
X5.41Y-10.2
X11.625Y-7.3
X11.875Y-7.2
X16.315Y-10.3
X16.565Y-10.2
X7.875Y-7.3
X8.125Y-7.2
X17.065Y-8.05
X17.315Y-7.95
X13.125Y-6.175
X13.375Y-6.075
X15.565Y-10.3
X15.815Y-10.2
X12.75Y-8.05
X13.0Y-7.95
X10.125Y-7.3
X10.375Y-7.2
X6.94Y-8.8
X7.19Y-8.7
X12.0Y-8.05
X12.25Y-7.95
X4.125Y-6.175
X4.375Y-6.075
X5.255Y-10.3
X5.505Y-10.2
X4.875Y-7.3
X5.125Y-7.2
X4.41Y-8.8
X4.66Y-8.7
X15.565Y-8.05
X15.815Y-7.95
T2
G00X10.5747Y-4.9043
M15
G01X10.5747Y-4.8728
M16
G05
G00X10.5747Y-5.0511
M15
G01X10.5747Y-4.992
M16
G05
G00X10.9153Y-4.9043
M15
G01X10.9153Y-4.8728
M16
G05
G00X10.9153Y-5.0511
M15
G01X10.9153Y-4.992
M16
G05
T0
M30
