M48
; DRILL file {KiCad (5.1.8)-1} date 12/24/20 13:39:20
; FORMAT={-:-/ absolute / inch / decimal}
; #@! TF.CreationDate,2020-12-24T13:39:20+01:00
; #@! TF.GenerationSoftware,Kicad,Pcbnew,(5.1.8)-1
; #@! TF.FileFunction,NonPlated,1,2,NPTH
FMAT,2
INCH
T1C0.0669
T2C0.0670
T3C0.0689
T4C0.0866
T5C0.1200
T6C0.1570
T7C0.1575
%
G90
G05
T1
X16.265Y-6.275
X16.665Y-6.275
X10.45Y-8.15
X10.85Y-8.15
X4.17Y-9.65
X4.57Y-9.65
X4.17Y-10.4
X4.57Y-10.4
X8.955Y-6.275
X9.355Y-6.275
X12.325Y-7.4
X12.725Y-7.4
X5.95Y-8.15
X6.35Y-8.15
X9.325Y-7.4
X9.725Y-7.4
X7.075Y-6.275
X7.475Y-6.275
X6.14Y-8.9
X6.54Y-8.9
X16.265Y-7.4
X16.665Y-7.4
X4.265Y-10.4
X4.665Y-10.4
X8.765Y-9.65
X9.165Y-9.65
X12.51Y-10.4
X12.91Y-10.4
X6.325Y-7.4
X6.725Y-7.4
X5.2Y-8.15
X5.6Y-8.15
X10.455Y-6.275
X10.855Y-6.275
X14.485Y-10.4
X14.885Y-10.4
X9.705Y-6.275
X10.105Y-6.275
X14.575Y-7.4
X14.975Y-7.4
X12.605Y-10.4
X13.005Y-10.4
X11.2Y-8.15
X11.6Y-8.15
X13.825Y-7.4
X14.225Y-7.4
X13.545Y-9.65
X13.945Y-9.65
X7.64Y-8.9
X8.04Y-8.9
X12.14Y-8.9
X12.54Y-8.9
X17.015Y-7.4
X17.415Y-7.4
X14.385Y-10.4
X14.785Y-10.4
X15.515Y-7.4
X15.915Y-7.4
X4.17Y-8.9
X4.57Y-8.9
X11.2Y-6.275
X11.6Y-6.275
X5.015Y-9.65
X5.415Y-9.65
X9.325Y-10.4
X9.725Y-10.4
X12.325Y-6.275
X12.725Y-6.275
X13.075Y-7.4
X13.475Y-7.4
X6.515Y-9.65
X6.915Y-9.65
X13.545Y-10.4
X13.945Y-10.4
X7.83Y-6.275
X8.23Y-6.275
X16.265Y-9.65
X16.665Y-9.65
X5.575Y-7.4
X5.975Y-7.4
X12.89Y-8.9
X13.29Y-8.9
X17.015Y-6.275
X17.415Y-6.275
X16.265Y-8.15
X16.665Y-8.15
X6.7Y-8.15
X7.1Y-8.15
X17.015Y-10.4
X17.415Y-10.4
X10.64Y-8.9
X11.04Y-8.9
X4.075Y-7.4
X4.475Y-7.4
X13.825Y-6.275
X14.225Y-6.275
X5.575Y-6.275
X5.975Y-6.275
X8.86Y-10.4
X9.26Y-10.4
X13.455Y-10.4
X13.855Y-10.4
X11.67Y-10.4
X12.07Y-10.4
X11.39Y-8.9
X11.79Y-8.9
X12.515Y-9.65
X12.915Y-9.65
X9.7Y-8.15
X10.1Y-8.15
X14.575Y-9.65
X14.975Y-9.65
X13.455Y-8.15
X13.855Y-8.15
X11.765Y-9.65
X12.165Y-9.65
X4.265Y-8.15
X4.665Y-8.15
X7.075Y-7.4
X7.475Y-7.4
X9.89Y-8.9
X10.29Y-8.9
X11.015Y-9.65
X11.415Y-9.65
X8.2Y-8.15
X8.6Y-8.15
X10.265Y-9.65
X10.665Y-9.65
X6.14Y-10.4
X6.54Y-10.4
X5.765Y-9.65
X6.165Y-9.65
X8.575Y-7.4
X8.975Y-7.4
X5.39Y-8.9
X5.79Y-8.9
X5.11Y-10.4
X5.51Y-10.4
X11.575Y-7.4
X11.975Y-7.4
X16.265Y-10.4
X16.665Y-10.4
X7.825Y-7.4
X8.225Y-7.4
X17.015Y-8.15
X17.415Y-8.15
X13.075Y-6.275
X13.475Y-6.275
X15.515Y-10.4
X15.915Y-10.4
X12.7Y-8.15
X13.1Y-8.15
X10.075Y-7.4
X10.475Y-7.4
X6.89Y-8.9
X7.29Y-8.9
X11.95Y-8.15
X12.35Y-8.15
X4.075Y-6.275
X4.475Y-6.275
X5.205Y-10.4
X5.605Y-10.4
X4.825Y-7.4
X5.225Y-7.4
X4.36Y-8.9
X4.76Y-8.9
X15.515Y-8.15
X15.915Y-8.15
X8.39Y-8.9
X8.79Y-8.9
X15.515Y-6.275
X15.915Y-6.275
X9.14Y-8.9
X9.54Y-8.9
X7.45Y-8.15
X7.85Y-8.15
X10.825Y-7.4
X11.225Y-7.4
X7.265Y-9.65
X7.665Y-9.65
X8.015Y-9.65
X8.415Y-9.65
X9.515Y-9.65
X9.915Y-9.65
X14.39Y-8.15
X14.79Y-8.15
X8.95Y-8.15
X9.35Y-8.15
X14.575Y-6.275
X14.975Y-6.275
X6.045Y-10.4
X6.445Y-10.4
X13.64Y-8.9
X14.04Y-8.9
X6.325Y-6.275
X6.725Y-6.275
T2
X14.68Y-8.325
X14.68Y-8.725
T3
X14.105Y-8.9
X14.505Y-8.9
X4.545Y-9.65
X4.945Y-9.65
X13.92Y-9.65
X14.32Y-9.65
X14.3Y-7.2
X14.7Y-7.2
T4
X15.5347Y-9.9256
X17.3897Y-8.6206
X4.075Y-4.98
X7.76Y-4.98
X13.765Y-4.98
X15.1947Y-10.4006
X5.0697Y-8.9006
X7.76Y-5.72
X13.765Y-5.72
X17.41Y-4.98
X4.8847Y-10.4006
X17.41Y-5.72
X5.025Y-6.555
X17.3897Y-9.9256
X17.2097Y-6.8356
X15.5347Y-8.6206
X4.075Y-5.72
T5
X7.0915Y-10.675
X11.0285Y-10.675
X13.835Y-8.625
X14.775Y-8.625
X4.275Y-9.375
X5.215Y-9.375
X13.65Y-9.375
X14.59Y-9.375
X14.03Y-6.925
X14.97Y-6.925
X7.275Y-10.675
X11.775Y-10.675
X14.955Y-8.055
X14.955Y-8.995
T6
X7.0915Y-10.075
X11.0285Y-10.075
X13.835Y-9.225
X14.305Y-8.9
X14.775Y-9.225
X4.275Y-9.975
X4.745Y-9.65
X5.215Y-9.975
X13.65Y-9.975
X14.12Y-9.65
X14.59Y-9.975
X14.03Y-7.525
X14.5Y-7.2
X14.97Y-7.525
X7.275Y-10.075
X11.775Y-10.075
X14.355Y-8.055
X14.355Y-8.995
X14.68Y-8.525
T7
X6.525Y-7.4
X5.4Y-8.15
X10.655Y-6.275
X14.685Y-10.4
X9.905Y-6.275
X14.775Y-7.4
X12.805Y-10.4
X11.4Y-8.15
X14.025Y-7.4
X13.745Y-9.65
X7.84Y-8.9
X12.34Y-8.9
X17.215Y-7.4
X14.585Y-10.4
X15.715Y-7.4
X4.37Y-8.9
X11.4Y-6.275
X5.215Y-9.65
X9.525Y-10.4
X12.525Y-6.275
X13.275Y-7.4
X6.715Y-9.65
X13.745Y-10.4
X8.03Y-6.275
X16.465Y-9.65
X5.775Y-7.4
X13.09Y-8.9
X17.215Y-6.275
X16.465Y-8.15
X6.9Y-8.15
X17.215Y-10.4
X10.84Y-8.9
X4.275Y-7.4
X14.025Y-6.275
X5.775Y-6.275
X9.06Y-10.4
X13.655Y-10.4
X11.87Y-10.4
X11.59Y-8.9
X12.715Y-9.65
X9.9Y-8.15
X14.775Y-9.65
X13.655Y-8.15
X11.965Y-9.65
X4.465Y-8.15
X7.275Y-7.4
X10.09Y-8.9
X11.215Y-9.65
X8.4Y-8.15
X10.465Y-9.65
X6.34Y-10.4
X5.965Y-9.65
X8.775Y-7.4
X5.59Y-8.9
X5.31Y-10.4
X11.775Y-7.4
X16.465Y-10.4
X8.025Y-7.4
X17.215Y-8.15
X13.275Y-6.275
X15.715Y-10.4
X12.9Y-8.15
X10.275Y-7.4
X7.09Y-8.9
X12.15Y-8.15
X4.275Y-6.275
X5.405Y-10.4
X5.025Y-7.4
X4.56Y-8.9
X15.715Y-8.15
X8.59Y-8.9
X15.715Y-6.275
X9.34Y-8.9
X7.65Y-8.15
X11.025Y-7.4
X7.465Y-9.65
X8.215Y-9.65
X9.715Y-9.65
X14.59Y-8.15
X9.15Y-8.15
X14.775Y-6.275
X6.245Y-10.4
X13.84Y-8.9
X6.525Y-6.275
X16.465Y-6.275
X10.65Y-8.15
X4.37Y-9.65
X4.37Y-10.4
X9.155Y-6.275
X12.525Y-7.4
X6.15Y-8.15
X9.525Y-7.4
X7.275Y-6.275
X6.34Y-8.9
X16.465Y-7.4
X4.465Y-10.4
X8.965Y-9.65
X12.71Y-10.4
T0
M30
