<?xml version="1.0" encoding="UTF-8" standalone="no"?>
<svg
   xmlns:dc="http://purl.org/dc/elements/1.1/"
   xmlns:cc="http://creativecommons.org/ns#"
   xmlns:rdf="http://www.w3.org/1999/02/22-rdf-syntax-ns#"
   xmlns:svg="http://www.w3.org/2000/svg"
   xmlns="http://www.w3.org/2000/svg"
   xmlns:sodipodi="http://sodipodi.sourceforge.net/DTD/sodipodi-0.dtd"
   xmlns:inkscape="http://www.inkscape.org/namespaces/inkscape"
   width="210mm"
   height="297mm"
   viewBox="0 0 210 297"
   version="1.1"
   id="svg8"
   inkscape:version="1.0 (4035a4fb49, 2020-05-01)"
   sodipodi:docname="athena helmet.svg"
   inkscape:export-filename="G:\[PROY]Atenea TKL\AteneaTKL-pcb\athena helmet.png"
   inkscape:export-xdpi="1024"
   inkscape:export-ydpi="1024">
  <defs
     id="defs2">
    <inkscape:path-effect
       effect="bspline"
       id="path-effect44"
       is_visible="true"
       lpeversion="1"
       weight="33.333333"
       steps="2"
       helper_size="0"
       apply_no_weight="true"
       apply_with_weight="true"
       only_selected="false" />
    <inkscape:path-effect
       effect="bspline"
       id="path-effect39"
       is_visible="true"
       lpeversion="1"
       weight="33.333333"
       steps="2"
       helper_size="0"
       apply_no_weight="true"
       apply_with_weight="true"
       only_selected="false" />
  </defs>
  <sodipodi:namedview
     id="base"
     pagecolor="#ffffff"
     bordercolor="#666666"
     borderopacity="1.0"
     inkscape:pageopacity="0.0"
     inkscape:pageshadow="2"
     inkscape:zoom="5.6"
     inkscape:cx="64.76969"
     inkscape:cy="71.263519"
     inkscape:document-units="mm"
     inkscape:current-layer="layer1"
     inkscape:document-rotation="0"
     showgrid="false"
     inkscape:window-width="1920"
     inkscape:window-height="1017"
     inkscape:window-x="1072"
     inkscape:window-y="-8"
     inkscape:window-maximized="1" />
  <metadata
     id="metadata5">
    <rdf:RDF>
      <cc:Work
         rdf:about="">
        <dc:format>image/svg+xml</dc:format>
        <dc:type
           rdf:resource="http://purl.org/dc/dcmitype/StillImage" />
        <dc:title />
      </cc:Work>
    </rdf:RDF>
  </metadata>
  <g
     inkscape:groupmode="layer"
     id="layer2"
     inkscape:label="Capa 2"
     style="display:none;opacity:1" />
  <g
     inkscape:label="Capa 4"
     id="layer1"
     inkscape:groupmode="layer">
    <rect
       y="5.6696439"
       x="6.1213369"
       height="10"
       width="6.3837018"
       id="rect849"
       style="opacity:1;fill:#ffffff;stroke-width:0.0118845" />
  </g>
  <g
     inkscape:groupmode="layer"
     id="layer3"
     inkscape:label="Capa 3"
     style="display:inline">
    <path
       style="fill:none;stroke:#000000;stroke-width:0.0118845px;stroke-linecap:butt;stroke-linejoin:miter;stroke-opacity:1"
       d="m 10.083789,9.3472061 c 0.108047,-0.002 0.216105,-0.004 0.273623,-0.0065 0.05752,-0.0025 0.06453,-0.00551 0.09404,-0.024512 0.02951,-0.019007 0.08153,-0.054021 0.109539,-0.079028 0.02801,-0.025007 0.03201,-0.040007 0.03251,-0.1205394 5.01e-4,-0.080532 -0.0025,-0.2265933 1e-6,-0.3116308 0.0025,-0.085038 0.0105,-0.1090435 0.05753,-0.1745794 0.04702,-0.065536 0.133058,-0.1725798 0.272624,-0.2636221 0.139566,-0.091042 0.332646,-0.1660731 0.451697,-0.2135941 0.119051,-0.047521 0.164066,-0.067529 0.209086,-0.087539 -0.007,-0.042018 -0.014,-0.084018 -0.124052,-0.2165831 C 11.350339,7.7165137 11.137251,7.4934218 10.893144,7.2768252 10.649036,7.0602286 10.373922,6.8501416 10.124813,6.6875686 9.8757032,6.5249956 9.6526103,6.4099475 9.4570241,6.3274096 9.2614379,6.2448718 9.0933676,6.1948508 8.935297,6.1703379 8.7772264,6.145825 8.6291654,6.146825 8.4780967,6.1618311 8.3270279,6.1768372 8.1729654,6.2058497 8.0123901,6.2778825 7.8518149,6.3499152 7.684745,6.4649635 7.5641904,6.579516 7.4436357,6.6940686 7.369604,6.8081174 7.3030742,6.9386777 7.2365443,7.0692381 7.1775206,7.2162972 7.1340014,7.3788709 c -0.043519,0.1625738 -0.071532,0.3406464 -0.082536,0.5572453 -0.011004,0.2165988 -0.005,0.4717032 0.002,0.6918005 0.007,0.2200972 0.015007,0.405175 0.0345,0.5811642 0.019493,0.1759892 0.050539,0.3432362 0.064545,0.429766 0.014006,0.08653 0.011,0.092546 0.02951,0.045523 0.018511,-0.047023 0.058528,-0.1470661 0.096545,-0.2336047 C 7.3165841,9.3642271 7.3526002,9.2911941 7.4301355,9.1936495 7.5076709,9.0961049 7.6267196,8.9740546 7.7562778,8.8640054 7.885836,8.7539563 8.0258924,8.6559173 8.1519497,8.5708789 8.278007,8.4858405 8.3900517,8.4138116 8.5936493,8.4108124 c 0.2035976,-0.003 0.498714,0.063027 0.7458253,0.1950918 0.2471113,0.1320644 0.4461908,0.3301429 0.5622397,0.4647037 0.1160487,0.1345609 0.1490557,0.2055775 0.1820687,0.2766082 0,0 6e-6,-1e-5 6e-6,-1e-5 z"
       id="path42"
       sodipodi:nodetypes="ccccccccccccccccccccccccccccccccc"
       inkscape:original-d="m 10.083789,9.3472061 c 0,0 0.216105,-0.004 0.32414,-0.006 0.007,-0.003 0.01402,-0.006 0.02101,-0.009 0.05204,-0.035 0.104056,-0.07002 0.156068,-0.105046 0.004,-0.015 0.008,-0.03 0.012,-0.04501 -0.003,-0.146055 -0.006,-0.292116 -0.009,-0.438191 0.008,-0.024 0.01602,-0.048 0.02401,-0.07203 0.08605,-0.107038 0.172086,-0.214081 0.258111,-0.32114 0.1931,-0.07502 0.386179,-0.150053 0.579251,-0.225097 0.04503,-0.02 0.13506,-0.06003 0.13506,-0.06003 0,0 -0.01399,-0.08402 -0.02101,-0.126055 -0.213089,-0.223094 -0.426177,-0.446186 -0.639282,-0.669294 -0.275112,-0.210083 -0.550226,-0.42017 -0.825358,-0.630273 -0.2230876,-0.115041 -0.4461806,-0.230089 -0.6692896,-0.34515 -0.168064,-0.05001 -0.336134,-0.100032 -0.504218,-0.150065 -0.148055,10e-4 -0.296116,0.002 -0.444193,0.003 -0.154059,0.02902 -0.308122,0.05803 -0.462201,0.08704 -0.167063,0.115064 -0.334133,0.230112 -0.501217,0.34515 -0.07402,0.114063 -0.148053,0.228111 -0.222096,0.342148 -0.05902,0.147079 -0.118039,0.29414 -0.177077,0.441192 -0.028,0.178092 -0.05601,0.356165 -0.08404,0.534232 0.006,0.255128 0.01202,0.510232 0.01801,0.765332 0.008,0.185095 0.01602,0.370172 0.02401,0.55524 0.03003,0.167088 0.06204,0.334156 0.09304,0.501217 -0.003,0.006 -0.006,0.01202 -0.009,0.01801 0.04003,-0.100033 0.08005,-0.200075 0.120053,-0.300131 0.03603,-0.07302 0.07205,-0.146051 0.108046,-0.219094 0.119067,-0.122044 0.238115,-0.244095 0.357155,-0.36616 0.140075,-0.09803 0.28013,-0.196071 0.420182,-0.294126 0.112063,-0.07202 0.224107,-0.14405 0.336147,-0.216095 0.295145,0.06604 0.590261,0.132068 0.885383,0.198087 0.199102,0.198102 0.398182,0.39618 0.59726,0.594257 0.03303,0.07104 0.09904,0.213092 0.09904,0.213092 z"
       inkscape:path-effect="#path-effect44" />
    <path
       style="opacity:0;fill:#000000;stroke-width:0.00424449"
       d="m 8.5750254,6.1636931 c -0.234929,0.0048 -0.475476,0.03637 -0.688608,0.140951 -0.21775,0.1063 -0.418005,0.256948 -0.562893,0.452688 -0.103522,0.147801 -0.178133,0.314152 -0.238819,0.483506 -0.107651,0.308112 -0.136099,0.637424 -0.132576,0.961914 -2.56e-4,0.318789 0.0081,0.637914 0.03497,0.955646 0.01559,0.16545 0.04142,0.329992 0.07155,0.493264 0.01047,0.01745 0.039,0.0055 0.04205,-0.01259 0.05016,-0.123927 0.106347,-0.24655 0.177033,-0.360391 0.103927,-0.150581 0.236108,-0.279543 0.373595,-0.398998 0.156905,-0.131331 0.324096,-0.250562 0.497179,-0.359255 0.105249,-0.06696 0.229799,-0.102518 0.353991,-0.09921 0.104982,-0.0026 0.207928,0.01902 0.312237,0.02896 0.167219,0.0083 0.33436,0.02357 0.497044,0.0648 0.22603,0.05731 0.446701,0.142872 0.647918,0.261936 0.1829336,0.108194 0.3378376,0.257735 0.4710656,0.422453 0.01135,0.01433 0.03531,0.0415 0.05283,0.02017 0.01499,-0.04743 0.0073,-0.09922 0.01074,-0.148348 0.0036,-0.111 -0.0025,-0.222586 0.009,-0.333085 0.0099,-0.05473 0.05141,-0.09642 0.08215,-0.140557 0.104637,-0.132422 0.242673,-0.236092 0.39511,-0.307236 0.141125,-0.06966 0.290793,-0.11997 0.432722,-0.187661 0.03304,-0.01506 0.06596,-0.05083 0.05028,-0.08948 -0.03036,-0.07518 -0.08876,-0.134604 -0.139263,-0.196647 -0.215441,-0.243538 -0.452333,-0.467818 -0.702059,-0.675856 -0.383168,-0.315151 -0.7965776,-0.60084 -1.2540836,-0.797196 -0.250293,-0.107241 -0.518726,-0.183954 -0.793141,-0.179783 z"
       id="path46" />
    <path
       style="opacity:1;fill:#000000;fill-opacity:1;stroke-width:0.0120052"
       d="m 8.5750254,6.1636921 c -0.489875,0.0048 -0.963416,0.282009 -1.218201,0.698319 -0.210428,0.363479 -0.292358,0.785806 -0.296497,1.202139 -0.0033,0.433344 0.0024,0.868903 0.05924,1.299088 0.0185,0.06526 0.0043,0.147486 0.04332,0.203673 0.08348,0.02155 0.09953,-0.08996 0.130253,-0.14165 0.120528,-0.270978 0.358419,-0.464851 0.580108,-0.651938 0.186364,-0.138587 0.372087,-0.3042 0.60553,-0.351844 0.286164,-0.04429 0.575704,0.04544 0.833075,0.165038 0.277692,0.142511 0.511597,0.362533 0.6982136,0.61092 0.03506,0.04595 0.0553,0.103079 0.08744,0.149066 0.119977,-0.01599 0.251619,0.01286 0.364119,-0.03946 0.06409,-0.03342 0.134039,-0.08308 0.128306,-0.164907 0.01441,-0.146637 -0.0089,-0.297816 0.02333,-0.442013 0.07754,-0.138267 0.195472,-0.25523 0.327141,-0.342665 0.203801,-0.119761 0.426641,-0.200877 0.644038,-0.291805 -0.03326,-0.13567 -0.150009,-0.239548 -0.239156,-0.344929 -0.528784,-0.557424 -1.141166,-1.050901 -1.8442396,-1.369988 -0.240477,-0.106888 -0.496896,-0.18968 -0.762935,-0.18583 -0.05434,-0.0018 -0.108724,-0.0022 -0.163083,-0.0012 z m 2.8691026,1.63306 c -0.0101,0.03116 0.0428,0.06249 0.05719,0.09086 0.0097,0.01022 0.04895,0.06596 0.0491,0.02942 -0.02942,-0.04284 -0.06291,-0.09198 -0.106289,-0.120287 z"
       id="path947" />
    <path
       style="opacity:1;fill:#000000;fill-opacity:1;stroke-width:0.0120052"
       d="m 8.7683094,8.4635961 c -0.308392,-0.0053 -0.620441,0.07162 -0.875838,0.248638 -0.385008,0.242095 -0.702267,0.609737 -0.826446,1.052843 -0.138434,0.4726919 -0.1879,0.9721409 -0.151395,1.4630229 0.02872,0.187412 0.04343,0.400254 0.189738,0.539015 0.174203,0.167014 0.199177,0.418742 0.21314,0.64596 0.0085,0.205686 0.01353,0.423539 -0.09403,0.607011 -0.03562,0.08365 -0.09978,0.171886 -0.09177,0.262429 0.156039,0.0023 0.306991,-0.03608 0.452557,-0.08884 0.05765,-0.01811 0.143296,-0.04689 0.180507,0.02098 0.09171,0.159553 0.185245,0.321502 0.322335,0.447875 0.289521,0.272487 0.61032,0.511622 0.944073,0.727135 0.451583,0.283172 0.961187,0.461859 1.4769456,0.586825 0.06569,-6.4e-4 0.142675,0.02325 0.20219,-0.0094 0.0163,-0.09935 -0.01699,-0.203876 -0.02394,-0.304076 -0.09616,-0.759616 -0.323057,-1.504637 -0.310319,-2.275589 -0.008,-0.07221 0.01409,-0.155022 -0.01624,-0.222143 -0.0672,-7.58e-4 -0.12402,0.05776 -0.188119,0.07637 -0.2261616,0.10103 -0.4795806,0.06427 -0.7195016,0.06761 -0.132694,-0.01042 -0.273449,7.97e-4 -0.399656,-0.04253 0.01139,-0.07557 0.08915,-0.127252 0.140199,-0.179172 0.233325,-0.192021 0.471509,-0.394656 0.759066,-0.499475 0.1479996,-0.04092 0.3351696,-0.04376 0.4566426,0.06692 0.10437,0.140102 0.12884,0.321659 0.184584,0.483423 0.09218,0.305043 0.160138,0.638226 0.387894,0.876832 0.03626,0.05355 0.100454,0.08719 0.164506,0.06234 0.06993,-0.008 0.153356,-0.04623 0.148119,-0.129455 0.0071,-0.122944 0.03073,-0.258375 -0.02314,-0.373568 -0.07056,-0.05787 -0.18278,-0.07754 -0.211334,-0.177569 -0.09677,-0.248357 -0.155662,-0.51364 -0.162891,-0.780526 0.0053,-0.146861 0.03068,-0.336279 0.176327,-0.410569 0.04602,-0.02588 0.102297,-0.01511 0.131095,0.03276 0.02143,0.03029 0.100937,0.06036 0.102537,0.0018 -0.02161,-0.22284 -0.09926,-0.436751 -0.160325,-0.651227 C 10.965679,9.9921091 10.665139,9.4208631 10.217865,8.9806241 9.9442184,8.7239971 9.5818194,8.5826411 9.2203254,8.5024211 c -0.148675,-0.02957 -0.300567,-0.04059 -0.452016,-0.03883 z m 2.3176616,3.9668299 c 0.02328,0.01098 0.04675,0.08074 0.07604,0.06148 -0.009,-0.02234 -0.05879,-0.07319 -0.07604,-0.06148 z"
       id="path949" />
    <path
       style="opacity:1;fill:#000000;fill-opacity:1;stroke-width:0.0120052"
       d="m 11.24436,11.790282 c -0.06387,0.01293 -0.110296,0.07107 -0.179094,0.07465 -0.0398,0.01936 -0.102516,-0.01023 -0.130181,0.0283 0.0247,0.165744 0.06749,0.33177 0.128868,0.488181 0.04414,0.08922 0.139885,0.127003 0.215953,0.180617 0.05718,0.0717 0.02138,0.174611 0.03195,0.258581 -0.0065,0.08146 0.01931,0.211553 -0.08377,0.242262 -0.04795,0.02597 -0.121209,0.01639 -0.157451,0.0577 4.72e-4,0.138384 0.05398,0.272745 0.07701,0.408731 0.0856,0.367433 0.163225,0.737137 0.24098,1.105824 0.05177,0.04039 0.120434,-0.02252 0.148306,-0.06704 0.07066,-0.136773 0.04782,-0.299264 0.05611,-0.447969 -0.0014,-0.474789 -0.128894,-0.940339 -0.106523,-1.416027 -0.07184,-0.145565 -0.135509,-0.298416 -0.152926,-0.46199 -0.02677,-0.146239 -0.02277,-0.298929 -0.05939,-0.442833 -0.006,-0.01052 -0.01951,-0.0099 -0.02985,-0.009 z"
       id="path951" />
    <path
       style="opacity:1;fill:#000000;fill-opacity:1;stroke-width:0.00150065"
       d="m 11.251845,11.631598 c -0.01074,8.4e-5 -0.0081,0.01317 -0.0093,0.02021 -0.0041,0.04644 -0.01108,0.09357 -0.03546,0.13433 -0.0049,0.0064 -0.0027,0.01839 0.0069,0.01752 0.01716,-0.0018 0.03503,-0.01431 0.05206,-0.0053 0.0052,0.0065 0.0185,0.01109 0.02301,0.0018 4.71e-4,-0.01746 -0.0038,-0.035 -0.0053,-0.05244 -0.005,-0.03754 -0.01103,-0.07524 -0.01959,-0.112002 -0.002,-0.0048 -0.0081,-0.0037 -0.01234,-0.0041 z"
       id="path953" />
    <path
       style="opacity:1;fill:#000000;fill-opacity:1;stroke-width:0.00150065"
       d="m 11.279795,11.804188 c -0.01416,0.0014 -0.0069,0.02663 0.0061,0.02175 0.01011,-0.0041 0.0053,-0.02355 -0.0061,-0.02175 z"
       id="path955" />
    <path
       style="opacity:1;fill:#000000;fill-opacity:1;stroke-width:0.00150065"
       d="m 11.228122,11.256323 c -0.0089,2.5e-5 -0.01044,0.011 -0.0065,0.01719 0.01179,0.02758 0.02238,0.05616 0.02573,0.08574 0.0056,0.0094 0.0196,0.0041 0.02358,-0.0042 0.01883,-0.02627 0.03448,-0.05631 0.03939,-0.08842 -0.0025,-0.0101 -0.01636,-0.0051 -0.02267,-0.001 -0.01899,0.0075 -0.03864,-0.0022 -0.05621,-0.0089 -10e-4,-2.14e-4 -0.0022,-3.15e-4 -0.0033,-2.72e-4 z"
       id="path957" />
    <path
       style="opacity:1;fill:#000000;fill-opacity:1;stroke-width:0.00424449"
       d="m 10.370802,12.136074 c -0.02692,-0.0037 -0.02023,0.05216 0.0051,0.03965 0.0132,-0.0078 0.01851,-0.04323 -0.0051,-0.03965 z"
       id="path959" />
    <path
       style="opacity:1;fill:#000000;fill-opacity:1;stroke-width:0.000750327"
       d="m 10.352507,12.138628 c -0.0088,0.0018 -0.01506,0.0091 -0.0225,0.01369 -0.0053,0.0046 -0.01493,0.0078 -0.01467,0.01631 -1.77e-4,0.0058 0.0061,0.0089 0.01112,0.0067 0.0093,-0.0023 0.01883,-0.0036 0.02835,-0.0046 0.0073,-0.0021 0.0045,-0.01065 0.0051,-0.01631 -5.8e-4,-0.0049 0.0031,-0.01155 -0.0024,-0.01478 -0.0014,-7.97e-4 -0.0033,-10e-4 -0.0049,-9.57e-4 z"
       id="path961" />
    <path
       style="opacity:1;fill:#000000;fill-opacity:1;stroke-width:0.000750327"
       d="m 10.383503,12.11612 c -0.0069,0.0014 -0.01275,0.0064 -0.01789,0.01106 -0.0048,0.0048 -0.0019,0.01495 0.0056,0.01433 0.0057,-5.28e-4 0.01294,0.0043 0.01735,-0.0014 0.003,-0.0054 0.0025,-0.01213 0.0031,-0.01808 3.6e-5,-0.0044 -0.0044,-0.0064 -0.0082,-0.0058 z"
       id="path963" />
    <path
       style="opacity:1;fill:#000000;fill-opacity:1;stroke-width:0.000750327"
       d="m 10.37846,12.170084 c -0.0056,0.0018 -0.01281,-1.1e-5 -0.0173,0.0043 -0.0037,0.0055 0.0014,0.01195 0.002,0.01777 0.0022,0.0053 0.0011,0.01273 0.0062,0.01635 0.0051,0.0031 0.0139,7.97e-4 0.0132,-0.0063 5.81e-4,-0.0093 0.0029,-0.01863 0.0023,-0.02787 -4.71e-4,-0.0029 -0.0037,-0.0045 -0.0065,-0.0042 z"
       id="path965" />
    <path
       style="opacity:1;fill:#000000;fill-opacity:1;stroke-width:0.000750327"
       d="m 10.357572,12.132543 c -0.0069,0.0019 -0.0054,0.0141 0.0021,0.01325 0.007,1.1e-5 0.0087,-0.01162 0.0016,-0.01325 -0.0012,-5.11e-4 -0.0025,-2.29e-4 -0.0037,-1.3e-5 z"
       id="path967" />
    <path
       style="opacity:1;fill:#000000;fill-opacity:1;stroke-width:0.00212224"
       d="m 7.1229574,8.6866831 c -0.01585,0.0015 -0.02926,0.01408 -0.04592,0.01017 -0.0098,10e-4 -0.02567,-0.0058 -0.03126,0.0055 0.0038,0.03556 0.01029,0.07126 0.01711,0.10646 0.0054,0.01141 0.02341,0.0062 0.02631,-0.0049 0.01572,-0.03573 0.03076,-0.07206 0.04391,-0.108723 2.87e-4,-0.0055 -0.0051,-0.009 -0.01014,-0.0085 z"
       id="path969" />
  </g>
  <path
     style="fill:none;stroke:#000000;stroke-width:0.0118845px;stroke-linecap:butt;stroke-linejoin:miter;stroke-opacity:1"
     d="m 10.394824,12.107128 c -7.04e-4,0.0028 -0.0021,0.0085 -0.0092,0.07004 -0.0071,0.06153 -0.0198,0.178963 -0.0099,0.386948 0.0099,0.207984 0.04244,0.506505 0.08199,0.760169 0.03955,0.253663 0.08637,0.463655 0.122449,0.646876 0.03608,0.183222 0.06154,0.340266 0.08347,0.495191 0.02193,0.154924 0.04032,0.307722 0.05163,0.394021 0.01132,0.0863 0.01556,0.106111 -0.01627,0.121668 -0.03183,0.01556 -0.09974,0.02687 -0.334604,-0.03326 C 10.129578,14.888655 9.7277746,14.757078 9.4002391,14.60074 9.0727036,14.444402 8.8194547,14.263308 8.587421,14.087161 8.3553873,13.911014 8.1445823,13.739823 8.0137082,13.596929 7.8828341,13.454034 7.8318988,13.33943 7.7979458,13.272226 c -0.033953,-0.0672 -0.050928,-0.08701 -0.079931,-0.0948 -0.029002,-0.0078 -0.070038,-0.0035 -0.1239281,0.01388 -0.053891,0.01742 -0.1229652,0.04908 -0.2028993,0.06959 -0.079934,0.02052 -0.171901,0.03042 -0.2193052,0.02688 -0.047404,-0.0035 -0.050236,-0.0205 -0.045288,-0.05163 0.00495,-0.03112 0.017684,-0.07641 0.046688,-0.131586 0.029004,-0.05518 0.074277,-0.12026 0.10399,-0.206561 0.029713,-0.0863 0.043862,-0.193826 0.044628,-0.326825 7.655e-4,-0.132999 -0.01208,-0.294278 -0.035422,-0.41949 -0.023343,-0.125212 -0.057298,-0.21576 -0.1046932,-0.285797 -0.047395,-0.07004 -0.108231,-0.119555 -0.147142,-0.170489 -0.038911,-0.05093 -0.055886,-0.103276 -0.076402,-0.18746 -0.020516,-0.08418 -0.044569,-0.200196 -0.056597,-0.349464 -0.012028,-0.149268 -0.012028,-0.331776 0.00212,-0.523488 0.014148,-0.191713 0.042444,-0.392616 0.087719,-0.600597 C 7.0367563,9.8264175 7.099008,9.6113659 7.1991137,9.4228916 7.2992194,9.2344172 7.4385684,9.0708959 7.5963251,8.9294106 7.7540817,8.7879254 7.9309311,8.6676674 8.1014233,8.5891436 8.2719155,8.5106198 8.4360306,8.4738356 8.6305732,8.4596891 c 0.1945426,-0.014146 0.4194962,-0.00566 0.6656799,0.053063 0.2461837,0.058719 0.5135801,0.1676583 0.7137779,0.2971198 0.200198,0.1294614 0.333189,0.2794309 0.460524,0.442846 0.127335,0.163415 0.249008,0.3402651 0.356428,0.5402144 0.107421,0.1999492 0.201008,0.4239899 0.280238,0.6574379 0.07923,0.233449 0.144311,0.476795 0.17685,0.617568 0.03254,0.140773 0.03254,0.178983 0.02476,0.210809 -0.0078,0.03183 -0.02335,0.05729 -0.03679,0.07568 -0.01344,0.01839 -0.02476,0.02971 -0.02758,0.06862 -0.0028,0.03891 0.0028,0.105408 0.01202,0.162976 0.0092,0.05757 0.0219,0.106195 0.03001,0.175528 0.0081,0.06933 0.0116,0.159375 0.02411,0.28018 0.01251,0.120804 0.03402,0.272369 0.05978,0.374412 0.02576,0.102043 0.05578,0.154568 0.07954,0.195838 0.02376,0.04127 0.04127,0.07128 0.04601,0.115051 0.0047,0.04377 -0.0033,0.101287 -0.0068,0.163314 -0.0035,0.06203 -0.0025,0.128558 0.0093,0.233105 0.01176,0.104546 0.03427,0.247106 0.05503,0.414181 0.02076,0.167074 0.03977,0.358652 0.04627,0.515221 0.0065,0.15657 5.04e-4,0.278119 -0.01025,0.361152 -0.01075,0.08303 -0.02626,0.127554 -0.05142,0.164439 -0.02516,0.03689 -0.05938,0.06565 -0.08689,0.07816 -0.02751,0.01251 -0.04801,0.0085 -0.06002,-0.0042 -0.01202,-0.01275 -0.01552,-0.03426 -0.02702,-0.09954 -0.01151,-0.06528 -0.03101,-0.174325 -0.07135,-0.36106 -0.04034,-0.186734 -0.101656,-0.45177 -0.146427,-0.644973 -0.04477,-0.193203 -0.07307,-0.314877 -0.08296,-0.377143 -0.0099,-0.06227 -0.0014,-0.06509 0.03395,-0.07429 0.03537,-0.0092 0.09762,-0.02476 0.135821,-0.03608 0.0382,-0.01132 0.05234,-0.01839 0.06508,-0.08488 0.01273,-0.06649 0.02405,-0.19241 0.0191,-0.277298 -0.005,-0.08489 -0.02617,-0.128747 -0.05234,-0.149984 -0.02617,-0.02124 -0.0573,-0.01984 -0.09267,-0.03257 -0.03537,-0.01274 -0.07499,-0.03962 -0.113899,-0.127336 -0.03891,-0.08772 -0.07711,-0.23627 -0.107506,-0.370551 -0.0304,-0.134281 -0.05308,-0.254796 -0.0545,-0.368693 -0.0014,-0.113897 0.01839,-0.221421 0.05235,-0.297827 0.03396,-0.07641 0.08206,-0.121682 0.124506,-0.142196 0.04244,-0.02051 0.07925,-0.01627 0.108955,0.01133 0.0297,0.0276 0.05234,0.07853 0.06047,0.116024 0.0081,0.0375 0.0018,0.06153 6.81e-4,0.112823 -0.0011,0.0513 0.0032,0.131232 -0.001,0.19765 -0.0042,0.06642 -0.017,0.120335 -0.04705,0.154992 -0.03006,0.03466 -0.07746,0.05022 -0.125559,0.05942 -0.0481,0.0092 -0.09692,0.01203 -0.121328,0.01415 -0.02441,0.0021 -0.02441,0.0036 -0.0184,0.03717 0.006,0.03355 0.01804,0.09934 0.03573,0.175741 0.01769,0.0764 0.04103,0.163413 0.06332,0.227785 0.02229,0.06437 0.04351,0.106114 0.06545,0.135825 0.02193,0.02971 0.04457,0.04739 0.07251,0.06048 0.02794,0.01308 0.06119,0.02157 0.08453,0.03466 0.02334,0.01309 0.03679,0.03078 0.04669,0.07995 0.0099,0.04916 0.01627,0.129804 0.01344,0.203724 -0.0028,0.07392 -0.01486,0.141129 -0.02513,0.177566 -0.01027,0.03644 -0.01873,0.04208 -0.05167,0.05217 -0.03294,0.01009 -0.09298,0.02528 -0.127647,0.03341 -0.03467,0.0081 -0.04528,0.0095 -0.09515,-0.03964 -0.04987,-0.04917 -0.138998,-0.14891 -0.206559,-0.274477 -0.06756,-0.125566 -0.113543,-0.27695 -0.162001,-0.447438 -0.04846,-0.170488 -0.09939,-0.360073 -0.140772,-0.482808 -0.04138,-0.122734 -0.07322,-0.178625 -0.12627,-0.218245 -0.05305,-0.03962 -0.127329,-0.06297 -0.223186,-0.0658 -0.09586,-0.0028 -0.2132893,0.01485 -0.3678639,0.09691 -0.1545746,0.08206 -0.3462797,0.228492 -0.4693699,0.32753 -0.1230902,0.09904 -0.1775625,0.15068 -0.2101056,0.188179 -0.032543,0.0375 -0.043153,0.06084 -0.048118,0.07388 -0.00496,0.01304 -0.00423,0.016 0.00638,0.01917 0.010616,0.0032 0.03112,0.0067 0.1096419,0.01626 0.078522,0.0095 0.2150495,0.02511 0.3823553,0.02936 0.1673058,0.0042 0.3653756,-0.0028 0.5103915,-0.03997 0.145016,-0.03714 0.236977,-0.104342 0.282958,-0.137944 0.04598,-0.0336 0.04595,-0.03349 0.04525,-0.03064 z"
     id="path37"
     inkscape:original-d="m 10.395529,12.104279 c -0.0014,0.0057 -0.0029,0.01133 -0.0042,0.01698 -0.01272,0.117444 -0.02545,0.234873 -0.0382,0.352292 0.03256,0.298546 0.06509,0.597068 0.09762,0.895585 0.04387,0.209411 0.09339,0.418801 0.140068,0.628184 0.02548,0.15706 0.05095,0.314104 0.0764,0.471138 0.0184,0.152816 0.03679,0.305614 0.05517,0.458403 0.0042,0.01982 0.0085,0.03962 0.01273,0.05942 -0.0679,0.01133 -0.13581,0.02265 -0.203735,0.03395 -0.401806,-0.131569 -0.8036096,-0.263146 -1.2054316,-0.394736 -0.253248,-0.181091 -0.506497,-0.362185 -0.759763,-0.543294 -0.210801,-0.171186 -0.421606,-0.342377 -0.632427,-0.513583 -0.05091,-0.114591 -0.101856,-0.22919 -0.152802,-0.343803 -0.01697,-0.01979 -0.03394,-0.0396 -0.05093,-0.05942 -0.04102,0.0042 -0.08205,0.0085 -0.12309,0.01274 -0.06649,0.03114 -0.135812,0.06226 -0.203735,0.09338 -0.09195,0.0099 -0.183915,0.01982 -0.275891,0.02971 -0.0029,-0.01697 -0.0057,-0.03394 -0.0085,-0.05093 0.01274,-0.04526 0.02549,-0.09054 0.0382,-0.135823 0.04529,-0.06507 0.09056,-0.130153 0.135824,-0.195247 0.01415,-0.107517 0.0283,-0.215042 0.04245,-0.322581 -0.01272,-0.158451 -0.02545,-0.319739 -0.0382,-0.479626 -0.03394,-0.09054 -0.0679,-0.181086 -0.101868,-0.271647 -0.06083,-0.04951 -0.121664,-0.09903 -0.182513,-0.148557 -0.01697,-0.05234 -0.03394,-0.104685 -0.05093,-0.157045 -0.02404,-0.116007 -0.04809,-0.23202 -0.07216,-0.348048 1.2e-5,-0.182505 1.2e-5,-0.365013 0,-0.547538 0.02831,-0.200898 0.05661,-0.4018 0.08489,-0.602717 0.06226,-0.2150459 0.124517,-0.4300959 0.186757,-0.6451609 0.138668,-0.161282 0.277318,-0.325399 0.41596,-0.488115 0.176868,-0.120252 0.353718,-0.240509 0.53056,-0.360782 0.164135,-0.03678 0.328251,-0.07356 0.49236,-0.110356 0.224973,0.0085 0.449927,0.01698 0.674873,0.02547 0.267419,0.108955 0.534815,0.217895 0.8022066,0.326824 0.133007,0.149987 0.265999,0.299956 0.39898,0.449915 0.12169,0.17687 0.243363,0.35372 0.365026,0.530561 0.09198,0.223559 0.18677,0.4470969 0.280135,0.6706279 0.06509,0.243368 0.130176,0.486713 0.195247,0.730051 1.3e-5,0.03821 1.3e-5,0.07642 0,0.114601 -0.01555,0.02548 -0.03111,0.05095 -0.04669,0.0764 -0.01131,0.01133 -0.02262,0.02265 -0.03395,0.03395 0.0057,0.06651 0.01133,0.133006 0.01698,0.19949 0.01273,0.04865 0.02543,0.09728 0.03814,0.145897 0.0035,0.09005 0.007,0.180091 0.0105,0.270118 0.02152,0.151581 0.04304,0.303144 0.06453,0.454698 0.03003,0.05253 0.06004,0.105057 0.09004,0.157569 0.01752,0.03003 0.03503,0.06004 0.05252,0.09004 -0.008,0.05754 -0.01599,0.115061 -0.02401,0.172574 9.57e-4,0.06654 0.002,0.13307 0.003,0.199587 0.02252,0.142575 0.04503,0.285135 0.06753,0.427686 0.01902,0.191598 0.03802,0.383177 0.05703,0.574749 -0.006,0.121567 -0.01199,0.243117 -0.018,0.364658 -0.01549,0.04453 -0.031,0.08905 -0.04652,0.133557 -0.035,0.02903 -0.06902,0.05804 -0.103544,0.08704 -0.0205,-0.004 -0.041,-0.008 -0.06153,-0.012 -0.0035,-0.0215 -0.007,-0.04301 -0.01051,-0.06453 -0.0195,-0.109037 -0.03901,-0.218083 -0.05852,-0.327142 -0.05982,-0.264723 -0.122478,-0.529448 -0.183735,-0.794189 -0.02828,-0.121666 -0.05658,-0.243339 -0.08489,-0.365027 0.0085,-0.0029 0.01698,-0.0057 0.02547,-0.0085 0.06227,-0.01556 0.124516,-0.03111 0.186758,-0.04669 0.01415,-0.0071 0.0283,-0.01414 0.04245,-0.02122 0.01133,-0.125911 0.02265,-0.251827 0.03395,-0.377759 -0.02121,-0.04385 -0.04243,-0.08771 -0.06367,-0.131579 -0.03111,0.0014 -0.06224,0.0029 -0.09338,0.0042 -0.0396,-0.02687 -0.07922,-0.05375 -0.118845,-0.08064 -0.0382,-0.148549 -0.07639,-0.297103 -0.114601,-0.445671 -0.02121,-0.120251 -0.04526,-0.240509 -0.06791,-0.360781 0.01982,-0.107517 0.03962,-0.215042 0.05942,-0.322581 0.04812,-0.04526 0.09622,-0.09054 0.144312,-0.135823 0.03679,0.0042 0.07359,0.0085 0.110357,0.01273 0.02265,0.05095 0.04529,0.101879 0.06791,0.152801 -0.0064,0.02407 -0.01272,0.04811 -0.01911,0.07216 0.0042,0.07854 0.0085,0.158473 0.01273,0.237691 -0.01202,0.05378 -0.02545,0.10754 -0.0382,0.161291 -0.04738,0.01557 -0.09478,0.03114 -0.14219,0.04669 -0.04879,0.0029 -0.09761,0.0057 -0.146435,0.0085 7e-4,0.0014 1.2e-5,0.0029 0,0.0042 0.01204,0.0658 0.02407,0.131591 0.03608,0.197368 0.02336,0.08702 0.0467,0.174036 0.07004,0.261035 0.02124,0.04174 0.04245,0.08349 0.06367,0.125213 0.02266,0.01769 0.04528,0.03539 0.06791,0.05305 0.03326,0.0085 0.06651,0.01698 0.09975,0.02547 0.01345,0.01769 0.02689,0.03539 0.04032,0.05305 0.0064,0.08066 0.01275,0.161302 0.01911,0.241935 -0.01202,0.06721 -0.02404,0.13442 -0.03608,0.201613 -0.0085,0.0057 -0.01697,0.01133 -0.02547,0.01698 -0.05729,0.01487 -0.117419,0.02973 -0.176147,0.04457 -0.01061,0.0014 -0.02121,0.0029 -0.03183,0.0042 -0.08912,-0.09974 -0.178256,-0.199478 -0.267402,-0.299235 -0.04597,-0.151378 -0.09195,-0.302762 -0.137945,-0.45416 -0.05091,-0.18958 -0.101857,-0.379162 -0.152801,-0.568761 -0.03182,-0.05587 -0.06366,-0.111759 -0.0955,-0.167656 -0.07427,-0.02333 -0.148545,-0.04668 -0.222836,-0.07004 -0.117419,0.01769 -0.2348486,0.03539 -0.3522906,0.05305 -0.191701,0.146449 -0.383406,0.292881 -0.575127,0.439304 -0.05445,0.05166 -0.10893,0.103294 -0.163413,0.154923 -0.01061,0.02336 -0.02121,0.04671 -0.03183,0.07004 1.2e-5,0.0029 0.0014,0.0057 0.0021,0.0085 0.02053,0.0036 0.04104,0.0071 0.06154,0.01061 0.136547,0.01557 0.273074,0.03114 0.409593,0.04669 0.198093,-0.0071 0.396164,-0.01414 0.5942276,-0.02122 0.09198,-0.06719 0.183939,-0.134395 0.275891,-0.201612 z"
     inkscape:path-effect="#path-effect39" />
</svg>
