%TF.GenerationSoftware,KiCad,Pcbnew,(5.1.8)-1*%
%TF.CreationDate,2020-12-24T11:03:39+01:00*%
%TF.ProjectId,Atenea,4174656e-6561-42e6-9b69-6361645f7063,1*%
%TF.SameCoordinates,Original*%
%TF.FileFunction,Legend,Bot*%
%TF.FilePolarity,Positive*%
%FSLAX46Y46*%
G04 Gerber Fmt 4.6, Leading zero omitted, Abs format (unit mm)*
G04 Created by KiCad (PCBNEW (5.1.8)-1) date 2020-12-24 11:03:39*
%MOMM*%
%LPD*%
G01*
G04 APERTURE LIST*
%ADD10C,0.100000*%
G04 APERTURE END LIST*
%TO.C,ST62*%
D10*
X231647809Y-266669474D02*
X231838285Y-266669474D01*
X231933523Y-266717094D01*
X231981142Y-266764713D01*
X232076380Y-266907570D01*
X232124000Y-267098046D01*
X232124000Y-267478998D01*
X232076380Y-267574236D01*
X232028761Y-267621855D01*
X231933523Y-267669474D01*
X231743047Y-267669474D01*
X231647809Y-267621855D01*
X231600190Y-267574236D01*
X231552571Y-267478998D01*
X231552571Y-267240903D01*
X231600190Y-267145665D01*
X231647809Y-267098046D01*
X231743047Y-267050427D01*
X231933523Y-267050427D01*
X232028761Y-267098046D01*
X232076380Y-267145665D01*
X232124000Y-267240903D01*
X231124000Y-267574236D02*
X231076380Y-267621855D01*
X231124000Y-267669474D01*
X231171619Y-267621855D01*
X231124000Y-267574236D01*
X231124000Y-267669474D01*
X230695428Y-266764713D02*
X230647809Y-266717094D01*
X230552571Y-266669474D01*
X230314476Y-266669474D01*
X230219238Y-266717094D01*
X230171619Y-266764713D01*
X230124000Y-266859951D01*
X230124000Y-266955189D01*
X230171619Y-267098046D01*
X230743047Y-267669474D01*
X230124000Y-267669474D01*
X229219238Y-266669474D02*
X229695428Y-266669474D01*
X229743047Y-267145665D01*
X229695428Y-267098046D01*
X229600190Y-267050427D01*
X229362095Y-267050427D01*
X229266857Y-267098046D01*
X229219238Y-267145665D01*
X229171619Y-267240903D01*
X229171619Y-267478998D01*
X229219238Y-267574236D01*
X229266857Y-267621855D01*
X229362095Y-267669474D01*
X229600190Y-267669474D01*
X229695428Y-267621855D01*
X229743047Y-267574236D01*
X228743047Y-266669474D02*
X228743047Y-267478998D01*
X228695428Y-267574236D01*
X228647809Y-267621855D01*
X228552571Y-267669474D01*
X228362095Y-267669474D01*
X228266857Y-267621855D01*
X228219238Y-267574236D01*
X228171619Y-267478998D01*
X228171619Y-266669474D01*
%TD*%
M02*
